<svg width="530" height="332" viewBox="0 0 530 332" fill="none" xmlns="http://www.w3.org/2000/svg">
<mask id="mask0_390_1687" style="mask-type:luminance" maskUnits="userSpaceOnUse" x="1" y="222" width="85" height="92">
<path d="M85.8738 303.18C69.3938 311 50.9339 314.52 32.7539 313.46C17.2839 304.23 8.99391 291.45 5.01391 277.97C3.03391 271.3 2.12382 264.49 1.92382 257.82C1.79382 253.83 1.94376 249.89 2.36376 245.98C3.24376 237.77 5.26378 229.71 8.38378 222.09C19.3838 233.61 34.3237 241.31 50.0637 243.71C49.5237 246.19 49.0438 248.8 48.6438 251.54C48.4638 252.88 48.3037 254.25 48.3037 255.61C48.3037 258.38 48.6237 261.06 49.3137 263.7C51.8537 273.64 58.9638 282.52 67.6238 290.08C73.3238 295.06 79.6638 299.43 85.8638 303.17L85.8738 303.18Z" fill="white"/>
</mask>
<g mask="url(#mask0_390_1687)">
<path d="M87.9405 213.937L-11.9028 211.637L-14.5354 325.886L85.308 328.187L87.9405 213.937Z" fill="#EBD099"/>
<path d="M85.6638 328.729H85.2739L-14.9563 326.409V326.019L-12.2961 211.379H-11.9062L88.3237 213.699V214.089L85.6638 328.729ZM-14.1663 325.659L84.9138 327.949L87.5337 214.469L-11.5461 212.179L-14.1663 325.659Z" fill="#D8BC8B"/>
<path d="M29.3037 280.1C30.1137 282.26 30.8938 284.83 29.6038 286.74C28.2938 288.68 25.5639 288.9 23.2239 288.92C21.6539 288.94 19.9638 288.92 18.6538 288.04C17.5638 287.31 10.4339 284.4 9.96387 283.18C11.6639 281.71 19.8939 281.99 20.4639 279.82C20.7339 278.78 20.7338 277.61 21.3738 276.75" fill="#EBD099"/>
<path d="M22.6638 289.31C21.2938 289.31 19.7238 289.22 18.4438 288.36C18.1238 288.14 17.1537 287.69 16.0337 287.16C12.6037 285.54 9.95376 284.23 9.60376 283.32L9.50391 283.07L9.71387 282.89C10.5339 282.18 12.5138 281.87 14.6238 281.54C16.9438 281.17 19.8337 280.72 20.0938 279.73C20.1737 279.42 20.2337 279.11 20.2837 278.79C20.4237 278.01 20.5637 277.2 21.0637 276.52L21.6838 276.98C21.2938 277.51 21.1737 278.2 21.0437 278.92C20.9837 279.26 20.9237 279.59 20.8438 279.92C20.4537 281.4 17.6839 281.84 14.7439 282.3C13.0639 282.56 11.3439 282.84 10.5139 283.28C11.3439 284.08 14.5638 285.6 16.3738 286.46C17.5638 287.03 18.5138 287.47 18.8838 287.72C20.0438 288.5 21.5339 288.55 23.2339 288.53C25.6939 288.51 28.1337 288.25 29.2937 286.52C30.4437 284.82 29.8139 282.49 28.9539 280.23L29.6738 279.96C30.5938 282.42 31.2738 284.97 29.9238 286.95C28.5638 288.97 25.9039 289.28 23.2339 289.3C23.0539 289.3 22.8538 289.3 22.6638 289.3V289.31Z" fill="#D8BC8B"/>
<path d="M2.59375 233.939C6.55375 234.239 10.0139 236.599 13.2639 238.889C12.8039 240.039 12.3538 241.179 11.8938 242.329C11.6438 242.949 11.3637 243.619 10.8137 243.989C10.0637 244.489 9.08386 244.319 8.20386 244.159C5.50386 243.689 -1.8762 241.669 -4.6062 241.879" fill="#EBD099"/>
<path d="M9.55371 244.709C9.06371 244.709 8.57379 244.619 8.13379 244.549C7.33379 244.409 6.1537 244.139 4.7937 243.829C1.6337 243.109 -2.67617 242.129 -4.57617 242.269L-4.63623 241.499C-2.64623 241.339 1.57387 242.299 4.96387 243.069C6.32387 243.379 7.49392 243.639 8.26392 243.779C9.06392 243.919 9.97376 244.079 10.6038 243.669C11.0438 243.369 11.2937 242.819 11.5437 242.189L12.8037 239.029C9.95371 237.019 6.43373 234.619 2.57373 234.329L2.63379 233.559C6.81379 233.879 10.5239 236.479 13.4939 238.579L13.7439 238.759L12.2639 242.479C12.0339 243.059 11.7137 243.859 11.0337 244.319C10.5837 244.619 10.0737 244.709 9.55371 244.709Z" fill="#D8BC8B"/>
<path d="M-7.80615 252.799C-4.82615 252.969 6.3137 254.459 9.2937 254.629C9.9037 254.659 10.5537 254.709 11.0537 255.059C11.6937 255.499 11.9338 256.309 12.1038 257.059C12.3638 258.239 12.5137 259.439 12.5637 260.639C12.5837 261.179 12.5639 261.769 12.2139 262.179C11.8839 262.559 11.3538 262.669 10.8738 262.789C7.77378 263.529 4.9039 265.209 2.7439 267.559C1.4239 266.149 -0.516299 265.319 -2.4563 265.359" fill="#EBD099"/>
<path d="M2.7439 268.13L2.46387 267.83C1.21387 266.5 -0.636289 265.72 -2.44629 265.75V264.98C-0.546289 264.92 1.35389 265.7 2.73389 267.01C4.90389 264.77 7.74393 263.14 10.7739 262.42C11.2439 262.31 11.6838 262.2 11.9138 261.94C12.1738 261.64 12.1938 261.15 12.1738 260.67C12.1238 259.49 11.9739 258.31 11.7239 257.16C11.5739 256.49 11.3537 255.75 10.8337 255.39C10.4337 255.11 9.91393 255.07 9.27393 255.03C7.77393 254.95 4.17385 254.52 0.693848 254.11C-2.76615 253.7 -6.34617 253.28 -7.82617 253.2L-7.78613 252.43C-6.28613 252.51 -2.69631 252.94 0.783691 253.35C4.25369 253.76 7.83372 254.18 9.31372 254.26C9.91372 254.29 10.6639 254.33 11.2739 254.76C12.0239 255.28 12.3039 256.18 12.4839 257C12.7439 258.19 12.9039 259.42 12.9539 260.65C12.9839 261.29 12.9539 261.96 12.5039 262.46C12.1139 262.91 11.5239 263.05 11.0139 263.17C7.94392 263.9 5.12369 265.56 3.03369 267.84L2.75391 268.15L2.7439 268.13Z" fill="#D8BC8B"/>
<path d="M79.9638 293.707C77.1338 294.647 66.2238 297.347 63.3938 298.297C62.8138 298.487 62.1937 298.687 61.5937 298.547C60.8437 298.367 60.3137 297.707 59.8837 297.067C59.2137 296.067 58.6238 295.007 58.1438 293.907C57.9238 293.417 57.7238 292.857 57.9038 292.347C58.0738 291.877 58.5238 291.577 58.9238 291.287C61.5338 289.457 63.5838 286.837 64.7238 283.857C66.4738 284.687 68.5737 284.737 70.3637 283.997" fill="#EBD099"/>
<path d="M62.0238 298.978C61.8538 298.978 61.6838 298.958 61.5038 298.918C60.6238 298.718 60.0236 297.978 59.5636 297.278C58.8836 296.268 58.2836 295.188 57.7836 294.058C57.5236 293.468 57.3136 292.828 57.5336 292.208C57.7336 291.638 58.2237 291.298 58.6537 290.998C61.2437 289.188 63.2537 286.608 64.3637 283.718L64.5138 283.328L64.8937 283.508C66.5437 284.288 68.5438 284.338 70.2238 283.638L70.5238 284.348C68.7638 285.078 66.7138 285.078 64.9438 284.368C63.7538 287.248 61.7137 289.808 59.1537 291.598C58.7537 291.878 58.3938 292.128 58.2738 292.468C58.1438 292.838 58.3038 293.298 58.5038 293.748C58.9838 294.838 59.5638 295.878 60.2138 296.848C60.6138 297.448 61.0738 298.018 61.6938 298.168C62.1738 298.278 62.6736 298.128 63.2836 297.928C64.7136 297.458 68.2036 296.528 71.5836 295.628C74.9636 294.728 78.4537 293.808 79.8537 293.338L80.0937 294.068C78.6637 294.548 75.1638 295.478 71.7738 296.368C68.4038 297.258 64.9238 298.188 63.5238 298.648C63.0838 298.798 62.5736 298.968 62.0336 298.968L62.0238 298.978Z" fill="#D8BC8B"/>
<path d="M47.9539 258.13C46.0139 258.16 44.0839 257.34 42.7539 255.93C40.9039 257.95 38.5238 259.48 35.9138 260.34C34.6238 260.77 33.1239 260.73 32.9339 262.36C32.8039 263.5 33.0238 264.96 33.3938 266.06C33.9738 267.75 35.2839 268.5 36.9739 268.8C39.6339 269.28 42.4438 269.22 45.1438 269.37C46.2438 269.43 46.8439 269.8 47.4939 270.69C48.1439 271.58 48.4339 272.69 48.4539 273.79C48.4539 274.13 48.3839 274.47 48.2039 274.76" fill="#EBD099"/>
<path d="M48.5438 274.949L47.8939 274.529C48.0239 274.319 48.0939 274.069 48.0839 273.779C48.0739 272.989 47.904 271.849 47.194 270.899C46.574 270.069 46.0739 269.789 45.1339 269.739C44.3739 269.699 43.6139 269.669 42.8439 269.649C40.8839 269.589 38.8639 269.519 36.9239 269.169C34.8739 268.799 33.6038 267.819 33.0438 266.179C32.6238 264.939 32.4338 263.419 32.5638 262.309C32.7438 260.749 33.954 260.449 35.024 260.179C35.284 260.119 35.5538 260.049 35.8038 259.969C38.3638 259.119 40.674 257.639 42.474 255.669L42.754 255.359L43.0338 255.659C44.2838 256.989 46.094 257.729 47.944 257.739V258.509C46.064 258.539 44.144 257.789 42.764 256.479C40.914 258.399 38.5938 259.849 36.0438 260.699C35.7738 260.789 35.484 260.859 35.204 260.929C34.074 261.209 33.4338 261.409 33.3238 262.399C33.2038 263.409 33.384 264.789 33.774 265.929C34.244 267.309 35.2938 268.099 37.0638 268.409C38.9538 268.749 40.9439 268.809 42.8739 268.879C43.6439 268.909 44.424 268.929 45.184 268.969C46.354 269.039 47.0738 269.429 47.8238 270.439C48.6538 271.549 48.8439 272.859 48.8639 273.759C48.8639 274.199 48.7638 274.609 48.5538 274.939L48.5438 274.949Z" fill="#D8BC8B"/>
<path d="M62.6037 297.95C59.5637 304.36 51.5537 303.09 45.7937 302.77C45.1837 302.74 44.5337 302.69 44.0337 302.34C43.3937 301.9 43.1539 301.09 42.9839 300.34C42.7239 299.16 42.5739 297.96 42.5239 296.76C42.5039 296.22 42.5238 295.63 42.8738 295.22C43.2038 294.84 43.7338 294.73 44.2138 294.61C47.3138 293.87 50.1837 292.19 52.3437 289.84C53.6637 291.25 55.6037 292.08 57.5437 292.04C60.0137 292 62.3737 295.49 62.6037 297.95Z" fill="#EBD099"/>
<path d="M52.014 303.479C50.484 303.479 48.964 303.37 47.524 303.28C46.924 303.24 46.344 303.199 45.774 303.169C45.174 303.139 44.4238 303.1 43.8138 302.67C43.0638 302.15 42.7838 301.25 42.6038 300.43C42.3438 299.23 42.1838 298.01 42.1338 296.78C42.1038 296.14 42.1338 295.47 42.5838 294.97C42.9838 294.51 43.5638 294.38 44.0738 294.25C47.1438 293.52 49.9637 291.86 52.0537 289.58L52.3338 289.27L52.6138 289.57C53.8338 290.88 55.6239 291.65 57.4139 291.65C57.4739 291.65 57.5238 291.65 57.5738 291.65C60.3138 291.65 62.7339 295.43 62.9739 297.91V298.02L62.9439 298.12C60.8239 302.6 56.4239 303.479 52.0039 303.479H52.014ZM52.3538 290.4C50.1838 292.64 47.3438 294.27 44.3138 294.99C43.8438 295.1 43.4039 295.21 43.1739 295.48C42.9139 295.78 42.8939 296.27 42.9139 296.75C42.9639 297.93 43.1138 299.11 43.3638 300.26C43.5138 300.93 43.7339 301.67 44.2539 302.03C44.6539 302.31 45.1738 302.35 45.8238 302.39C46.3938 302.42 46.9738 302.46 47.5838 302.5C52.9238 302.87 59.5539 303.33 62.2139 297.88C61.9439 295.67 59.8238 292.43 57.5938 292.43C57.5438 292.43 57.4839 292.43 57.4339 292.43C55.5739 292.43 53.7138 291.68 52.3538 290.4Z" fill="#D8BC8B"/>
<path d="M21.4237 251.239C21.1437 251.899 21.4638 252.649 21.7738 253.289C22.4738 254.749 23.1837 256.209 23.8837 257.669C24.3637 258.659 24.8537 259.669 25.5937 260.489C27.3337 262.409 30.4338 262.929 32.7038 261.669C33.2138 261.389 33.7038 260.999 33.9638 260.479C34.1938 260.029 34.2338 259.499 34.2738 258.999C34.4138 257.219 34.5437 255.429 34.6837 253.649C34.7337 252.989 34.7837 252.319 34.6637 251.669C34.3937 250.259 33.3538 249.119 32.2138 248.239C30.8538 247.179 29.3037 246.369 27.6637 245.859" fill="#EBD099"/>
<path d="M29.984 262.729C28.234 262.729 26.4738 262.029 25.3038 260.739C24.5238 259.879 24.0238 258.839 23.5338 257.829L21.4239 253.449C21.0739 252.729 20.7238 251.879 21.0638 251.079L21.774 251.379C21.554 251.889 21.8339 252.539 22.1139 253.109L24.224 257.489C24.684 258.449 25.1639 259.439 25.8739 260.219C27.4939 261.999 30.404 262.489 32.514 261.319C33.064 261.009 33.4239 260.679 33.6139 260.289C33.8139 259.889 33.8539 259.389 33.8839 258.949L34.2938 253.599C34.3438 252.959 34.394 252.319 34.274 251.719C34.064 250.609 33.314 249.559 31.964 248.519C30.634 247.479 29.1438 246.699 27.5338 246.199L27.764 245.459C29.464 245.989 31.0339 246.809 32.4339 247.899C33.9339 249.059 34.774 250.259 35.024 251.569C35.154 252.259 35.1038 252.959 35.0538 253.629L34.6439 258.989C34.6039 259.479 34.5638 260.079 34.2938 260.619C34.0338 261.149 33.5639 261.589 32.8739 261.979C31.9839 262.469 30.984 262.709 29.964 262.709L29.984 262.729Z" fill="#D8BC8B"/>
<path d="M27.8037 245.96C29.2537 243.56 33.8238 243.92 36.1438 242.34L27.8037 245.96Z" fill="#EBD099"/>
<path d="M28.1338 246.16L27.4739 245.76C28.4039 244.21 30.4338 243.73 32.4038 243.26C33.6938 242.95 35.0238 242.63 35.9238 242.02L36.3538 242.66C35.3338 243.35 33.9337 243.69 32.5737 244.01C30.7637 244.44 28.8938 244.89 28.1338 246.16Z" fill="#D8BC8B"/>
<path d="M24.6738 240.378C26.6338 238.548 25.7238 234.908 27.6938 233.088L24.6738 240.378Z" fill="#EBD099"/>
<path d="M24.9338 240.659L24.4038 240.099C25.2938 239.269 25.5337 238.009 25.7937 236.669C26.0637 235.259 26.3438 233.809 27.4238 232.809L27.9438 233.379C27.0538 234.199 26.8037 235.469 26.5437 236.819C26.2737 238.219 25.9938 239.669 24.9238 240.669L24.9338 240.659Z" fill="#D8BC8B"/>
<path d="M19.2837 236.829C20.0537 234.639 13.5337 224.349 12.0737 222.549L19.2837 236.829Z" fill="#EBD099"/>
<path d="M19.6438 236.959L18.9138 236.699C19.5638 234.849 13.6439 225.099 11.7639 222.789L12.3638 222.299C13.6738 223.909 20.5238 234.439 19.6438 236.949V236.959Z" fill="#D8BC8B"/>
<path d="M11.1938 254.379C11.9138 253.069 12.7938 250.149 14.4238 249.749C15.4838 249.489 17.0238 249.919 18.1038 250.009C19.2838 250.109 20.4638 250.209 21.6538 250.319C22.0438 250.349 22.4337 250.389 22.8137 250.319C23.7937 250.159 24.5639 249.429 25.2639 248.729C25.7739 248.219 26.2837 247.71 26.7937 247.2C27.3137 246.68 27.1539 245.829 26.9539 245.119C26.5939 243.809 26.2238 242.499 25.8638 241.189C25.7238 240.689 25.5337 240.119 25.0637 239.899C23.7237 239.279 22.3837 238.649 21.0437 238.029C20.5137 237.789 19.9938 237.539 19.4338 237.369C17.3038 236.709 14.8539 237.249 13.2039 238.739" fill="#EBD099"/>
<path d="M11.5337 254.57L10.8538 254.2C11.0138 253.9 11.1938 253.52 11.3838 253.1C12.0638 251.6 12.9037 249.73 14.3337 249.38C15.1537 249.18 16.1838 249.34 17.1038 249.49C17.4738 249.55 17.8338 249.61 18.1438 249.63L21.6938 249.94C22.0438 249.97 22.4139 250 22.7639 249.94C23.5939 249.81 24.2739 249.19 25.0039 248.46L26.5337 246.93C26.9037 246.56 26.7638 245.82 26.5938 245.23L25.5039 241.3C25.3839 240.88 25.2338 240.41 24.9138 240.26L20.8938 238.39C20.3938 238.16 19.8737 237.91 19.3337 237.75C17.3237 237.13 15.0339 237.64 13.4739 239.04L12.9539 238.47C14.7139 236.89 17.2937 236.32 19.5537 237.02C20.1337 237.2 20.6839 237.45 21.2139 237.7L25.2339 239.57C25.9039 239.88 26.1239 240.68 26.2439 241.1L27.3337 245.03C27.4737 245.54 27.8137 246.75 27.0737 247.48L25.5437 249.01C24.9037 249.65 24.0238 250.53 22.8738 250.71C22.4438 250.78 22.0038 250.74 21.6138 250.71L18.0737 250.4C17.7437 250.37 17.3639 250.31 16.9739 250.25C16.1339 250.12 15.1839 249.97 14.5139 250.13C13.4539 250.4 12.6637 252.14 12.0837 253.42C11.8837 253.86 11.7037 254.26 11.5337 254.57Z" fill="#D8BC8B"/>
<path d="M10.3337 243.77C11.2437 245.67 12.3538 247.47 13.6438 249.14L10.3337 243.77Z" fill="#EBD099"/>
<path d="M13.3337 249.379C12.0337 247.689 10.9139 245.859 9.98389 243.939L10.6738 243.609C11.5738 245.479 12.6738 247.269 13.9438 248.909L13.3337 249.379Z" fill="#D8BC8B"/>
<path d="M13.3538 261.148C16.4638 261.998 19.7539 262.208 22.9539 261.768C23.9939 261.618 25.3137 261.538 25.8137 262.458C25.8937 262.608 25.9439 262.768 25.9939 262.928C26.6839 265.208 27.3837 267.498 28.0737 269.778C28.1337 269.988 28.1937 270.228 28.0837 270.408C28.0437 270.468 27.9938 270.518 27.9438 270.568C25.9438 272.488 23.9338 274.408 21.9338 276.328C21.8338 276.418 21.7238 276.518 21.5938 276.508C21.4537 276.498 21.3539 276.368 21.2739 276.258C19.7839 274.318 16.8539 274.418 14.7139 273.238C14.4539 273.098 14.1937 272.928 14.0437 272.678C13.7337 272.178 13.9139 271.548 14.0039 270.968C14.1839 269.738 13.8939 268.508 13.7039 267.278C13.4439 265.628 13.3638 263.948 13.3538 261.158V261.148Z" fill="#EBD099"/>
<path d="M21.6138 276.899C21.6138 276.899 21.5837 276.899 21.5637 276.899C21.2537 276.869 21.0739 276.639 20.9639 276.499C20.1239 275.399 18.7339 275.009 17.2639 274.589C16.3339 274.329 15.3739 274.049 14.5239 273.579C14.2339 273.419 13.9139 273.209 13.7139 272.879C13.3739 272.339 13.4837 271.719 13.5737 271.169L13.6138 270.909C13.7538 269.949 13.5938 268.989 13.4138 267.959L13.3137 267.329C13.0637 265.729 12.9739 264.109 12.9639 261.149V260.639L13.4539 260.769C16.5039 261.609 19.7638 261.809 22.8938 261.379C23.6638 261.269 25.4638 261.019 26.1438 262.269C26.2438 262.449 26.3038 262.639 26.3538 262.809L28.4338 269.669C28.4938 269.879 28.6138 270.269 28.4138 270.609C28.3438 270.719 28.2739 270.799 28.2139 270.849L22.2039 276.609C22.1039 276.709 21.9038 276.899 21.6138 276.899ZM13.7439 261.649C13.7639 264.249 13.8537 265.749 14.0837 267.209L14.1838 267.829C14.3638 268.869 14.5338 269.939 14.3838 271.019L14.3438 271.299C14.2637 271.749 14.1938 272.179 14.3838 272.479C14.4938 272.659 14.7138 272.799 14.9138 272.909C15.6838 273.339 16.6039 273.599 17.4939 273.849C19.0139 274.279 20.5938 274.729 21.5938 276.039C21.6038 276.059 21.6238 276.079 21.6438 276.099C21.6538 276.089 21.6638 276.079 21.6838 276.059L27.6938 270.299C27.6938 270.299 27.7539 270.239 27.7639 270.219C27.7739 270.199 27.7839 270.119 27.7139 269.899L25.6338 263.049C25.5838 262.899 25.5439 262.759 25.4839 262.649C25.1039 261.959 23.9639 262.029 23.0139 262.159C19.9539 262.589 16.7639 262.419 13.7539 261.659L13.7439 261.649Z" fill="#D8BC8B"/>
<path d="M28.4139 271.108C29.0739 271.998 28.9939 273.238 28.7039 274.298C28.4139 275.368 27.9238 276.398 27.8538 277.498C27.7838 278.598 28.2638 279.858 29.3138 280.218C30.1738 280.518 31.104 280.128 32.014 280.038C32.624 279.978 33.2438 280.058 33.8138 280.258C35.1638 280.748 37.2838 280.898 38.5838 280.148C39.6738 279.518 39.8339 277.818 39.6439 276.658C39.4739 275.608 39.0138 274.218 38.3438 273.368C37.7038 272.558 36.5838 272.018 35.8238 271.278C35.3238 270.788 34.8439 270.258 34.1939 269.998C33.5139 269.728 32.744 269.818 32.014 269.908C30.824 270.058 29.6339 270.208 28.4139 271.088V271.108Z" fill="#EBD099"/>
<path d="M36.2439 281.068C35.3339 281.068 34.4139 280.908 33.6739 280.638C33.1539 280.448 32.5937 280.388 32.0337 280.438C31.7737 280.468 31.5039 280.518 31.2339 280.568C30.5639 280.698 29.8639 280.838 29.1639 280.598C27.8739 280.158 27.3739 278.668 27.4439 277.488C27.4939 276.688 27.7539 275.928 27.9939 275.198C28.1039 274.868 28.2138 274.538 28.3038 274.208C28.5338 273.358 28.6938 272.178 28.0838 271.348L27.8538 271.038L28.1639 270.808C29.4639 269.868 30.7239 269.708 31.9439 269.548C32.6439 269.458 33.5138 269.348 34.3138 269.658C34.9538 269.908 35.4238 270.378 35.8838 270.838L36.0638 271.018C36.3738 271.318 36.7338 271.578 37.1238 271.858C37.6538 272.238 38.2138 272.638 38.6138 273.148C39.3738 274.108 39.8339 275.608 39.9939 276.608C40.2339 278.048 39.9339 279.808 38.7339 280.488C38.0339 280.888 37.1339 281.058 36.2139 281.058L36.2439 281.068ZM32.4039 279.638C32.9239 279.638 33.4439 279.728 33.9339 279.908C35.2139 280.368 37.2038 280.498 38.3738 279.828C39.2438 279.328 39.444 277.878 39.254 276.738C39.094 275.758 38.6537 274.418 38.0337 273.628C37.7037 273.208 37.2139 272.858 36.7039 272.488C36.3139 272.198 35.8938 271.908 35.5538 271.568L35.3638 271.378C34.9438 270.958 34.5438 270.568 34.0538 270.368C33.4438 270.128 32.7138 270.218 32.0638 270.298C30.9938 270.438 29.9739 270.558 28.9339 271.208C29.4739 272.238 29.3238 273.488 29.0738 274.388C28.9738 274.738 28.8639 275.078 28.7439 275.418C28.5039 276.128 28.2739 276.808 28.2239 277.508C28.1639 278.438 28.5539 279.538 29.4239 279.838C29.9239 280.008 30.4938 279.898 31.0938 279.778C31.3838 279.718 31.6739 279.658 31.9639 279.638C32.1139 279.618 32.2539 279.618 32.4039 279.618V279.638Z" fill="#D8BC8B"/>
<path d="M55.8538 288.64C57.4038 288.07 58.1939 286.46 57.9539 284.83C57.9039 284.46 57.8838 284.08 57.9038 283.71C57.9538 282.6 58.1939 281.49 58.0239 280.4C57.8539 279.31 57.0939 278.19 55.9939 278.07C55.0839 277.97 54.2638 278.56 53.4038 278.85C52.8238 279.05 52.2037 279.11 51.5938 279.03C47.7638 278.56 43.8939 281.82 43.7139 285.68C43.7139 285.75 43.7139 285.82 43.7339 285.89C43.8139 286.12 44.1138 286.16 44.3638 286.16C46.9138 286.18 49.4638 286.91 51.6438 288.24C52.2338 288.6 52.8239 289.02 53.5139 289.12C54.2439 289.23 54.9638 288.97 55.6538 288.72C55.7238 288.7 55.7838 288.67 55.8538 288.65V288.64Z" fill="#EBD099"/>
<path d="M53.8638 289.52C53.7238 289.52 53.5939 289.52 53.4539 289.49C52.7739 289.39 52.2038 289.03 51.6538 288.69L51.4338 288.55C49.3038 287.25 46.8538 286.55 44.3538 286.53C43.8138 286.53 43.4838 286.35 43.3638 286C43.3238 285.87 43.3237 285.76 43.3237 285.67C43.4137 283.71 44.4037 281.8 46.0337 280.43C47.6637 279.06 49.7038 278.4 51.6338 278.64C52.1838 278.71 52.7539 278.64 53.2739 278.47C53.5239 278.39 53.7739 278.27 54.0239 278.16C54.6539 277.88 55.2937 277.59 56.0337 277.67C57.3937 277.82 58.2138 279.15 58.4038 280.32C58.5338 281.11 58.4538 281.9 58.3738 282.67C58.3438 283.02 58.3037 283.36 58.2937 283.71C58.2737 284.08 58.2937 284.43 58.3438 284.76C58.6138 286.64 57.6539 288.38 55.9939 288.99L55.8638 288.63L55.9138 289.02L55.7937 289.06C55.2337 289.26 54.5638 289.51 53.8638 289.51V289.52ZM50.8538 279.37C49.3438 279.37 47.8037 279.95 46.5337 281.03C45.0637 282.27 44.1737 283.97 44.0938 285.7C44.0738 285.74 44.1338 285.77 44.3538 285.77C46.9938 285.79 49.5737 286.53 51.8337 287.9L52.0537 288.04C52.5537 288.35 53.0337 288.65 53.5537 288.73C54.1937 288.82 54.8939 288.57 55.5039 288.35L55.7039 288.28C57.0139 287.8 57.7837 286.4 57.5537 284.88C57.5037 284.5 57.4839 284.1 57.5039 283.69C57.5139 283.33 57.5538 282.97 57.5938 282.61C57.6637 281.86 57.7338 281.15 57.6238 280.46C57.4738 279.54 56.8538 278.55 55.9338 278.45C55.4138 278.4 54.8837 278.63 54.3237 278.88C54.0537 279 53.7839 279.12 53.5039 279.21C52.8739 279.42 52.1939 279.49 51.5239 279.41C51.2939 279.38 51.0637 279.37 50.8337 279.37H50.8538Z" fill="#D8BC8B"/>
<path d="M13.6638 272.189C12.5738 273.429 11.0739 274.289 9.45386 274.599L13.6638 272.189Z" fill="#EBD099"/>
<path d="M9.52393 274.98L9.37378 274.22C10.9138 273.92 12.3338 273.11 13.3638 271.93L13.9438 272.44C12.7938 273.75 11.2239 274.65 9.51392 274.97L9.52393 274.98Z" fill="#D8BC8B"/>
<path d="M34.7539 250.858C35.9039 250.638 36.9038 249.948 37.8638 249.278C38.5538 248.798 39.2538 248.308 39.9438 247.828C40.5238 247.428 41.1037 247.018 41.5737 246.498C42.6737 245.288 43.1838 243.498 44.6238 242.738" fill="#EBD099"/>
<path d="M34.8237 251.229L34.6738 250.469C35.7638 250.259 36.7538 249.569 37.6338 248.949L39.7139 247.499C40.2639 247.109 40.8337 246.709 41.2837 246.229C41.6737 245.799 41.9937 245.269 42.3137 244.759C42.8737 243.849 43.4438 242.909 44.4438 242.389L44.8037 243.069C43.9937 243.489 43.5039 244.309 42.9739 245.159C42.6439 245.699 42.2938 246.259 41.8538 246.749C41.3538 247.299 40.7438 247.729 40.1638 248.139L38.0837 249.599C37.1437 250.259 36.0737 250.999 34.8237 251.239V251.229Z" fill="#D8BC8B"/>
<path d="M42.6338 256.278L41.8838 256.098C42.3038 254.308 41.9839 252.388 41.0039 250.828C40.8639 250.598 40.7037 250.378 40.5437 250.148C40.0237 249.418 39.4938 248.668 39.3938 247.728L40.1638 247.648C40.2438 248.388 40.6938 249.028 41.1738 249.708C41.3438 249.948 41.5038 250.178 41.6638 250.418C42.7538 252.148 43.1038 254.278 42.6438 256.268L42.6338 256.278Z" fill="#D8BC8B"/>
<path d="M40.7539 277.299C40.5139 277.299 40.2837 277.299 40.0437 277.279L40.0938 276.509C42.1137 276.639 44.2937 276.149 46.5637 275.019C48.6137 274.009 50.4937 272.629 52.3137 271.289L52.7739 271.909C50.9339 273.259 49.0238 274.669 46.9138 275.709C44.7738 276.769 42.7039 277.299 40.7539 277.299Z" fill="#D8BC8B"/>
<path d="M30.1639 284.289C29.7639 285.379 30.0138 286.619 30.5838 287.629C31.1538 288.639 32.0138 289.449 32.8938 290.209C35.5138 292.469 39.644 294.849 42.524 296.759" fill="#EBD099"/>
<path d="M42.3138 297.078C41.5138 296.548 40.6139 295.978 39.6739 295.388C37.2739 293.868 34.5538 292.148 32.6438 290.508C31.7538 289.738 30.8539 288.888 30.2539 287.828C29.5639 286.608 29.4037 285.268 29.8037 284.158L30.5337 284.418C30.2037 285.318 30.3539 286.418 30.9339 287.438C31.4439 288.348 32.1938 289.088 33.1538 289.918C35.0138 291.528 37.7138 293.228 40.0938 294.738C41.0338 295.328 41.9439 295.908 42.7439 296.438L42.3138 297.078Z" fill="#D8BC8B"/>
<path d="M38.1838 280.299C39.7438 281.989 41.3138 283.669 42.8738 285.359C43.1138 285.619 43.3639 285.889 43.4539 286.229C43.5439 286.539 43.4838 286.879 43.4138 287.189C42.8238 290.049 41.4539 292.739 39.5039 294.909" fill="#EBD099"/>
<path d="M39.8037 295.169L39.2339 294.649C41.1439 292.519 42.4637 289.909 43.0437 287.109C43.1037 286.829 43.1537 286.559 43.0837 286.329C43.0137 286.069 42.8038 285.839 42.5938 285.619L37.9038 280.559L38.4739 280.039L43.1638 285.099C43.4038 285.359 43.7137 285.689 43.8337 286.129C43.9437 286.519 43.8737 286.909 43.8037 287.269C43.1937 290.209 41.8137 292.939 39.8037 295.169Z" fill="#D8BC8B"/>
<path d="M32.2739 289.7C31.5539 290.56 31.5938 291.79 31.5938 292.92C31.5938 294.04 31.4437 295.32 30.5337 295.97C30.0737 296.3 29.4838 296.4 28.9238 296.49C27.9738 296.64 27.0237 296.79 26.0737 296.94C25.2937 297.06 24.4939 297.18 23.7239 296.99C21.9039 296.56 15.0937 291.11 14.2937 289.42" fill="#EBD099"/>
<path d="M24.5938 297.47C24.2738 297.47 23.9538 297.44 23.6338 297.37C21.6738 296.91 14.7938 291.39 13.9438 289.59L14.6438 289.26C15.3938 290.85 22.0737 296.21 23.8037 296.62C24.5137 296.79 25.3039 296.66 26.0139 296.56C26.9639 296.41 27.9138 296.27 28.8538 296.11C29.3438 296.03 29.8937 295.94 30.3037 295.66C31.1137 295.09 31.2039 293.83 31.2039 292.93V292.79C31.2039 291.67 31.1939 290.4 31.9739 289.47L32.5637 289.97C31.9637 290.68 31.9639 291.75 31.9739 292.79V292.94C31.9739 294.01 31.8539 295.52 30.7539 296.3C30.2039 296.69 29.5339 296.8 28.9839 296.88C28.0339 297.03 27.0838 297.18 26.1338 297.33C25.6538 297.4 25.1337 297.48 24.5938 297.48V297.47Z" fill="#D8BC8B"/>
<path d="M28.9239 296.479C28.6039 298.139 29.804 300.939 30.774 302.319C31.744 303.699 33.2239 304.619 34.6539 305.499C35.6439 306.109 36.6338 306.719 37.6238 307.339C38.0338 307.589 38.5739 307.849 38.9739 307.579C40.1639 307.549 40.8839 306.569 41.6939 305.699C42.5039 304.839 43.0838 303.779 43.6438 302.729" fill="#EBD099"/>
<path d="M38.5838 308.078C38.0938 308.078 37.6339 307.798 37.4239 307.668L34.4539 305.828C33.0639 304.968 31.4939 303.998 30.4639 302.538C29.4839 301.148 28.1938 298.238 28.5438 296.398L29.3038 296.548C29.0138 298.078 30.1738 300.798 31.0938 302.088C32.0338 303.418 33.5338 304.348 34.8638 305.158L37.8338 306.998C38.2838 307.278 38.594 307.358 38.774 307.248L38.8638 307.188H38.9739C39.8439 307.168 40.4238 306.518 41.1038 305.778L41.4239 305.428C42.2039 304.598 42.7638 303.548 43.3138 302.538L43.9939 302.908C43.4239 303.968 42.8439 305.058 41.9939 305.958L41.6839 306.298C40.9739 307.078 40.2438 307.878 39.1038 307.948C38.9338 308.038 38.7638 308.068 38.5938 308.068L38.5838 308.078Z" fill="#D8BC8B"/>
<path d="M30.4539 302.908L25.7937 307.228C25.5437 307.458 25.2939 307.688 24.9839 307.818C24.5739 307.988 24.1038 307.968 23.6538 307.918C21.1338 307.668 18.6638 306.918 16.4238 305.718C14.7238 304.808 13.0539 303.498 12.5239 301.648" fill="#EBD099"/>
<path d="M24.1938 308.349C23.9938 308.349 23.7938 308.329 23.6138 308.309C21.0538 308.059 18.5139 307.279 16.2439 306.069C14.0139 304.869 12.6338 303.419 12.1538 301.759L12.8938 301.549C13.3138 302.999 14.5638 304.289 16.6038 305.389C18.7838 306.559 21.2338 307.299 23.6838 307.549C24.0738 307.589 24.4937 307.609 24.8237 307.469C25.0837 307.359 25.3139 307.139 25.5239 306.949L30.1838 302.629L30.7139 303.199L26.0537 307.519C25.8137 307.739 25.5138 308.029 25.1238 308.189C24.8238 308.319 24.5038 308.359 24.1838 308.359L24.1938 308.349Z" fill="#D8BC8B"/>
<path d="M26.6739 306.139C26.6039 309.239 28.0038 312.249 30.0338 314.599C32.0638 316.949 34.6838 318.709 37.3738 320.259" fill="#EBD099"/>
<path d="M37.1837 320.589C34.8937 319.269 31.9738 317.429 29.7438 314.849C27.4538 312.189 26.2236 309.099 26.2836 306.129L27.0536 306.149C26.9936 308.929 28.1536 311.839 30.3236 314.349C32.4736 316.839 35.3236 318.639 37.5636 319.919L37.1837 320.589Z" fill="#D8BC8B"/>
<path d="M37.8438 307.049C37.9637 308.979 38.7638 310.789 39.1438 312.679C39.5138 314.569 39.3338 316.789 37.8738 318.049" fill="#EBD099"/>
<path d="M38.1238 318.34L37.6238 317.76C38.7638 316.78 39.1839 314.91 38.7639 312.75C38.6239 312.03 38.4139 311.299 38.2039 310.599C37.8739 309.459 37.5339 308.29 37.4539 307.07L38.2239 307.02C38.2939 308.15 38.6038 309.24 38.9438 310.38C39.1538 311.1 39.3739 311.839 39.5139 312.599C39.7439 313.769 40.0638 316.66 38.1238 318.34Z" fill="#D8BC8B"/>
<path d="M43.8638 302.67C45.8438 305.18 49.3937 305.97 51.5337 308.34C52.9537 309.92 53.6237 312.14 53.3037 314.24" fill="#EBD099"/>
<path d="M53.6838 314.3L52.9238 314.18C53.2238 312.18 52.5939 310.1 51.2439 308.6C50.2639 307.51 48.9338 306.74 47.6338 306C46.1638 305.15 44.6437 304.28 43.5637 302.91L44.1738 302.43C45.1638 303.68 46.5539 304.48 48.0239 305.33C49.3639 306.1 50.7537 306.9 51.8237 308.08C53.3337 309.75 54.0238 312.07 53.6938 314.3H53.6838Z" fill="#D8BC8B"/>
<path d="M55.7039 302.9C58.0039 303.34 59.7738 305.3 60.6138 307.48C61.4538 309.66 61.5337 312.05 61.5737 314.39C61.5737 314.55 61.4237 314.76 61.3337 314.64" fill="#EBD099"/>
<path d="M61.2837 315.13L61.0239 314.88L61.3337 314.64L61.3738 314.289C61.2538 314.289 61.1938 314.36 61.1838 314.38C61.1438 311.9 61.0439 309.67 60.2439 307.62C59.5439 305.81 57.9638 303.72 55.6238 303.28L55.7739 302.52C57.9939 302.94 59.9839 304.79 60.9739 307.34C61.8139 309.51 61.9239 311.81 61.9639 314.38C61.9639 314.63 61.8137 314.939 61.5537 315.039L61.2937 315.13H61.2837Z" fill="#D8BC8B"/>
<path d="M60.4038 306.848C62.0738 307.018 63.7738 307.158 65.4038 306.788C67.0338 306.418 68.6137 305.448 69.3237 303.928C70.3337 301.778 69.3939 299.268 68.4539 297.088" fill="#EBD099"/>
<path d="M63.0938 307.408C62.1938 307.408 61.2838 307.328 60.3638 307.228L60.4438 306.458C62.1238 306.628 63.7537 306.758 65.3237 306.408C67.0237 306.018 68.3939 305.028 68.9839 303.758C69.9139 301.778 69.0138 299.348 68.1038 297.228L68.8137 296.918C69.7937 299.188 70.7538 301.798 69.6838 304.078C68.9838 305.558 67.4239 306.708 65.4939 307.148C64.7039 307.328 63.9037 307.398 63.0938 307.398V307.408Z" fill="#D8BC8B"/>
<path d="M69.5039 303.498C72.0239 304.688 73.8837 307.168 74.3037 309.918L69.5039 303.498Z" fill="#EBD099"/>
<path d="M73.9238 309.978C73.5138 307.338 71.7537 304.988 69.3337 303.848L69.6638 303.148C72.3138 304.398 74.2338 306.968 74.6838 309.858L73.9238 309.978Z" fill="#D8BC8B"/>
<path d="M69.6438 303.359C71.7538 304.019 74.1439 303.659 75.9739 302.429C76.7539 301.899 77.4437 301.219 78.2937 300.789C78.9137 300.479 79.6238 300.299 80.1138 299.809" fill="#EBD099"/>
<path d="M71.8137 304.079C71.0437 304.079 70.2639 303.969 69.5239 303.729L69.7539 302.989C71.7339 303.609 74.0339 303.269 75.7539 302.109C76.0339 301.919 76.3137 301.699 76.5837 301.489C77.0637 301.119 77.5538 300.729 78.1138 300.439C78.3038 300.339 78.5039 300.259 78.7039 300.179C79.1339 299.999 79.5437 299.829 79.8337 299.529L80.3838 300.069C79.9838 300.469 79.4839 300.679 79.0039 300.889C78.8239 300.969 78.6339 301.039 78.4639 301.129C77.9639 301.379 77.5237 301.729 77.0637 302.089C76.7737 302.309 76.4938 302.539 76.1938 302.739C74.9038 303.609 73.3637 304.069 71.8237 304.069L71.8137 304.079Z" fill="#D8BC8B"/>
</g>
<path d="M516.754 184.6C516.754 184.6 516.734 184.62 516.714 184.62C514.304 185.88 511.884 187.01 509.474 188.04C467.184 206.22 425.894 192.61 410.044 185.89C418.064 171.31 422.494 154.89 423.024 138.07C423.024 137.26 423.054 136.46 423.054 135.65C423.064 135.07 423.074 134.49 423.054 133.89C423.054 132.65 423.014 131.41 422.964 130.19C422.914 129.04 422.864 127.9 422.774 126.77V126.75C422.674 125.49 422.574 124.23 422.434 122.98C422.404 122.75 422.384 122.53 422.354 122.28C421.784 117.12 420.834 112.01 419.524 107.03C419.024 105.17 418.484 103.32 417.884 101.49C417.674 100.84 417.464 100.19 417.234 99.5299C416.954 98.7099 416.664 97.8899 416.354 97.0899C416.304 96.9399 416.234 96.7799 416.194 96.6499C415.854 95.7299 415.484 94.8099 415.104 93.9099C415.054 93.7799 415.004 93.6399 414.934 93.5099C414.534 92.5099 414.104 91.5399 413.664 90.5599C413.614 90.4399 413.564 90.3499 413.534 90.2499C413.014 89.1399 412.494 88.0199 411.924 86.9399C411.414 85.8799 410.874 84.8599 410.324 83.8399C410.294 83.7799 410.254 83.7199 410.224 83.6699C409.624 82.5899 409.024 81.5099 408.394 80.4599C407.794 79.4399 407.154 78.4099 406.514 77.3999C406.494 77.3599 406.464 77.3399 406.444 77.2999C405.904 76.4499 405.334 75.6099 404.764 74.7799C404.504 74.3899 404.224 73.9999 403.964 73.6299C403.384 72.8099 402.814 72.0099 402.214 71.2299C407.534 70.8699 412.604 70.7099 417.434 70.7399C422.734 70.7399 427.744 70.9899 432.484 71.3899C434.514 71.5699 436.544 71.8099 438.554 72.1199C445.094 73.0699 451.444 74.6799 457.544 76.8699C466.664 80.1299 475.214 84.6599 482.984 90.3199C483.794 90.9199 484.584 91.5099 485.364 92.1099C485.414 92.1499 485.454 92.1899 485.504 92.2299C486.174 92.7299 486.814 93.2599 487.464 93.7799C487.734 93.9999 488.004 94.2199 488.254 94.4399C488.814 94.8999 489.344 95.3599 489.884 95.8199C490.204 96.0999 490.514 96.3799 490.814 96.6599C491.384 97.1599 491.944 97.6599 492.494 98.1899C492.714 98.3699 492.924 98.5699 493.124 98.7499C493.854 99.4599 494.584 100.16 495.294 100.89C495.974 101.54 496.624 102.23 497.264 102.91C498.254 103.97 499.234 105.04 500.164 106.14C500.784 106.83 501.384 107.53 501.964 108.26C502.614 109.03 503.244 109.83 503.864 110.63C504.034 110.86 504.214 111.1 504.394 111.31C504.854 111.9 505.304 112.5 505.724 113.1C506.634 114.35 507.504 115.59 508.334 116.85C508.804 117.55 509.274 118.27 509.724 118.98C510.314 119.93 510.884 120.86 511.444 121.83C511.974 122.76 512.504 123.68 513.034 124.63C513.064 124.71 513.114 124.8 513.154 124.88C514.164 126.69 515.094 128.56 515.974 130.44C516.484 131.5 516.944 132.57 517.414 133.66C517.844 134.68 518.294 135.71 518.784 136.79C520.994 141.85 523.614 147.46 526.644 153.34C532.474 164.66 528.034 178.71 516.744 184.59L516.754 184.6Z" fill="#5B3C27"/>
<path d="M457.374 76.2197C451.124 73.8797 444.724 72.3697 438.574 72.1297C436.564 71.8197 434.534 71.5797 432.504 71.3997C427.764 70.9997 422.754 70.7497 417.454 70.7497C415.554 68.0097 399.994 45.2297 407.324 42.0197C443.054 38.7397 454.454 66.2697 457.374 76.2197Z" fill="#331D0D"/>
<path d="M460.224 79.2895L456.724 77.9795C450.244 75.5595 444.114 74.2195 438.504 74.0095L438.284 73.9895C436.434 73.6995 434.424 73.4595 432.334 73.2695C427.254 72.8395 422.394 72.6295 417.484 72.6295H416.474L415.914 71.8195C411.614 65.6095 401.834 50.4095 403.764 43.5795C404.194 42.0495 405.164 40.9195 406.564 40.3095L406.844 40.1895L407.144 40.1595C444.714 36.7095 456.454 66.4895 459.164 75.6895L460.214 79.2795L460.224 79.2895ZM438.754 70.2695C443.664 70.4695 448.914 71.4495 454.414 73.2095C450.034 61.2895 438.104 41.2495 407.864 43.8495C407.674 43.9795 407.494 44.1895 407.374 44.5995C406.264 48.5195 412.244 59.7595 418.444 68.8795C423.134 68.9095 427.794 69.1195 432.664 69.5295C434.804 69.7195 436.854 69.9695 438.754 70.2595V70.2695Z" fill="#5B3C27"/>
<path d="M84.5938 195.11C84.5938 195.11 58.6337 204.53 50.0637 243.72C34.3237 241.33 19.3838 233.63 8.37378 222.1C12.0638 212.93 17.2737 204.32 23.8037 196.71C32.2937 186.82 42.5439 170.4 46.2339 146.3C50.9539 95.2905 83.6838 64.8105 84.4438 64.2305C66.0338 102.46 59.1637 160.86 84.5938 195.11Z" fill="#5B3C27"/>
<path d="M51.5139 245.831L49.7837 245.571C33.5137 243.101 18.3239 235.231 7.02393 223.401L6.19385 222.531L6.6438 221.411C10.4338 211.981 15.7338 203.261 22.3938 195.501C30.4038 186.161 40.7238 169.991 44.3938 146.021C49.2538 93.4808 82.9837 63.0008 83.3137 62.7508L89.5039 58.0508L86.1338 65.0608C61.3938 116.431 67.3838 168.811 86.0938 194.011L87.5938 196.031L85.2339 196.891C84.8939 197.021 60.1038 206.601 51.8838 244.141L51.5139 245.851V245.831ZM10.5737 221.671C20.8037 232.011 34.2238 239.031 48.6338 241.581C56.2338 209.441 75.2039 197.551 81.7439 194.321C70.6839 178.331 65.3139 156.541 66.2239 131.091C66.9039 112.011 71.2139 91.6708 78.2739 73.7508C68.3139 85.8908 51.3838 111.291 48.1238 146.471C44.3038 171.421 33.5739 188.211 25.2439 197.931C19.1139 205.081 14.1937 213.061 10.5837 221.681L10.5737 221.671Z" fill="#5B3C27"/>
<path d="M111.144 327.15C104.414 329.98 89.5438 330.65 57.3838 323.31C47.6438 320.86 39.5039 317.49 32.7439 313.46C50.9339 314.52 69.3938 311 85.8638 303.17C95.9538 309.27 105.584 313.66 111.084 315.97C116.034 318.05 116.094 325.08 111.144 327.14V327.15Z" fill="#5B3C27"/>
<path d="M97.744 331.011C87.734 331.011 74.104 329.051 56.974 325.141C47.444 322.751 38.9838 319.371 31.7938 315.081C31.0538 314.641 30.7139 313.751 30.9639 312.921C31.2139 312.101 31.9638 311.571 32.8638 311.601C50.9038 312.651 68.9438 309.151 85.0738 301.491C85.6438 301.221 86.3038 301.251 86.8438 301.581C97.1238 307.791 106.904 312.191 111.814 314.261C114.834 315.531 116.704 318.351 116.704 321.631C116.704 324.861 114.854 327.641 111.884 328.881C108.504 330.301 103.784 331.011 97.764 331.011H97.744ZM40.6439 315.511C45.8539 317.931 51.6138 319.931 57.8438 321.501C91.0038 329.071 104.744 327.821 110.414 325.431C111.994 324.771 112.944 323.351 112.944 321.631C112.944 320.271 112.264 318.521 110.344 317.711C105.474 315.661 95.914 311.361 85.744 305.301C71.684 311.821 56.2439 315.301 40.6339 315.511H40.6439Z" fill="#5B3C27"/>
<path d="M323.014 258.95C279.674 259.6 271.914 229.5 271.914 229.5C281.924 230.5 292.834 231.34 303.724 231.74C303.724 231.74 334.234 250.65 326.564 257.67C325.614 258.54 324.304 258.92 323.024 258.94L323.014 258.95Z" fill="#5B3C27"/>
<path d="M321.664 260.829C299.474 260.829 286.714 252.689 279.884 245.779C272.264 238.069 270.194 230.289 270.104 229.959L269.434 227.369L272.104 227.639C283.314 228.759 293.974 229.509 303.794 229.879L304.294 229.899L304.714 230.159C307.174 231.689 328.804 245.339 329.644 254.339C329.814 256.189 329.184 257.819 327.824 259.069C326.614 260.179 324.914 260.799 323.044 260.829C322.584 260.829 322.124 260.839 321.664 260.839V260.829ZM274.654 231.649C277.584 238.649 288.464 257.089 321.624 257.089C322.074 257.089 322.524 257.089 322.984 257.079C323.924 257.069 324.764 256.779 325.294 256.299C325.794 255.849 325.974 255.359 325.914 254.679C325.414 249.379 311.874 239.059 303.154 233.599C294.254 233.259 284.684 232.599 274.654 231.649Z" fill="#5B3C27"/>
<path d="M174.354 256.8C173.544 257.81 172.254 258.37 170.954 258.53C126.404 263.66 115.634 231.9 113.614 223.18C124.094 226.97 136.724 233.44 150.034 232.63C159.144 237.78 179.554 250.34 174.354 256.81V256.8Z" fill="#5B3C27"/>
<path d="M161.524 260.96C146.434 260.96 134.194 256.41 125.024 247.38C115.994 238.48 112.764 227.78 111.794 223.6L111.014 220.25L114.254 221.42C116.304 222.16 118.444 223.01 120.644 223.88C129.534 227.4 139.634 231.39 149.914 230.76L150.464 230.73L150.944 231C162.054 237.29 175.594 246.25 176.934 253.25C177.274 255 176.884 256.64 175.804 257.97C174.734 259.3 173.084 260.16 171.164 260.38C167.824 260.76 164.614 260.96 161.514 260.96H161.524ZM116.394 226.22C120.064 237.75 132.314 261.1 170.744 256.66C171.664 256.55 172.454 256.17 172.894 255.62C173.284 255.14 173.394 254.62 173.264 253.95C172.454 249.76 163.614 242.51 149.584 234.52C138.634 235.04 128.364 230.96 119.264 227.35C118.294 226.97 117.334 226.59 116.394 226.22Z" fill="#5B3C27"/>
<path d="M231.504 255.281C230.784 256.671 229.274 257.491 227.714 257.661C191.654 261.301 176.194 241.551 172.144 235.071C184.054 233.681 193.444 232.211 200.824 230.771C211.744 235.691 235.574 247.491 231.504 255.291V255.281Z" fill="#5B3C27"/>
<path d="M219.154 259.971C188.074 259.971 174.254 241.981 170.554 236.051L168.994 233.541L171.924 233.201C182.824 231.931 192.424 230.491 200.464 228.921L201.044 228.811L201.584 229.051C214.664 234.941 230.804 243.551 233.434 251.131C234.044 252.891 233.954 254.621 233.164 256.131C232.194 258.001 230.234 259.261 227.914 259.511C224.854 259.821 221.934 259.961 219.164 259.961L219.154 259.971ZM175.434 236.551C181.094 244.121 196.354 258.941 227.524 255.791C228.574 255.681 229.464 255.151 229.844 254.411C230.044 254.031 230.264 253.401 229.904 252.361C228.264 247.621 217.324 240.291 200.594 232.711C193.364 234.101 184.914 235.391 175.434 236.551Z" fill="#5B3C27"/>
<path d="M385.714 250.931C358.754 251.371 347.554 241.161 340.464 232.401C348.844 231.611 356.464 230.271 362.774 228.201C364.624 227.601 366.424 226.911 368.164 226.141C374.924 230.121 395.904 243.701 389.394 249.611C388.404 250.511 387.044 250.901 385.714 250.921V250.931Z" fill="#5B3C27"/>
<path d="M384.014 252.811C358.124 252.811 346.734 243.121 339.004 233.581L336.814 230.871L340.284 230.541C349.004 229.711 356.374 228.331 362.194 226.431C363.924 225.871 365.674 225.201 367.414 224.441L368.294 224.051L369.124 224.541C374.394 227.651 391.664 238.391 392.474 246.311C392.664 248.131 392.034 249.761 390.654 251.011C389.414 252.141 387.664 252.781 385.744 252.811C385.164 252.811 384.584 252.821 384.014 252.821V252.811ZM344.194 233.891C351.534 241.991 362.634 249.461 385.684 249.061C386.694 249.041 387.564 248.751 388.134 248.231C388.624 247.781 388.814 247.321 388.744 246.691C388.304 242.441 378.124 234.311 368.024 228.251C366.464 228.911 364.884 229.491 363.344 229.991C358.084 231.711 351.654 233.021 344.194 233.891Z" fill="#5B3C27"/>
<path d="M185.444 132.812C197.624 154.332 201.014 200.352 197.144 232.132C190.444 232.732 182.364 233.202 172.624 233.472C170.144 233.542 167.554 233.602 164.854 233.642C160.174 233.862 155.704 233.772 151.414 233.432C138.134 232.372 126.684 228.752 116.844 223.532C108.154 218.912 100.704 213.052 94.3738 206.582C90.8038 202.942 87.5337 199.122 84.5837 195.102C59.1537 160.862 55.5037 114.052 76.3337 75.9017L76.3537 75.8817C91.0237 49.0417 133.874 20.9017 192.464 8.51172C181.364 30.6117 170.864 60.1417 172.264 91.0417C172.944 105.522 177.964 119.612 185.434 132.812H185.444Z" fill="#EBD099"/>
<path d="M159.754 235.631C156.914 235.631 154.074 235.521 151.264 235.301C138.584 234.291 126.714 230.881 115.964 225.181C107.674 220.771 99.9537 214.961 93.0337 207.891C89.4137 204.201 86.0637 200.271 83.0737 196.211C56.9737 161.061 53.6838 113.481 74.6838 75.0109L74.8537 74.7108C91.3037 44.9608 137.254 18.2809 192.064 6.68086L195.864 5.88086L194.124 9.36086C184.204 29.1109 172.684 59.2908 174.124 90.9608C174.734 104.051 179.084 117.821 187.054 131.891C199.504 153.881 202.894 200.241 198.984 232.361L198.804 233.861L197.294 234.001C190.174 234.641 181.884 235.091 172.664 235.351C170.184 235.421 167.584 235.481 164.874 235.521C163.174 235.601 161.464 235.641 159.744 235.641L159.754 235.631ZM77.8337 77.0809C57.6837 114.231 60.9137 160.091 86.0937 193.991C88.9837 197.921 92.2138 201.711 95.7138 205.271C102.364 212.061 109.774 217.651 117.724 221.871C128.014 227.331 139.394 230.591 151.564 231.561C155.904 231.901 160.344 231.971 164.764 231.761C167.514 231.711 170.094 231.661 172.564 231.591C181.074 231.351 188.764 230.951 195.464 230.381C200.004 190.731 193.174 150.251 183.814 133.721C175.554 119.131 171.044 104.801 170.404 91.1208C169.014 60.4708 179.404 31.2809 189.084 11.1609C136.814 22.9709 93.4539 48.5109 78.0039 76.7709L77.8337 77.0609V77.0809Z" fill="#EBD099"/>
<path d="M423.024 138.071C422.494 154.881 418.064 171.311 410.044 185.891C405.214 194.681 399.084 202.791 391.724 209.911C384.934 216.481 377.074 222.291 368.154 226.141C366.404 226.911 364.614 227.601 362.764 228.201C356.454 230.261 348.834 231.601 340.454 232.401C329.644 233.381 317.594 233.461 305.514 233.011C296.874 232.681 288.214 232.091 280.004 231.361C282.924 199.931 279.264 157.541 267.734 137.161C260.284 123.971 255.234 109.881 254.564 95.3906C252.934 59.5806 267.284 25.6006 280.044 2.89062C343.324 8.66062 370.744 38.0006 393.464 61.0706C396.634 64.2706 399.544 67.6706 402.214 71.2406C402.814 72.0206 403.384 72.8206 403.964 73.6406C404.244 74.0106 404.504 74.4006 404.764 74.7906C405.334 75.6306 405.914 76.4606 406.444 77.3106C406.464 77.3506 406.494 77.3706 406.514 77.4106C407.154 78.4206 407.794 79.4406 408.394 80.4706C409.034 81.5206 409.634 82.6006 410.224 83.6806C410.254 83.7406 410.294 83.8006 410.324 83.8506C410.874 84.8706 411.414 85.8906 411.924 86.9506C412.484 88.0306 413.004 89.1406 413.534 90.2606C413.564 90.3606 413.614 90.4506 413.664 90.5706C414.094 91.5506 414.534 92.5306 414.934 93.5206C415.004 93.6506 415.054 93.7906 415.104 93.9206C415.484 94.8206 415.854 95.7406 416.194 96.6606C416.244 96.7906 416.314 96.9506 416.354 97.1006C416.354 97.1006 391.694 77.7306 387.904 85.3306C381.844 128.061 421.964 137.831 423.014 138.071H423.024Z" fill="#EBD099"/>
<path d="M319.084 235.14C314.744 235.14 310.194 235.05 305.444 234.87C297.314 234.56 288.704 234.01 279.844 233.21L277.974 233.04L278.144 231.17C280.924 201.25 277.644 158.46 266.114 138.07C257.854 123.45 253.344 109.11 252.704 95.4702C251.044 58.9702 265.774 24.4802 278.424 1.97015L279.014 0.910156L280.224 1.02016C342.634 6.71016 370.634 35.1702 393.124 58.0402L394.804 59.7502C397.964 62.9502 400.964 66.4302 403.724 70.1102C404.324 70.9002 404.914 71.7202 405.504 72.5502C405.764 72.9002 406.054 73.3202 406.334 73.7302C406.914 74.5702 407.464 75.3802 407.984 76.2002L408.164 76.4802C408.794 77.4802 409.424 78.4902 410.024 79.5102C410.664 80.5502 411.274 81.6502 411.884 82.7602L412.064 83.0802C412.604 84.0902 413.134 85.1002 413.634 86.1402C414.174 87.1902 414.714 88.3301 415.244 89.4601L415.314 89.6402C415.834 90.8002 416.274 91.8002 416.684 92.8202C416.714 92.8702 416.794 93.0702 416.864 93.2702C417.224 94.1102 417.594 95.0501 417.954 95.9901C418.054 96.2601 418.114 96.4002 418.154 96.5302L419.944 102.27L415.214 98.5602C408.084 92.9602 395.084 84.4702 390.494 85.5002C390.074 85.5901 389.854 85.7602 389.714 85.9402C384.154 126.71 421.834 135.86 423.444 136.23L424.944 136.58L424.894 138.12C424.354 155.23 419.784 172.05 411.674 186.78C406.684 195.87 400.404 204.1 393.014 211.25C385.354 218.66 377.244 224.24 368.884 227.86C367.044 228.67 365.174 229.39 363.324 229.98C357.244 231.97 349.604 233.41 340.614 234.26C334.184 234.85 326.974 235.14 319.074 235.14H319.084ZM282.044 229.66C290.184 230.36 298.094 230.86 305.594 231.14C318.804 231.64 330.484 231.43 340.294 230.54C349.004 229.72 356.374 228.33 362.194 226.43C363.924 225.87 365.684 225.2 367.414 224.44C375.364 221 383.104 215.67 390.434 208.57C397.554 201.68 403.604 193.75 408.414 184.99C416.004 171.19 420.384 155.49 421.114 139.47C413.554 137.16 380.454 124.68 386.074 85.0602L386.114 84.7602L386.254 84.4901C386.944 83.1201 388.124 82.2102 389.684 81.8602C395.154 80.6302 405.634 87.1102 412.114 91.6402C412.074 91.5402 412.024 91.4402 411.974 91.3302C411.904 91.1902 411.864 91.0901 411.824 91.0002C411.324 89.9302 410.824 88.8602 410.284 87.8202C409.784 86.7702 409.274 85.8102 408.754 84.8502L408.634 84.6402C408.024 83.5302 407.434 82.4702 406.814 81.4502C406.224 80.4502 405.624 79.4702 405.014 78.5102L404.824 78.2302C404.324 77.4502 403.804 76.6802 403.274 75.9102C402.984 75.4702 402.744 75.1202 402.484 74.7702C401.884 73.9202 401.324 73.1402 400.744 72.3802C398.084 68.8302 395.194 65.4702 392.144 62.3902L390.454 60.6702C368.534 38.3802 341.294 10.6902 281.094 4.87016C268.824 26.9702 254.844 60.2602 256.444 95.3102C257.054 108.36 261.404 122.13 269.374 136.24C281.174 157.1 284.644 198.59 282.044 229.65V229.66Z" fill="#EBD099"/>
<path d="M225.244 227.112C221.534 228.522 214.544 230.332 201.564 231.702C200.174 231.852 198.704 231.982 197.144 232.122C201.014 200.342 197.624 154.322 185.444 132.802C177.974 119.612 172.944 105.522 172.274 91.0316C170.874 60.1416 181.374 30.6016 192.474 8.50163C202.294 6.42163 212.534 4.78164 223.154 3.68164C210.964 26.2916 198.164 58.5616 199.704 92.4816C200.384 106.962 205.424 121.052 212.874 134.252C224.254 154.342 227.974 195.832 225.254 227.102L225.244 227.112Z" fill="#EBD099"/>
<path d="M195.004 234.201L195.284 231.901C200.174 191.771 193.294 150.471 183.814 133.731C175.554 119.141 171.044 104.811 170.404 91.1309C168.934 58.6509 180.684 27.8209 190.804 7.67093L191.204 6.87094L192.084 6.68094C202.134 4.55094 212.514 2.91093 222.964 1.83093L226.484 1.46094L224.804 4.58093C213.354 25.8109 200.024 58.2909 201.574 92.4109C202.184 105.461 206.534 119.231 214.504 133.341C226.334 154.231 229.804 196.411 227.114 227.281L227.014 228.451L225.924 228.871C220.744 230.841 212.624 232.431 201.774 233.571C200.544 233.701 199.264 233.821 197.894 233.941L195.014 234.201H195.004ZM193.734 10.1609C183.914 29.9209 172.714 59.7209 174.134 90.9609C174.744 104.051 179.094 117.821 187.064 131.891C199.224 153.361 202.744 198.061 199.264 230.061C199.984 229.991 200.684 229.921 201.364 229.851C213.184 228.601 219.834 227.001 223.484 225.761C225.934 195.591 222.544 155.151 211.244 135.181C202.984 120.561 198.474 106.221 197.834 92.5809C196.324 59.2509 208.584 27.5809 219.854 5.94093C211.024 6.96093 202.264 8.38093 193.744 10.1609H193.734Z" fill="#D8BC8B"/>
<path d="M252.704 228.34C238.634 226.51 229.284 224.85 229.284 224.85C229.284 224.85 228.614 225.83 225.244 227.11C227.964 195.83 224.244 154.34 212.864 134.26C205.414 121.07 200.364 106.98 199.694 92.4899C198.154 58.5699 210.954 26.2899 223.144 3.68993C225.404 3.44993 227.704 3.23993 229.994 3.03993C237.844 2.38993 245.284 2.02992 252.344 1.91992C239.654 24.6299 225.504 58.3699 227.124 93.9399C227.804 108.42 232.844 122.51 240.294 135.71C251.634 155.76 255.374 197.1 252.684 228.34H252.704Z" fill="#EBD099"/>
<path d="M254.404 230.45L252.464 230.2C240.974 228.7 232.534 227.31 229.854 226.85C229.124 227.4 227.904 228.1 225.914 228.86L223.124 229.92L223.384 226.95C226.024 196.66 222.694 155.41 211.244 135.18C202.984 120.56 198.474 106.22 197.834 92.58C196.244 57.6 209.834 24.45 221.514 2.8L221.984 1.93001L222.964 1.83C225.234 1.59 227.544 1.38001 229.854 1.18001C237.444 0.550008 245.004 0.170003 252.344 0.0500031L255.594 0L254.014 2.84001C241.724 24.83 227.424 58.48 229.034 93.87C229.644 106.92 233.994 120.69 241.964 134.8C253.744 155.63 257.234 197.71 254.594 228.51L254.424 230.46L254.404 230.45ZM228.524 222.67L229.614 223C229.704 223.02 238.224 224.52 251.004 226.22C253.294 196.2 249.854 156.36 238.694 136.62C230.434 121.99 225.924 107.66 225.284 94.02C223.694 59.26 237.024 26.27 249.164 3.85001C242.934 4.01001 236.554 4.37001 230.164 4.90001C228.214 5.07001 226.264 5.25 224.334 5.44C212.994 26.68 200.044 58.74 201.574 92.4C202.184 105.45 206.534 119.22 214.504 133.33C225.924 153.5 229.554 193.5 227.374 224.02C227.714 223.8 227.844 223.67 227.844 223.66L228.524 222.67Z" fill="#D8BC8B"/>
<path d="M280.014 231.361C277.874 231.171 275.784 230.971 273.714 230.761C266.054 230.001 258.924 229.151 252.704 228.341C255.384 197.101 251.654 155.761 240.314 135.711C232.864 122.521 227.814 108.431 227.144 93.9413C225.524 58.3713 239.674 24.6313 252.364 1.9213C262.304 1.7713 271.504 2.11131 280.064 2.90131C267.304 25.6113 252.954 59.5813 254.584 95.4013C255.264 109.881 260.304 123.971 267.754 137.171C279.284 157.551 282.944 199.931 280.024 231.371L280.014 231.361Z" fill="#EBD099"/>
<path d="M281.704 233.381L279.854 233.221C277.704 233.031 275.604 232.831 273.534 232.621C266.554 231.931 259.474 231.111 252.464 230.191L250.694 229.961L250.844 228.181C253.444 197.951 250.094 156.801 238.684 136.631C230.424 122.001 225.914 107.671 225.274 94.0308C223.624 57.7608 238.204 23.4208 250.724 1.01079L251.254 0.0707852L252.334 0.0507809C262.154 -0.0992191 271.544 0.230786 280.224 1.04079L283.094 1.30078L281.684 3.81078C269.274 25.8908 254.824 59.6908 256.434 95.3108C257.044 108.361 261.394 122.131 269.364 136.241C281.404 157.521 284.764 200.281 281.864 231.531L281.694 233.381H281.704ZM254.714 226.711C261.104 227.531 267.544 228.261 273.894 228.901C275.354 229.041 276.824 229.191 278.314 229.331C280.794 199.521 277.414 158.061 266.114 138.091C257.854 123.471 253.344 109.131 252.704 95.4908C251.104 60.3308 264.714 27.0408 277.024 4.52078C269.604 3.93078 261.694 3.69078 253.474 3.78078C241.314 25.7908 227.424 58.9808 229.014 93.8608C229.624 106.911 233.974 120.681 241.944 134.791C253.504 155.221 257.084 196.091 254.714 226.711Z" fill="#D8BC8B"/>
<path d="M190.564 234.51L190.204 230.79C190.884 230.72 192.834 230.56 194.924 230.39C197.614 230.17 200.574 229.93 201.354 229.84C214.504 228.44 221.244 226.62 224.584 225.35C227.144 224.37 227.834 223.65 227.844 223.65L228.524 222.67L229.614 223C229.704 223.02 239.094 224.67 252.954 226.49C259.784 227.39 266.824 228.2 273.894 228.9C275.174 229.03 279.624 229.41 283.354 229.73C285.694 229.93 287.754 230.11 288.584 230.18L288.234 233.91C287.414 233.83 285.364 233.66 283.034 233.46C279.284 233.14 274.804 232.75 273.524 232.62C266.434 231.92 259.344 231.11 252.474 230.2C240.984 228.7 232.534 227.3 229.864 226.84C229.134 227.39 227.924 228.09 225.924 228.85C220.834 230.79 212.484 232.42 201.764 233.56C200.984 233.65 197.974 233.89 195.234 234.12C193.164 234.29 191.244 234.45 190.564 234.51Z" fill="#EBD099"/>
<path d="M184.134 12.3308L183.184 8.71076C195.154 5.57076 212.184 2.94076 222.944 1.82076C225.224 1.59076 227.524 1.38075 229.834 1.17075C237.694 0.530751 245.264 0.150756 252.324 0.0507564C257.404 -0.0292436 283.464 -0.259245 297.004 3.58076L295.984 7.18076C282.944 3.49076 257.374 3.70076 252.384 3.79076C245.394 3.89076 237.924 4.26076 230.154 4.90076C227.864 5.11076 225.584 5.32076 223.324 5.54076C212.704 6.64076 195.904 9.24076 184.134 12.3208V12.3308Z" fill="#EBD099"/>
<path d="M518.804 136.81C483.574 141.93 492.494 119.16 472.664 117.17C470.874 116.98 469.074 117.02 467.274 117.09C460.574 117.37 453.864 116.96 447.254 115.88C442.424 115.09 422.794 109.95 424.054 84.1703C424.244 80.3203 427.114 76.9303 430.184 74.5803C432.234 73.0203 434.834 72.0703 437.414 72.1003C437.804 72.1003 438.184 72.1203 438.574 72.1403C444.724 72.3703 451.124 73.8903 457.374 76.2303C466.654 79.7003 475.614 84.9303 483.004 90.3503C483.814 90.9503 484.604 91.5403 485.384 92.1403C485.434 92.1803 485.474 92.2203 485.524 92.2603C486.194 92.7603 486.834 93.2903 487.484 93.8103C487.754 94.0303 488.024 94.2503 488.274 94.4703C488.834 94.9303 489.364 95.3903 489.904 95.8503C490.224 96.1303 490.534 96.4103 490.834 96.6903C491.404 97.1903 491.964 97.6903 492.514 98.2203C492.734 98.4003 492.944 98.6003 493.144 98.7803C493.874 99.4903 494.604 100.19 495.314 100.92C495.994 101.57 496.644 102.26 497.284 102.94C498.274 104 499.254 105.07 500.184 106.17C500.804 106.86 501.404 107.56 501.984 108.29C502.634 109.06 503.264 109.86 503.884 110.66C504.064 110.89 504.234 111.13 504.414 111.34C504.874 111.93 505.324 112.53 505.744 113.13C506.654 114.38 507.524 115.62 508.354 116.88C508.824 117.58 509.294 118.3 509.744 119.01C510.334 119.96 510.904 120.89 511.464 121.86C511.994 122.79 512.524 123.71 513.054 124.66C513.084 124.74 513.134 124.83 513.174 124.91C514.164 126.74 515.094 128.59 515.994 130.47C516.504 131.53 516.964 132.6 517.434 133.69C517.864 134.71 518.314 135.74 518.804 136.82V136.81Z" fill="#EBD099"/>
<path d="M516.754 184.601C516.754 184.601 516.734 184.621 516.714 184.621C514.304 185.881 511.884 187.011 509.474 188.041C491.644 185.791 482.554 172.491 482.114 171.851C481.544 171.001 481.774 169.831 482.624 169.251C483.484 168.681 484.644 168.911 485.224 169.761C485.324 169.921 496.204 185.651 516.754 184.601Z" fill="#2A261B"/>
<path d="M468.294 155.169C467.424 155.739 466.484 156.249 465.454 156.649C462.274 157.929 459.804 157.999 459.804 157.999C459.804 157.999 444.044 159.769 443.694 144.179C443.344 128.589 459.644 127.619 459.644 127.619C459.644 127.619 459.754 127.619 459.964 127.619C462.574 127.659 464.884 128.299 466.834 129.339C463.374 131.709 460.314 135.739 460.484 142.569C460.644 150.119 464.444 153.599 468.284 155.169H468.294Z" fill="#FAFFE6"/>
<path d="M468.294 155.17C464.454 153.6 460.654 150.12 460.494 142.57C460.324 135.74 463.384 131.71 466.844 129.34C476.264 134.34 477.894 148.89 468.304 155.16L468.294 155.17Z" fill="#2A261B"/>
<path d="M423.034 138.068C421.974 137.828 381.854 128.058 387.924 85.3285C391.714 77.7385 416.374 97.0985 416.374 97.0985C416.684 97.8985 416.984 98.7185 417.254 99.5385C417.484 100.208 417.694 100.858 417.904 101.498C418.504 103.328 419.044 105.178 419.544 107.038C420.854 112.018 421.804 117.128 422.374 122.288C422.394 122.528 422.424 122.758 422.454 122.988C422.594 124.228 422.694 125.488 422.794 126.758V126.778C422.884 127.908 422.934 129.048 422.984 130.198C423.034 131.418 423.064 132.658 423.074 133.898C423.074 134.478 423.084 135.078 423.074 135.658C423.074 136.468 423.044 137.268 423.044 138.078L423.034 138.068Z" fill="#331D0D"/>
<path d="M424.894 140.419L422.614 139.889C422.184 139.789 379.774 129.449 386.074 85.0592L386.114 84.7592L386.254 84.4892C386.944 83.1192 388.124 82.2092 389.684 81.8592C397.444 80.1192 415.504 94.0392 417.534 95.6292L417.934 95.9492L418.114 96.4292C418.434 97.2592 418.744 98.1092 419.024 98.9592C419.254 99.6292 419.464 100.289 419.674 100.949C420.244 102.709 420.794 104.549 421.334 106.579C422.674 111.649 423.634 116.879 424.214 122.109L424.284 122.799C424.424 124.069 424.534 125.349 424.634 126.619C424.724 127.739 424.774 128.859 424.824 129.969C424.884 131.379 424.904 132.629 424.914 133.889C424.914 134.479 424.924 135.099 424.914 135.699L424.864 140.429L424.894 140.419ZM389.724 85.9492C384.894 121.409 412.834 132.969 421.194 135.609C421.204 135.039 421.194 134.469 421.194 133.909C421.194 132.679 421.154 131.459 421.114 130.259C421.054 129.049 421.004 127.969 420.924 126.909C420.824 125.649 420.724 124.409 420.584 123.189L420.504 122.479C419.944 117.439 419.014 112.399 417.724 107.509C417.204 105.559 416.674 103.779 416.114 102.079C415.904 101.429 415.704 100.799 415.474 100.139C415.264 99.4992 415.034 98.8692 414.804 98.2492C407.594 92.6592 394.994 84.4992 390.494 85.4992C390.074 85.5892 389.854 85.7592 389.714 85.9392L389.724 85.9492Z" fill="#5B3C27"/>
<path d="M423.004 139.011H422.984L423.084 137.141L423.004 139.011Z" fill="#2A261B"/>
<path d="M39.1138 315.52C36.9538 315.52 34.7938 315.46 32.6338 315.33L32.1738 315.3L31.7837 315.07C17.4537 306.52 7.83386 294.22 3.20386 278.5L1.90381 274.08L5.91382 276.34C24.9838 287.07 45.6638 291.07 67.3838 288.23L68.2239 288.12L68.8638 288.67C73.9238 293.08 79.9637 297.42 86.8337 301.56L89.8137 303.36L86.6738 304.85C71.9138 311.86 55.5938 315.5 39.1238 315.5L39.1138 315.52ZM33.3137 311.63C50.0237 312.52 66.7338 309.53 81.8938 302.93C76.3438 299.41 71.3637 295.77 67.0337 292.06C46.3737 294.6 26.6339 291.17 8.26392 281.85C12.9839 294.41 21.3837 304.41 33.3137 311.63Z" fill="#D8BC8B"/>
<path d="M53.974 292.87C36.494 292.87 19.7638 288.43 4.09384 279.61L3.43393 279.24L3.21396 278.51C1.34396 272.18 0.273792 265.24 0.0437924 257.88C-0.0862076 253.84 0.0740073 249.77 0.514007 245.78L0.833831 242.91L3.32382 244.37C17.7038 252.81 33.3039 258.69 49.6839 261.86L50.8438 262.09L51.1339 263.24C53.3139 271.77 59.2839 280.33 68.8639 288.69L71.994 291.42L67.8839 291.96C63.2039 292.57 58.564 292.88 53.974 292.88V292.87ZM6.59384 276.72C24.2738 286.51 43.3438 290.54 63.3238 288.7C55.3338 281.08 50.1338 273.23 47.8238 265.32C32.4038 262.21 17.664 256.75 3.96396 249.07C3.75396 251.96 3.68378 254.87 3.78378 257.77C3.99378 264.53 4.94384 270.9 6.59384 276.73V276.72Z" fill="#D8BC8B"/>
<path d="M51.8838 266.101L48.9639 265.541C32.1739 262.291 16.1738 256.251 1.42383 247.601L0.383789 246.991L0.513916 245.791C1.39392 237.451 3.4538 229.241 6.6438 221.391L7.73389 218.711L9.73389 220.801C20.4639 232.031 34.8938 239.511 50.3538 241.861L52.3237 242.161L51.8938 244.111C51.3538 246.601 50.8839 249.181 50.5139 251.801C50.3539 252.971 50.1838 254.331 50.1838 255.621C50.1738 258.191 50.4938 260.741 51.1438 263.221L51.8938 266.091L51.8838 266.101ZM4.36377 244.981C17.6338 252.621 31.9238 258.101 46.8938 261.301C46.5738 259.431 46.4238 257.521 46.4338 255.621C46.4338 254.111 46.6237 252.591 46.7937 251.291C47.0837 249.241 47.4337 247.211 47.8237 245.241C33.2537 242.631 19.6537 235.681 9.07373 225.461C6.74373 231.791 5.15377 238.341 4.36377 244.981Z" fill="#D8BC8B"/>
<path d="M76.9939 76.5805L75.7039 75.2305L77.0139 76.5705L76.9939 76.5805Z" fill="#2A261B"/>
<mask id="mask1_390_1687" style="mask-type:luminance" maskUnits="userSpaceOnUse" x="423" y="72" width="96" height="66">
<path d="M518.804 136.81C483.574 141.93 492.494 119.16 472.664 117.17C470.874 116.98 469.074 117.02 467.274 117.09C460.574 117.37 453.864 116.96 447.254 115.88C442.424 115.09 422.794 109.95 424.054 84.1703C424.244 80.3203 427.114 76.9303 430.184 74.5803C432.234 73.0203 434.834 72.0703 437.414 72.1003C437.804 72.1003 438.184 72.1203 438.574 72.1403C444.724 72.3703 451.124 73.8903 457.374 76.2303C466.654 79.7003 475.614 84.9303 483.004 90.3503C483.814 90.9503 484.604 91.5403 485.384 92.1403C485.434 92.1803 485.474 92.2203 485.524 92.2603C486.194 92.7603 486.834 93.2903 487.484 93.8103C487.754 94.0303 488.024 94.2503 488.274 94.4703C488.834 94.9303 489.364 95.3903 489.904 95.8503C490.224 96.1303 490.534 96.4103 490.834 96.6903C491.404 97.1903 491.964 97.6903 492.514 98.2203C492.734 98.4003 492.944 98.6003 493.144 98.7803C493.874 99.4903 494.604 100.19 495.314 100.92C495.994 101.57 496.644 102.26 497.284 102.94C498.274 104 499.254 105.07 500.184 106.17C500.804 106.86 501.404 107.56 501.984 108.29C502.634 109.06 503.264 109.86 503.884 110.66C504.064 110.89 504.234 111.13 504.414 111.34C504.874 111.93 505.324 112.53 505.744 113.13C506.654 114.38 507.524 115.62 508.354 116.88C508.824 117.58 509.294 118.3 509.744 119.01C510.334 119.96 510.904 120.89 511.464 121.86C511.994 122.79 512.524 123.71 513.054 124.66C513.084 124.74 513.134 124.83 513.174 124.91C514.164 126.74 515.094 128.59 515.994 130.47C516.504 131.53 516.964 132.6 517.434 133.69C517.864 134.71 518.314 135.74 518.804 136.82V136.81Z" fill="white"/>
</mask>
<g mask="url(#mask1_390_1687)">
<path d="M482.304 106.801C484.744 107.841 487.494 109.241 488.064 111.831C488.634 114.461 486.654 116.901 484.804 118.871C483.564 120.191 482.214 121.581 480.444 121.971C478.974 122.291 477.584 122.061 476.194 121.481C476.314 118.901 476.394 116.131 475.044 113.931C474.394 112.871 473.424 111.951 473.204 110.731" fill="#EBD099"/>
<path d="M479.094 122.82C478.074 122.82 477.044 122.59 475.924 122.13L475.464 121.94L475.484 121.45C475.614 118.69 475.634 116.24 474.434 114.3C474.244 114 474.034 113.71 473.824 113.42C473.264 112.66 472.684 111.87 472.514 110.86L473.894 110.62C474.014 111.31 474.474 111.93 474.954 112.59C475.194 112.91 475.424 113.23 475.634 113.57C477.044 115.87 477.014 118.67 476.914 121.02C478.124 121.45 479.204 121.53 480.294 121.29C481.794 120.96 482.994 119.78 484.294 118.4C486.184 116.39 487.864 114.22 487.374 111.99C486.894 109.8 484.524 108.52 482.024 107.45L482.574 106.16C485.414 107.37 488.134 108.88 488.744 111.69C489.364 114.55 487.464 117.07 485.314 119.36C484.184 120.56 482.644 122.21 480.594 122.66C480.094 122.77 479.594 122.83 479.094 122.83V122.82Z" fill="#D8BC8B"/>
<path d="M422.694 92.3109C426.094 89.2609 430.804 88.2609 435.284 87.3809C435.874 88.6709 436.464 89.9609 437.054 91.2509C437.374 91.9509 437.704 92.7109 437.574 93.4709C437.394 94.4909 436.474 95.1709 435.644 95.7809C433.104 97.6509 425.564 102.171 423.564 104.621" fill="#EBD099"/>
<path d="M424.104 105.06L423.014 104.17C424.494 102.36 428.664 99.6003 432.024 97.3803C433.344 96.5103 434.494 95.7503 435.224 95.2103C435.974 94.6603 436.754 94.0903 436.884 93.3403C436.974 92.8103 436.724 92.2103 436.424 91.5303L434.884 88.1603C431.014 88.9303 426.364 89.9403 423.164 92.8203L422.224 91.7803C425.864 88.5103 431.014 87.4903 435.154 86.6803L435.694 86.5703L437.694 90.9403C438.014 91.6303 438.444 92.5703 438.264 93.5703C438.044 94.8703 436.934 95.6703 436.054 96.3203C435.304 96.8703 434.134 97.6403 432.794 98.5303C429.694 100.58 425.444 103.39 424.094 105.03L424.104 105.06Z" fill="#D8BC8B"/>
<path d="M430.104 115.951C432.614 113.601 442.714 105.541 445.224 103.191C445.734 102.711 446.294 102.211 446.984 102.061C447.854 101.881 448.724 102.321 449.484 102.781C450.664 103.501 451.784 104.331 452.824 105.251C453.294 105.661 453.774 106.151 453.824 106.771C453.874 107.341 453.554 107.871 453.264 108.371C451.414 111.541 450.534 115.261 450.774 118.921C448.544 118.901 446.324 119.851 444.814 121.491" fill="#EBD099"/>
<path d="M445.314 121.961L444.284 121.011C445.754 119.411 447.864 118.411 450.034 118.241C449.944 114.691 450.864 111.081 452.654 108.011C452.914 107.561 453.154 107.161 453.124 106.831C453.094 106.471 452.734 106.111 452.354 105.781C451.354 104.891 450.264 104.091 449.114 103.391C448.484 103.001 447.744 102.631 447.114 102.761C446.634 102.861 446.184 103.251 445.694 103.711C444.424 104.901 441.204 107.551 438.104 110.121C435.014 112.671 431.814 115.311 430.574 116.471L429.614 115.451C430.884 114.261 434.094 111.611 437.204 109.041C440.294 106.491 443.494 103.851 444.734 102.691C445.234 102.221 445.914 101.581 446.834 101.391C447.944 101.161 448.974 101.671 449.844 102.201C451.064 102.951 452.224 103.801 453.284 104.741C453.854 105.241 454.444 105.871 454.524 106.721C454.594 107.491 454.214 108.151 453.904 108.671C452.094 111.771 451.244 115.371 451.464 118.881L451.514 119.641H450.754C448.674 119.661 446.694 120.481 445.314 121.981V121.961Z" fill="#D8BC8B"/>
<path d="M485.974 85.0901C483.464 87.4401 480.954 89.7901 478.444 92.1301C477.934 92.6101 477.374 93.1101 476.684 93.2601C475.814 93.4401 474.944 93.0001 474.184 92.5401C473.004 91.8201 471.884 90.9901 470.844 90.0701C470.374 89.6601 469.894 89.1701 469.844 88.5501C469.794 87.9801 470.114 87.4501 470.404 86.9501C472.254 83.7801 473.134 80.0601 472.894 76.4001C475.124 76.4201 477.344 75.4701 478.854 73.8301" fill="#EBD099"/>
<path d="M476.274 93.9994C475.374 93.9994 474.544 93.5694 473.824 93.1294C472.614 92.3894 471.454 91.5394 470.384 90.5894C469.814 90.0894 469.224 89.4594 469.144 88.6094C469.074 87.8394 469.454 87.1794 469.764 86.6494C471.574 83.5594 472.424 79.9494 472.194 76.4494L472.144 75.6994H472.904C474.874 75.7294 476.964 74.8594 478.344 73.3594L479.374 74.3094C477.904 75.9094 475.794 76.9094 473.634 77.0794C473.724 80.6294 472.804 84.2394 471.014 87.3094C470.754 87.7594 470.514 88.1593 470.544 88.4893C470.574 88.8493 470.934 89.2094 471.314 89.5494C472.324 90.4394 473.414 91.2394 474.554 91.9394C475.184 92.3194 475.924 92.6994 476.544 92.5694C477.024 92.4694 477.454 92.0994 477.964 91.6194L485.484 84.5794L486.444 85.5994L478.914 92.6494C478.414 93.1194 477.724 93.7594 476.814 93.9494C476.624 93.9894 476.444 94.0094 476.264 94.0094L476.274 93.9994Z" fill="#D8BC8B"/>
<path d="M452.044 90.4097C452.374 91.1697 453.244 91.4997 454.024 91.7497C455.794 92.3197 457.574 92.8997 459.344 93.4697C460.554 93.8597 461.774 94.2597 463.044 94.2897C466.024 94.3697 468.924 92.1997 469.674 89.3197C469.844 88.6697 469.914 87.9597 469.684 87.3197C469.484 86.7697 469.084 86.3197 468.694 85.8797C467.324 84.3497 465.944 82.8197 464.574 81.2897C464.064 80.7197 463.554 80.1497 462.914 79.7397C461.524 78.8397 459.754 78.8097 458.114 79.0497C456.154 79.3397 454.254 79.9797 452.514 80.9397" fill="#EBD099"/>
<path d="M463.224 95.0004C463.164 95.0004 463.094 95.0004 463.034 95.0004C461.654 94.9604 460.374 94.5504 459.134 94.1404L453.814 92.4204C453.134 92.2004 451.884 91.7904 451.404 90.6904L452.694 90.1404C452.904 90.6204 453.604 90.8804 454.244 91.0904L459.564 92.8104C460.714 93.1804 461.894 93.5604 463.074 93.6004C465.764 93.7204 468.334 91.7204 469.014 89.1504C469.184 88.5004 469.194 87.9804 469.044 87.5704C468.894 87.1404 468.534 86.7504 468.194 86.3704L464.074 81.7804C463.574 81.2304 463.114 80.7104 462.554 80.3504C461.534 79.6904 460.084 79.4904 458.234 79.7604C456.344 80.0404 454.544 80.6504 452.874 81.5704L452.194 80.3404C454.014 79.3404 455.974 78.6704 458.024 78.3704C460.244 78.0404 461.974 78.3004 463.314 79.1704C464.024 79.6304 464.584 80.2504 465.114 80.8404L469.234 85.4404C469.624 85.8804 470.114 86.4204 470.364 87.1104C470.614 87.8004 470.614 88.5904 470.364 89.5204C469.534 92.6804 466.484 95.0104 463.224 95.0104V95.0004Z" fill="#D8BC8B"/>
<path d="M452.724 80.9096C451.874 77.7996 455.804 74.2796 456.344 71.0996L452.724 80.9096Z" fill="#EBD099"/>
<path d="M452.054 81.0905C451.474 78.9805 452.714 76.8605 453.914 74.8105C454.674 73.5105 455.454 72.1705 455.654 70.9805L457.034 71.2104C456.794 72.6504 455.944 74.1105 455.124 75.5105C454.024 77.3905 452.984 79.1704 453.404 80.7104L452.054 81.0805V81.0905Z" fill="#D8BC8B"/>
<path d="M445.594 79.0698C445.634 75.9898 441.884 73.8398 441.934 70.7598L445.594 79.0698Z" fill="#EBD099"/>
<path d="M446.294 79.08L444.894 79.06C444.914 77.75 444.074 76.57 443.194 75.33C442.214 73.95 441.204 72.53 441.234 70.75L442.634 70.77C442.614 72.08 443.444 73.26 444.334 74.51C445.304 75.88 446.314 77.3 446.294 79.07V79.08Z" fill="#D8BC8B"/>
<path d="M438.364 80.7389C437.154 78.3589 423.414 75.5889 420.754 75.3789L438.364 80.7389Z" fill="#EBD099"/>
<path d="M437.744 81.0597C436.804 79.2097 423.904 76.3397 420.704 76.0797L420.814 74.6797C422.584 74.8197 437.474 77.4397 438.994 80.4197L437.744 81.0597Z" fill="#D8BC8B"/>
<path d="M446.514 101.411C446.004 99.7612 444.274 96.7212 445.234 95.0412C445.854 93.9512 447.444 93.0111 448.374 92.1811C449.394 91.2811 450.424 90.3712 451.444 89.4812C451.784 89.1812 452.124 88.8812 452.374 88.5212C453.024 87.5812 453.024 86.3612 453.004 85.2212C452.984 84.3912 452.964 83.5612 452.954 82.7312C452.934 81.8912 452.094 81.3412 451.354 80.9412C449.974 80.2012 448.594 79.4612 447.214 78.7212C446.684 78.4412 446.064 78.1412 445.504 78.3612C443.924 78.9812 442.334 79.6012 440.754 80.2212C440.134 80.4612 439.504 80.7112 438.924 81.0312C436.684 82.2712 435.184 84.7412 435.104 87.3012" fill="#EBD099"/>
<path d="M445.844 101.621C445.734 101.251 445.554 100.811 445.354 100.331C444.624 98.521 443.714 96.2709 444.614 94.7009C445.124 93.8109 446.104 93.0609 446.974 92.4109C447.314 92.1509 447.644 91.9109 447.904 91.6709L450.974 88.9609C451.274 88.7009 451.574 88.4309 451.794 88.1209C452.294 87.3909 452.314 86.3809 452.294 85.2309L452.244 82.7409C452.234 82.2609 451.534 81.8409 451.014 81.5609L446.884 79.3409C446.464 79.1109 446.034 78.911 445.764 79.021L441.014 80.8809C440.394 81.1209 439.804 81.3509 439.274 81.6509C437.244 82.7809 435.884 85.011 435.814 87.331L434.414 87.2909C434.494 84.4909 436.134 81.7909 438.594 80.4309C439.214 80.0809 439.864 79.831 440.504 79.581L445.264 77.7209C446.164 77.3709 447.074 77.851 447.554 78.111L451.684 80.331C452.264 80.641 453.614 81.3709 453.654 82.7209L453.704 85.2209C453.724 86.3009 453.754 87.7709 452.954 88.9409C452.644 89.3809 452.254 89.7309 451.914 90.0309L448.844 92.7409C448.554 93.0009 448.204 93.2709 447.834 93.5409C447.074 94.1209 446.214 94.7709 445.844 95.4109C445.284 96.4009 446.084 98.3809 446.664 99.8209C446.874 100.341 447.064 100.821 447.194 101.221L445.854 101.641L445.844 101.621Z" fill="#D8BC8B"/>
<path d="M437.014 93.6895C439.314 94.4395 441.704 94.9494 444.114 95.2094L437.014 93.6895Z" fill="#EBD099"/>
<path d="M444.034 95.9093C441.584 95.6493 439.144 95.1193 436.794 94.3593L437.224 93.0293C439.484 93.7693 441.824 94.2693 444.184 94.5193L444.034 95.9193V95.9093Z" fill="#D8BC8B"/>
<path d="M453.864 105C457.044 103.09 459.834 100.53 462.004 97.5101C462.704 96.5301 463.684 95.3701 464.854 95.6801C465.044 95.7301 465.214 95.8201 465.394 95.9101C467.844 97.1501 470.294 98.3901 472.744 99.6301C472.964 99.7401 473.214 99.8801 473.284 100.12C473.304 100.2 473.304 100.28 473.304 100.36C473.304 103.55 473.304 106.74 473.304 109.93C473.304 110.08 473.304 110.26 473.184 110.36C473.064 110.47 472.884 110.45 472.724 110.43C469.934 110.12 467.684 112.64 465.004 113.48C464.684 113.58 464.334 113.66 464.004 113.59C463.344 113.45 462.954 112.8 462.544 112.27C461.664 111.15 460.414 110.4 459.244 109.59C457.664 108.49 456.204 107.22 453.874 105.01L453.864 105Z" fill="#EBD099"/>
<path d="M464.274 114.311C464.134 114.311 463.994 114.301 463.854 114.271C463.044 114.091 462.554 113.451 462.164 112.931L461.984 112.701C461.324 111.851 460.404 111.231 459.434 110.571L458.834 110.161C457.284 109.071 455.854 107.861 453.384 105.511L452.714 104.871L453.504 104.391C456.594 102.541 459.334 100.021 461.434 97.101C461.994 96.331 463.294 94.531 465.034 95.001C465.294 95.071 465.524 95.191 465.704 95.281L473.054 99.001C473.294 99.121 473.794 99.371 473.954 99.931C474.004 100.101 474.004 100.251 474.004 100.361V109.931C474.004 110.101 474.004 110.561 473.654 110.881C473.294 111.191 472.874 111.151 472.654 111.121C471.154 110.951 469.754 111.771 468.284 112.641C467.314 113.211 466.314 113.801 465.214 114.141C464.954 114.221 464.624 114.311 464.274 114.311ZM455.014 105.111C457.024 107.001 458.294 108.061 459.644 109.001L460.234 109.401C461.254 110.091 462.304 110.811 463.104 111.831L463.304 112.091C463.594 112.471 463.864 112.841 464.164 112.901C464.354 112.941 464.604 112.871 464.804 112.811C465.744 112.511 466.634 111.991 467.584 111.441C469.144 110.531 470.744 109.591 472.624 109.721V100.371C472.624 100.371 472.594 100.331 472.444 100.261L465.094 96.541C464.954 96.471 464.814 96.401 464.694 96.371C463.964 96.171 463.194 97.101 462.604 97.931C460.574 100.751 457.964 103.231 455.034 105.121L455.014 105.111Z" fill="#D8BC8B"/>
<path d="M474.124 100.399C475.384 100.559 476.354 101.61 477.004 102.7C477.654 103.79 478.124 105.01 478.984 105.95C479.844 106.89 481.274 107.49 482.404 106.91C483.334 106.43 483.754 105.35 484.404 104.52C484.834 103.97 485.394 103.51 486.024 103.2C489.994 101.23 491.654 95.6495 489.394 91.8295C489.354 91.7595 489.314 91.6895 489.244 91.6395C489.024 91.4695 488.704 91.6295 488.474 91.7795C486.004 93.3795 483.104 94.2895 480.164 94.3895C479.364 94.4195 478.534 94.3895 477.804 94.7295C477.034 95.0795 476.504 95.7895 475.994 96.4695C475.174 97.5795 474.344 98.6895 474.114 100.41L474.124 100.399Z" fill="#EBD099"/>
<path d="M481.434 107.85C480.294 107.85 479.184 107.21 478.474 106.43C477.834 105.72 477.394 104.9 476.974 104.1C476.794 103.75 476.604 103.4 476.404 103.06C475.914 102.24 475.104 101.23 474.034 101.09L473.334 101L473.434 100.3C473.694 98.4099 474.584 97.2098 475.444 96.0398C475.944 95.3598 476.574 94.5199 477.524 94.0799C478.284 93.7299 479.114 93.7098 479.844 93.6898H480.144C482.974 93.5798 485.724 92.7198 488.094 91.1798C488.864 90.6798 489.374 90.8499 489.684 91.0799C489.854 91.2099 489.944 91.3698 490.004 91.4598C491.184 93.4498 491.444 95.9798 490.734 98.3998C490.014 100.82 488.424 102.8 486.354 103.82C485.814 104.09 485.344 104.48 484.974 104.95C484.794 105.18 484.634 105.44 484.464 105.69C484.044 106.35 483.564 107.11 482.744 107.53C482.324 107.75 481.884 107.84 481.444 107.84L481.434 107.85ZM474.934 99.8798C475.934 100.24 476.854 101.08 477.604 102.34C477.824 102.7 478.014 103.07 478.214 103.44C478.604 104.19 478.984 104.9 479.504 105.48C480.164 106.2 481.254 106.71 482.084 106.28C482.564 106.03 482.904 105.5 483.264 104.94C483.454 104.65 483.634 104.35 483.844 104.09C484.344 103.45 484.984 102.93 485.704 102.57C487.424 101.72 488.754 100.05 489.364 98.0098C489.954 96.0298 489.774 93.9798 488.874 92.3498C488.874 92.3498 488.854 92.3598 488.844 92.3698C486.254 94.0498 483.254 94.9898 480.174 95.0898H479.864C479.214 95.1198 478.594 95.1299 478.094 95.3599C477.474 95.6499 476.984 96.2998 476.564 96.8798C475.884 97.7998 475.234 98.6698 474.934 99.8798Z" fill="#D8BC8B"/>
<path d="M463.294 113.521C463.454 115.411 462.974 117.351 461.944 118.941L463.294 113.521Z" fill="#EBD099"/>
<path d="M462.534 119.321L461.354 118.561C462.304 117.091 462.744 115.321 462.594 113.581L463.994 113.461C464.174 115.511 463.654 117.591 462.544 119.321H462.534Z" fill="#D8BC8B"/>
<path d="M491.714 112.669C490.944 112.669 490.164 112.599 489.414 112.409C487.774 111.989 486.474 111.019 485.844 109.729L487.104 109.109C487.554 110.009 488.544 110.739 489.764 111.049C490.884 111.329 492.064 111.299 493.504 111.159C497.424 110.789 501.354 109.899 505.144 109.039L505.454 110.409C501.614 111.279 497.644 112.169 493.634 112.549C493.004 112.609 492.364 112.659 491.714 112.659V112.669Z" fill="#D8BC8B"/>
<path d="M502.034 110.151C501.794 106.911 500.684 103.781 498.844 101.111C498.684 100.871 498.504 100.641 498.314 100.531C498.104 100.411 497.774 100.411 497.454 100.401L489.514 100.281L489.534 98.8809L497.474 99.0009C497.914 99.0009 498.474 99.0209 498.984 99.3009C499.454 99.5509 499.754 99.9609 500.004 100.311C501.984 103.191 503.174 106.551 503.434 110.041L502.034 110.151Z" fill="#D8BC8B"/>
<path d="M489.494 126.21C487.964 126.21 486.454 125.71 485.474 125.38L485.914 124.05C487.824 124.69 489.984 125.28 491.524 124.28C492.184 123.85 492.704 123.11 493.154 122.47C493.784 121.57 494.414 120.66 495.044 119.75C495.354 119.3 495.704 118.8 495.774 118.3C495.894 117.53 495.424 116.67 494.294 115.6C493.214 114.57 492.104 113.53 491.944 112.05L493.344 111.9C493.444 112.87 494.314 113.69 495.144 114.48C496.194 115.48 497.404 116.85 497.164 118.51C497.044 119.33 496.574 120.01 496.204 120.55C495.574 121.46 494.944 122.37 494.314 123.28C493.784 124.03 493.194 124.88 492.294 125.46C491.434 126.02 490.464 126.22 489.504 126.22L489.494 126.21Z" fill="#D8BC8B"/>
<path d="M503.114 124.03C502.694 124.03 502.264 124 501.834 123.94C499.854 123.65 496.324 122.37 495.034 120.55L496.174 119.74C497.164 121.14 500.264 122.29 502.034 122.55C503.844 122.82 505.774 122.31 507.484 121.87L511.374 120.86C512.094 120.67 512.134 120.49 512.134 120.49L513.514 120.73C513.324 121.8 512.124 122.12 511.724 122.22L507.834 123.23C506.374 123.61 504.754 124.03 503.104 124.03H503.114Z" fill="#D8BC8B"/>
<path d="M489.734 139.251C488.544 139.251 487.474 139.011 486.554 138.521L487.204 137.281C488.684 138.051 490.684 138.041 493.144 137.231C495.814 136.361 498.344 134.931 500.484 133.101C500.804 132.831 501.124 132.531 501.254 132.191C501.354 131.941 501.354 131.601 501.364 131.281L501.484 123.971L502.884 123.991L502.764 131.301C502.764 131.701 502.754 132.201 502.564 132.691C502.314 133.331 501.834 133.791 501.394 134.161C499.124 136.111 496.424 137.631 493.584 138.551C492.184 139.011 490.904 139.241 489.734 139.241V139.251Z" fill="#D8BC8B"/>
<path d="M512.594 134.361C512.244 134.361 511.884 134.361 511.534 134.331C507.434 134.121 503.824 132.661 501.364 130.201L502.354 129.211C504.564 131.421 507.844 132.751 511.604 132.931C515.374 133.121 519.084 132.191 521.904 131.351L522.304 132.701C519.634 133.491 516.174 134.361 512.594 134.361Z" fill="#D8BC8B"/>
</g>
</svg>
