<svg width="702" height="470" viewBox="0 0 702 470" fill="none" xmlns="http://www.w3.org/2000/svg">
<g clip-path="url(#clip0_849_2815)">
<path d="M665.75 124.15C664.94 124.61 638.64 139.56 623.66 138.92C621.6 138.83 619.88 138.38 618.41 137.67C609.06 133.18 610.84 118.14 610.84 118.14C610.84 118.14 614.78 105.02 624.63 103.83C630.52 103.12 634.13 99.9204 636.05 97.4604H636.06C636.5 97.2604 643.6 94.3604 647.02 107.61C650.47 121.01 665.13 124.02 665.74 124.14L665.75 124.15Z" fill="#434040"/>
<path d="M436.62 398.761C437.1 400.941 490.99 438.581 476.16 440.661C473.96 440.971 460.56 440.781 458.32 440.601C453.49 440.211 448.74 438.471 443.92 439.011C438.93 439.571 434.45 442.571 431.2 446.411C427.95 450.241 425.79 454.871 423.9 459.531C427.68 456.071 432.02 453.221 436.7 451.131C440.11 449.611 441.1 450.071 442.58 452.991C443.85 455.491 446.17 457.371 448.79 458.321C452.36 459.611 456.31 459.381 460.05 458.731C469.16 457.131 477.69 453.141 486.72 451.181C495.26 449.331 502.32 451.941 510.42 454.421C520.6 457.531 531.42 458.561 542.01 457.421C545.18 457.081 548.35 456.521 551.37 455.471C552.85 454.951 554.3 454.321 555.66 453.531C556.83 452.851 558.29 451.191 559.66 451.021C562.1 450.721 565.41 454.631 566.92 456.261C569.14 458.661 571 461.401 572.39 464.361C573.46 455.811 571.54 446.131 564.68 440.931C560.5 437.761 555.11 436.701 549.9 436.131C535.8 434.611 520.79 435.931 508.2 429.381C503.53 426.951 499.45 423.551 495.41 420.171C486.5 412.721 461.34 392.911 452.43 385.461" fill="#373635"/>
<path d="M431.35 421.39C431.83 423.57 432.39 425.73 433.05 427.87C435.51 435.89 430.46 444.44 422.15 445.61C419.95 445.92 417.73 446.02 415.5 445.84C410.67 445.45 405.92 443.71 401.1 444.25C396.11 444.81 391.63 447.81 388.38 451.65C385.13 455.49 382.97 460.11 381.08 464.77C384.86 461.31 389.2 458.46 393.88 456.37C397.29 454.85 398.28 455.31 399.76 458.23C401.03 460.73 403.35 462.61 405.97 463.56C409.54 464.85 413.49 464.62 417.23 463.97C426.34 462.37 434.87 458.38 443.9 456.42C452.44 454.57 459.5 457.18 467.6 459.66C477.78 462.77 488.6 463.8 499.19 462.66C502.36 462.32 505.53 461.76 508.55 460.71C510.03 460.19 511.48 459.56 512.84 458.77C514.01 458.09 515.47 456.43 516.84 456.26C519.28 455.96 522.59 459.87 524.1 461.5C526.32 463.9 528.18 466.64 529.57 469.6C530.64 461.05 528.72 451.37 521.86 446.17C517.68 443 512.29 441.94 507.08 441.37C492.98 439.85 477.97 441.17 465.38 434.62C460.71 432.19 456.63 428.79 452.59 425.41C443.68 417.96 434.77 410.52 425.86 403.07" fill="#5A5555"/>
<path d="M696.45 52.6C695.83 50.87 693.12 43.94 689.52 43.18C685.37 42.3 681.21 52.27 662.86 64.07C656.41 68.22 649.43 70.1 643.13 70.81C634.11 71.65 625.86 70.23 623.04 69.66C622.9 69.63 622.76 69.6 622.65 69.57C622.53 69.54 622.42 69.51 622.33 69.5C622.13 69.46 622.03 69.43 622.03 69.43C622.03 69.43 615.04 66.12 605.73 73.66C605.73 73.66 586.51 95.02 600.77 113.21C604.96 122.56 610.86 118.14 610.86 118.14C610.86 118.14 609.08 133.18 618.43 137.67C615.44 138.38 612.7 140.48 610.35 142.98C605.48 148.13 602.49 154.78 601.51 161.8C600.77 167.02 599.45 174.47 597.28 181.31L598.28 183.24C597.82 183.53 597.32 183.73 596.82 183.88C593.67 184.71 590.03 182.59 587.41 180.33C580.54 174.39 574.97 166.95 571.2 158.68C570.21 156.52 569.32 154.26 567.66 152.55C565.8 150.62 563.21 149.64 560.76 148.56C550.36 143.96 541.25 136.63 534.36 127.58C532.46 127.09 530.58 126.59 528.71 126.07C509.31 120.62 490.33 110.73 476.18 96.65C478.88 91.94 481.88 87.4 485.15 83.08C483.45 82.67 481.84 81.49 481.37 79.8C480.31 76.16 482.59 72.45 485.01 69.54C491.43 61.83 499.75 55.72 509 51.81C507.23 51.9 505.45 51.82 503.69 51.59C503.2 49.07 505.3 46.83 507.3 45.24C514.69 39.35 523.32 35.24 531.85 31.16C543.09 25.81 554.34 20.46 565.88 15.79C597.17 3.09998 649.16 -11.44 678.4 13.99C691.35 25.24 691.71 37.94 696.46 52.58L696.45 52.6Z" fill="#2768CA"/>
<path d="M281.6 332.08C278.27 331.89 275.33 334.14 272.88 336.4C260.51 347.8 251.39 362.68 246.84 378.87C246.48 380.15 246.19 381.67 247.04 382.7C247.68 383.48 248.77 383.71 249.77 383.82C262.13 385.27 273.69 378.17 284.1 371.36C278.75 373.53 274.97 379.1 274.93 384.88C274.93 385.83 275.02 386.81 275.41 387.68C276.3 389.64 278.54 390.66 280.68 390.83C284.98 391.17 288.99 388.79 292.59 386.4C301.35 380.59 309.73 374.2 317.64 367.27C316.88 369.02 316.12 370.82 316.06 372.73C316 374.64 316.82 376.7 318.51 377.56C320.68 378.67 323.34 377.47 325.21 375.91C327.08 374.35 328.72 372.36 331.02 371.54C329.4 373.52 327.74 375.58 327.09 378.05C326.44 380.52 327.09 383.53 329.28 384.85C330.51 385.59 332.04 385.7 333.47 385.5C336 385.15 338.31 383.92 340.55 382.68C352.42 376.14 363.89 368.91 375.36 361.69C388.57 353.37 402.14 344.72 411.09 331.93" fill="#14396D"/>
<path d="M372.07 323.639C359.34 348.209 355.01 377.029 359.97 404.249C360.3 406.069 360.94 408.189 362.7 408.739C364.01 406.989 364.85 404.889 365.12 402.719C364.23 410.709 364.77 418.859 366.69 426.669C367.05 428.109 367.8 429.839 369.28 429.899C370.69 429.959 371.59 428.449 372.16 427.159C373.23 424.749 374.31 422.349 375.38 419.939C374.53 423.659 378.41 427.159 382.23 427.229C386.05 427.299 389.49 424.979 392.34 422.439C401.44 414.309 407.21 403.119 411.81 391.809C416.46 380.369 420.11 368.549 423.61 356.699C431.33 330.539 438.34 304.169 444.61 277.619" fill="#153259"/>
<path d="M498.29 273.359C498.29 273.359 493.64 347.219 460.59 404.529C454.75 414.649 446.32 423.039 436.34 429.119L435.87 429.409C429.83 433.089 421.67 430.459 419.43 423.749C419.09 422.719 418.94 421.709 419.07 420.759C419.82 421.899 416.55 423.589 415.46 422.759C414.38 421.929 414.3 420.359 414.32 418.989C414.34 417.919 414.39 416.779 414.72 415.789C414.97 415.049 414.4 414.289 413.62 414.319C411.29 414.399 408.94 414.219 406.98 413.019C403.65 410.969 402.56 406.679 402.08 402.799C400.48 390.009 402.21 376.959 405.82 364.579C409.43 352.209 414.89 340.449 420.85 329.019C426.39 318.369 432.4 307.929 439.61 298.329C441.54 295.759 443.85 293.059 447.03 292.549" fill="#13233C"/>
<path d="M492.97 193.32C387.5 262.06 274.7 336.91 188.1 389.91C138.45 420.29 97.4198 443.49 71.3198 454.25C71.3198 454.25 31.5898 461.65 97.1298 421.69C49.1298 449.97 21.8398 461.22 6.45982 465.3C0.819824 466.79 -2.54018 459.21 2.37982 456.07L410.1 195.87L492.11 193.35L492.97 193.32Z" fill="#103058"/>
<path d="M381.08 252.879C358.55 340.199 226.5 391.779 226.5 391.779C226.5 391.779 206.35 398.129 225.91 381.149C125.01 444.149 85.9104 454.129 70.8604 453.249C157.46 400.249 270.26 325.399 375.73 256.659L374.87 256.689L381.08 252.869V252.879Z" fill="#13233C"/>
<path d="M296.28 264.641C296.28 264.641 73.1997 408.541 102.05 407.081C130.9 405.631 339.07 268.631 339.07 268.631" fill="#13233C"/>
<path d="M655.34 156.15C664.05 146.03 666.58 134.95 665.75 124.17H665.76C665.76 124.17 665.76 124.16 665.75 124.16C664.04 101.27 647.35 79.6101 643.12 70.8201C649.43 70.1101 656.4 68.2201 662.85 64.0801C681.2 52.2801 685.37 42.3001 689.51 43.1901C693.63 44.0701 696.57 53.0101 696.57 53.0101C696.57 53.0101 722.9 128.24 655.34 156.17V156.15Z" fill="#434040"/>
<path d="M665.77 124.15H665.76" stroke="#FF0019" stroke-width="1.01" stroke-miterlimit="10"/>
<path d="M643.12 70.8103L637.92 94.5303C637.92 94.5303 637.37 95.8403 636.08 97.4703H636.07C634.14 99.9203 630.53 103.12 624.65 103.84C614.81 105.03 610.86 118.15 610.86 118.15C610.86 118.15 604.96 122.57 600.77 113.22C586.5 95.0203 605.73 73.6703 605.73 73.6703C615.04 66.1303 622.03 69.4403 622.03 69.4403C622.03 69.4403 622.13 69.4703 622.33 69.5103C622.42 69.5203 622.53 69.5503 622.65 69.5803C622.77 69.6103 622.9 69.6403 623.04 69.6703C625.87 70.2403 634.12 71.6603 643.13 70.8203L643.12 70.8103Z" fill="#FBCF20"/>
<path d="M665.75 124.151C665.14 124.031 650.48 121.021 647.03 107.621C643.61 94.3706 636.5 97.2705 636.07 97.4706C637.36 95.8306 637.91 94.5305 637.91 94.5305L643.11 70.8105C647.34 79.6005 664.03 101.261 665.74 124.151H665.75Z" fill="#100F0E"/>
<path d="M618.73 137.609C618.63 137.639 618.51 137.649 618.41 137.679" stroke="#FF0019" stroke-width="1.3" stroke-miterlimit="10"/>
<path d="M621.27 54.4708C612.69 59.2808 604.18 51.6908 599.84 46.7008C597.88 44.4508 597.72 41.1808 599.41 38.7108C601.29 35.9608 604.25 32.3708 608.28 29.6208C614.72 25.2108 619.76 26.3008 623.2 28.5008C627.2 31.0808 629.46 35.6608 629.48 40.4308C629.49 44.9008 627.99 50.6908 621.27 54.4608V54.4708Z" fill="#FDD122"/>
<path d="M661.35 103.84V103.82" stroke="#FF0019" stroke-width="1.01" stroke-miterlimit="10"/>
<path d="M620.69 48.5205C620.26 48.8705 619.79 49.1905 619.26 49.4705C617.64 50.3305 616.33 50.5005 616.33 50.5005C616.33 50.5005 608.04 52.3205 606.99 44.0405C605.94 35.7705 614.55 34.3405 614.55 34.3405C614.55 34.3405 614.61 34.3405 614.72 34.3205C616.11 34.2005 617.38 34.4105 618.47 34.8505C616.76 36.3005 615.36 38.6205 615.83 42.2405C616.34 46.2505 618.55 47.8905 620.68 48.5105L620.69 48.5205Z" fill="#EEEBDE"/>
<path d="M620.69 48.5191C618.56 47.8991 616.34 46.2591 615.84 42.2591C615.37 38.6391 616.77 36.3191 618.48 34.8691C623.77 36.9991 625.45 44.6491 620.7 48.5291L620.69 48.5191Z" fill="#10110F"/>
<path d="M596.8 183.89C593.65 184.72 590.01 182.6 587.39 180.34C580.52 174.4 574.95 166.96 571.18 158.69C570.19 156.53 569.3 154.27 567.64 152.56C565.78 150.63 563.19 149.65 560.74 148.57C550.34 143.97 541.23 136.64 534.34 127.59C532.44 127.1 530.56 126.6 528.69 126.08C509.29 120.63 490.31 110.74 476.16 96.6602C476.16 96.6602 344.18 133.08 324.48 182.13C324.48 182.13 250.49 217 250.49 247.39C168.54 288.77 181.61 306.68 181.61 306.68C196.11 308.99 209.01 294.14 225.67 281.27C215.03 289.75 170.85 325.52 175.27 332.16C180.3 339.68 284.33 369.54 394.89 324.79C442.87 305.38 471.67 289.07 488.93 276.84C485.73 283.36 482.7 289.98 480.62 296.92C477.15 308.53 475.89 322.05 475.73 335.12C475.6 345.72 487.04 352.49 496.2 347.17C496.26 347.13 496.33 347.1 496.39 347.05C501.33 344.19 506.25 341.31 511.15 338.39C514.77 336.24 518.43 334.04 521.72 331.42C522.91 329.81 524.4 328.42 526.11 327.36C524.76 328.84 523.28 330.19 521.72 331.42C519.46 334.41 518.18 338.12 518.25 341.86C518.26 342.51 518.34 343.18 518.7 343.73C519.87 345.5 522.63 344.25 524.25 342.86C546.64 323.56 564.29 298.84 575.27 271.4L574.55 270.14C589.72 236.07 595.66 193.01 596.79 183.87L596.8 183.89ZM511.03 257.07C512.83 254 514.09 252.05 514.23 251.84C514.17 252.06 513.52 253.86 511.03 257.07Z" fill="#18519B"/>
<path d="M511.03 257.07C511.03 257.07 511.02 257.1 511 257.11C511.01 257.1 511.03 257.08 511.03 257.07Z" stroke="#FF0019" stroke-width="1.3" stroke-miterlimit="10"/>
<path d="M514.24 251.82H514.229" stroke="#FF0019" stroke-width="1.3" stroke-miterlimit="10"/>
<path d="M544.53 187.221C537.92 219.521 496.08 298.811 443.95 320.841C425.99 327.411 432.06 312.521 443.51 294.901C436.48 301.111 428.5 306.251 421.07 312.011C417.14 315.051 413.33 318.301 409.04 320.801C404.75 323.311 399.85 325.061 394.89 324.801C393.14 324.701 391.29 324.311 390.05 323.071C388.6 321.631 388.3 319.371 388.48 317.341C388.7 315.011 389.18 311.631 390.21 308.831C386.08 311.341 381.79 313.631 377.32 315.641C371.78 318.161 364.2 319.791 360.44 315.001C357.24 310.901 354.8 304.721 358.16 297.701C356.28 298.951 354.36 300.151 352.43 301.321C348.83 303.511 345.06 305.641 340.9 306.221C329.74 307.791 322.33 294.531 325.76 284.761C323.76 285.641 321.71 286.461 319.66 287.221C315.96 288.581 312 289.801 308.15 289.061C301.03 287.681 291.04 276.771 301.13 264.491C299.54 264.621 297.94 264.421 296.45 263.821C289 260.831 290.67 251.841 293.42 245.451C293.48 245.321 293.54 245.201 293.59 245.071C301 228.031 313.05 213.431 328.14 202.621C341.57 193.021 362.63 178.671 385.22 166.011C417.06 148.211 453.64 140.871 489.94 144.351C494.09 144.761 497.86 144.901 500.99 144.921C511.24 144.991 521.33 147.921 529.74 153.791C539.19 160.401 547.82 171.041 544.51 187.191L544.53 187.221Z" fill="#1A5CB4"/>
<path d="M476.16 251.82C476.16 251.82 456.43 275.08 443.52 294.89" stroke="#17407A" stroke-width="1.45" stroke-miterlimit="10"/>
<path d="M301.15 264.51C302.28 264.42 303.38 264.15 304.44 263.73C338.45 250.38 369.18 228.73 393.23 201.23" stroke="#17407A" stroke-width="1.45" stroke-miterlimit="10"/>
<path d="M325.78 284.779C359.88 270.189 386.82 242.369 412.55 215.359" stroke="#17407A" stroke-width="1.45" stroke-miterlimit="10"/>
<path d="M358.17 297.709C386.34 279.249 410.1 254.079 426.86 224.869" stroke="#17407A" stroke-width="1.45" stroke-miterlimit="10"/>
<path d="M390.21 308.829C422.38 289.389 445.2 256.459 466.49 224.869" stroke="#17407A" stroke-width="1.45" stroke-miterlimit="10"/>
<path d="M511.03 257.07C512.83 254 514.09 252.05 514.23 251.84C514.17 252.06 513.52 253.86 511.03 257.07Z" fill="#1A5CB4"/>
<path d="M526.12 327.381C524.77 328.861 523.289 330.211 521.729 331.441C522.919 329.831 524.41 328.441 526.12 327.381Z" fill="#18519B"/>
</g>
<defs>
<clipPath id="clip0_849_2815">
<rect width="701.63" height="469.59" fill="white"/>
</clipPath>
</defs>
</svg>
