<svg width="477" height="488" viewBox="0 0 477 488" fill="none" xmlns="http://www.w3.org/2000/svg">
<path d="M475.611 148.94L471.661 133.44C471.631 133.33 471.601 133.16 471.571 132.97C471.341 131.77 471.121 130.53 470.111 130.01L467.841 128.83C464.431 126.53 461.351 126.47 458.091 126.42C454.301 126.36 450.001 126.29 443.921 122.33C440.551 120.14 437.911 117.51 435.121 114.72C434.231 113.83 433.331 112.93 432.381 112.03C426.701 106.59 418.951 102.44 412.831 99.4402C409.711 97.9002 405.991 98.5302 402.721 99.0802C401.391 99.3002 400.131 99.5202 399.061 99.5602L394.641 99.7202L394.361 98.6802C394.341 98.6002 394.311 98.5202 394.281 98.4402C393.241 95.5502 389.951 95.5502 388.711 95.5502C388.201 95.5502 387.661 95.5702 387.101 95.5902C386.571 95.6102 386.021 95.6302 385.481 95.6302C384.071 95.6302 383.441 95.4702 383.171 95.3402L376.651 92.3002C376.351 92.1602 376.031 92.0802 375.701 92.0402L374.861 91.9502C374.751 91.9502 374.651 91.9302 374.541 91.9302C374.491 91.9302 374.441 91.9302 374.381 91.9402L372.651 92.0302H372.631C370.441 91.2602 367.291 91.6002 365.551 92.6602C363.491 93.9202 362.511 94.0002 362.061 93.8502C361.211 93.5702 360.521 91.8802 359.721 89.9102C358.581 87.1002 357.011 83.2402 353.521 79.9502C353.121 79.5702 352.541 79.4502 352.021 79.6202C349.541 80.4402 348.161 79.9702 345.521 78.9102L334.941 74.6502C334.941 74.6502 334.861 74.6202 334.811 74.6102L327.151 72.3002C324.251 71.4202 320.141 70.8302 317.181 70.8602L312.811 70.9102C312.501 70.5702 311.981 69.5802 311.681 68.4602C311.521 67.8502 310.991 67.4102 310.361 67.3502C309.051 67.2302 307.771 67.0202 306.551 66.7102C302.991 65.8302 300.031 64.1602 297.981 61.8702C296.471 60.2002 294.861 59.4702 292.601 59.5502L292.051 56.4802C294.201 52.5002 294.991 48.0402 294.211 44.1402C294.131 43.7202 293.861 43.3502 293.491 43.1302L289.361 40.7602C288.521 37.8702 285.931 36.5702 284.141 35.8302C283.841 35.0402 283.481 34.1502 283.111 33.2202C282.181 30.9302 281.131 28.3302 280.831 26.6902C280.611 25.5002 280.471 24.2102 280.321 22.8402C279.721 17.4002 279.031 11.2202 273.341 8.45018C272.621 8.10018 271.771 8.36018 271.381 9.05018L267.081 16.6202C266.511 17.5702 265.951 18.5102 265.381 19.4402C262.571 24.0902 259.911 28.4802 258.001 33.5102C257.581 34.6102 256.721 35.4002 255.641 35.6702C254.631 35.9202 253.581 35.6502 252.761 34.9302C252.481 34.6802 252.121 34.5602 251.751 34.5502L244.101 34.6602C243.841 34.6702 243.601 34.7402 243.381 34.8602C240.231 36.6602 238.321 36.5102 235.821 34.2702C232.261 31.0802 229.341 31.8302 226.751 32.4902C224.901 32.9702 223.151 33.4202 220.821 32.7502C219.331 32.3302 217.251 33.5402 216.321 34.5902C215.341 35.7102 215.531 36.6502 215.731 37.1102L217.051 40.2102C213.471 40.9902 210.531 40.4702 207.891 40.0102C204.501 39.4102 201.291 38.8402 198.781 41.9802L193.001 43.5102C190.201 44.2502 188.551 45.5102 186.271 47.2602L185.521 47.8302C184.371 48.7102 180.491 46.4802 177.911 43.9802C176.691 42.8002 176.351 41.4202 175.961 39.8202C175.771 39.0302 175.571 38.2202 175.261 37.4102C173.401 32.5602 172.371 29.8902 174.351 25.1602L176.941 18.9702C177.881 16.7202 177.721 14.0802 176.491 11.7202C175.491 9.79018 173.881 8.27018 172.031 7.44018C172.471 5.73018 172.791 3.47018 171.031 1.98018C169.641 0.790181 167.871 0.0901806 166.041 0.0101806C165.291 -0.0298194 161.521 -0.0698202 160.611 2.36018C160.501 2.66018 160.411 2.95018 160.311 3.23018C160.041 4.05018 159.831 4.70018 159.341 5.30018C158.711 6.07018 157.851 6.72018 156.851 7.18018C156.311 7.42018 155.771 7.61018 155.221 7.74018C155.121 7.76018 154.961 7.76018 154.781 7.78018C153.911 7.84018 153.161 7.90018 152.611 8.40018C149.521 11.2702 145.771 12.5502 142.041 12.0202C141.941 12.0002 141.841 12.0002 141.741 12.0202C137.661 12.2602 135.921 13.9202 134.911 17.0402L133.431 15.5002C133.361 15.4302 133.291 15.3702 133.211 15.3102C131.551 14.1602 128.391 13.9302 123.791 14.6102L121.391 12.8102C121.231 12.6902 121.041 12.6002 120.841 12.5502L112.271 10.5002C111.851 10.4002 111.411 10.4902 111.061 10.7302C110.711 10.9802 110.481 11.3602 110.431 11.7902C110.041 15.0602 112.911 17.5902 115.221 19.6202C115.931 20.2502 116.601 20.8402 117.071 21.3602C117.431 23.9802 118.111 26.3002 118.771 28.5602C119.021 29.4402 119.291 30.3402 119.531 31.2602L120.561 35.1802C121.021 36.8202 122.931 36.9402 124.471 37.0502C124.821 37.0702 125.251 37.1002 125.421 37.1402L126.591 37.4002C126.531 37.4702 126.471 37.5202 126.421 37.5602L120.781 39.5802C120.341 39.7402 120.001 40.1002 119.861 40.5502C119.781 40.8002 119.691 41.1302 119.591 41.5102C119.401 42.2502 118.901 44.1602 118.491 44.6302L113.201 47.0602C109.521 48.7402 106.871 50.5602 104.811 52.8702L104.711 52.4502C104.571 51.8502 104.121 51.3702 103.511 51.1602C102.081 50.7002 99.5713 51.9202 99.0013 52.4102C96.1913 54.8402 94.9713 53.8502 92.0313 51.4502C90.7113 50.3702 89.2413 49.1702 87.3813 48.2002C87.1713 45.1102 86.4213 42.7202 85.1013 40.9102L82.2913 36.5302C82.0513 36.1602 81.6513 35.9102 81.2113 35.8502C80.7613 35.8002 80.3213 35.9502 79.9913 36.2602C75.3713 40.6902 72.9513 40.1802 72.5213 40.0302C72.3713 39.8902 72.1913 39.7802 71.9813 39.7102C71.3713 39.5102 70.7013 39.7102 70.3113 40.2202L68.8013 42.1902L54.8113 42.0702C54.1713 42.0802 52.5713 42.0802 51.6213 42.3702C49.3113 43.0402 49.7313 47.4302 49.7313 47.4702L50.3513 51.9902C50.6013 53.7802 52.5313 54.4302 54.7113 54.7002L48.4613 56.3902C47.8013 56.5702 47.3513 57.1702 47.3513 57.8502L47.4013 68.3602C47.4013 68.8502 47.6413 69.3002 48.0413 69.5802L52.0513 72.4102L54.9313 80.9702L49.1913 115.95L48.9013 116.85C48.9013 116.85 48.8513 116.83 48.8213 116.81C46.5913 115.72 41.4213 113.2 36.8213 118.02C35.8813 118.24 34.6513 118.39 33.3413 118.56C30.4513 118.92 27.4613 119.3 25.5513 120.52L14.0913 127.95C13.7813 128.16 13.5513 128.47 13.4613 128.84L11.6313 135.9C8.22129 139 8.50129 142.15 9.87129 145.18C8.06129 145.53 6.47129 146.34 5.19129 147.59C3.29129 149.43 2.12129 152.21 2.00129 155.11L0.241293 157.7C-0.138707 158.27 -0.658707 159.04 3.81129 166.69C5.74129 169.98 8.61129 174.38 11.7213 177.35L9.74129 181.99C9.56129 182.43 9.59129 182.92 9.82129 183.33C10.0513 183.73 10.4613 184.01 10.9213 184.07L20.0413 185.28L22.1713 190.41C22.4113 190.96 22.9413 191.33 23.5413 191.33L32.4313 191.43H32.4913C35.0913 191.43 37.8413 189.55 40.5113 187.57C40.2813 192.18 40.1513 197.17 40.5613 201.78C40.5813 202.07 40.6913 202.35 40.8713 202.58C43.3413 205.73 47.0213 204.57 49.4613 203.79C49.9213 203.65 50.3613 203.51 50.7713 203.4C54.9713 202.94 58.5113 203.64 61.6413 204.26C66.6213 205.25 71.3213 206.18 74.3913 200.25L78.4113 199.27C78.5913 199.23 78.7513 199.16 78.9013 199.06L85.9413 194.3C90.2313 191.4 95.0913 188.12 100.691 188.98C101.051 189.03 101.441 189.1 101.891 189.21C102.131 189.27 102.371 189.27 102.611 189.21L103.011 189.1C103.251 189.03 103.741 188.9 104.161 188.82C104.291 190.1 104.121 191.88 103.931 193.88C103.591 197.39 103.171 201.76 104.131 206.12C104.331 207.02 104.591 207.93 104.911 208.82C106.571 213.33 109.681 216.88 114.421 219.66C114.881 219.93 115.341 220.34 115.821 220.77C116.661 221.54 117.621 222.4 119.001 222.87C120.161 223.27 121.431 223.31 122.881 222.99C124.541 222.63 127.421 223.51 129.231 224.58L135.081 228.02C135.081 228.02 135.181 228.07 135.241 228.1L144.011 231.93C144.361 232.21 144.701 232.5 145.051 232.8C146.611 234.11 148.221 235.48 149.891 236.2C150.251 236.35 150.651 236.36 151.021 236.23C153.701 235.22 157.041 235.31 159.531 236.46C160.631 236.97 162.061 237.93 162.761 239.65C162.911 242.73 163.861 244.96 164.631 246.77C165.771 249.45 166.081 250.17 163.761 251.82C163.461 252.03 163.251 252.35 163.171 252.71C162.811 254.28 164.681 257.15 165.371 258.14L166.881 268.18C166.981 268.89 167.581 269.42 168.291 269.45L178.991 269.92H179.061L188.221 270.29C187.401 272.26 186.961 274.16 187.161 276.17C187.191 276.49 187.241 276.82 187.301 277.14C187.371 277.48 187.451 277.81 187.551 278.14C187.601 278.31 187.651 278.47 187.711 278.64C187.771 278.81 187.831 278.99 187.901 279.16C187.971 279.33 188.051 279.51 188.131 279.68C188.221 279.86 188.311 280.03 188.411 280.2C188.901 281.05 189.541 281.83 190.321 282.53C190.471 282.66 190.631 282.8 190.801 282.93C190.821 282.95 190.851 282.97 190.881 282.99C191.091 283.16 191.311 283.32 191.541 283.47C191.571 283.5 191.611 283.52 191.651 283.55C191.901 283.72 192.161 283.87 192.421 284.02C192.671 284.16 192.911 284.29 193.171 284.4C193.271 284.46 193.381 284.51 193.491 284.55C193.741 284.67 194.001 284.77 194.261 284.87C194.691 285.04 195.131 285.18 195.581 285.3L197.531 290.71C197.661 291.07 197.701 291.66 197.671 292.37C197.671 292.46 197.671 292.56 197.671 292.66C197.661 292.79 197.651 292.93 197.631 293.08C197.611 293.28 197.591 293.48 197.561 293.69C197.531 293.9 197.501 294.1 197.461 294.31C197.391 294.73 197.301 295.16 197.201 295.57C197.091 295.98 196.971 296.37 196.841 296.73L193.021 307.34C192.931 307.59 192.831 307.87 192.711 308.17C192.651 308.32 192.601 308.47 192.541 308.61C192.451 308.85 192.371 309.08 192.281 309.32C192.241 309.44 192.191 309.56 192.161 309.68C192.121 309.8 192.081 309.91 192.051 310.02C191.981 310.25 191.921 310.47 191.871 310.67C191.841 310.77 191.821 310.86 191.811 310.95C191.751 311.31 191.791 311.66 191.901 311.98C191.941 312.11 192.001 312.24 192.061 312.37C192.111 312.46 192.161 312.55 192.221 312.65C192.291 312.75 192.361 312.86 192.441 312.96C192.601 313.16 192.771 313.36 192.961 313.56C193.061 313.66 193.161 313.75 193.261 313.85L191.301 315.32C190.781 315.71 190.581 316.39 190.791 317.01C190.941 317.44 191.111 317.91 191.311 318.39C191.371 318.56 191.451 318.74 191.521 318.92C191.641 319.24 191.781 319.57 191.911 319.9C192.901 322.34 194.121 325.37 194.121 327.27L193.101 340.64C193.031 341.46 193.641 342.18 194.461 342.25L195.511 342.34C195.831 343.03 196.421 343.59 197.171 343.87C199.541 344.76 203.141 345.82 206.851 345.82C208.761 345.82 210.531 345.54 212.121 344.99C212.921 344.72 213.211 344.68 213.371 344.68C213.681 344.68 214.231 344.83 215.071 345.05L215.641 345.2L215.941 345.27C217.041 345.56 219.101 346.09 219.201 346.71C219.361 347.66 219.961 348.48 220.821 348.91C220.911 348.96 221.011 349 221.111 349.03L223.511 363.49C223.561 363.82 223.731 364.12 223.981 364.35C224.551 364.87 225.181 365.27 225.871 365.54C228.121 366.42 230.361 365.64 232.331 364.96C234.271 364.29 235.511 363.93 236.421 364.5C236.531 364.57 236.921 365 237.321 366.05C237.761 367.21 237.871 368.32 237.761 368.77L233.741 384.25C233.621 384.7 233.721 385.19 234.021 385.56C234.311 385.93 234.791 386.17 235.231 386.12L242.411 385.91L244.681 392.33C245.111 393.56 244.711 396.66 244.541 397.98L244.431 398.84C244.331 399.57 244.241 400.27 244.171 400.88C241.861 403.57 238.061 404.97 234.381 406.33L233.751 406.57C233.621 406.61 233.501 406.68 233.391 406.76L228.891 410.02C228.191 410.53 227.091 411.7 226.381 412.83C225.351 412.83 224.251 413.2 223.101 413.94C221.471 414.97 219.991 416.55 218.751 417.95L209.621 428.25L202.791 435.52L197.611 440.73C197.311 441.03 197.151 441.44 197.171 441.87C197.201 442.29 197.401 442.69 197.731 442.95C201.141 445.68 204.341 443.88 206.471 442.7C206.581 442.63 206.701 442.56 206.821 442.5C212.001 443.55 215.541 448.7 217.141 453.28C217.281 453.67 217.581 453.99 217.961 454.16C218.341 454.32 218.781 454.32 219.161 454.16L223.481 452.26C223.601 452.49 223.721 452.71 223.831 452.89C223.971 453.11 224.101 453.32 224.271 453.54C224.391 453.69 224.511 453.85 224.631 453.99L224.721 454.08C224.721 454.08 224.741 454.1 224.751 454.11C224.871 454.24 225.001 454.37 225.151 454.52C225.331 454.7 225.531 454.88 225.731 455.03C225.911 455.18 226.091 455.32 226.281 455.45C226.451 455.57 226.621 455.68 226.791 455.78C226.821 455.8 226.841 455.81 226.871 455.83C227.031 455.93 227.201 456.02 227.391 456.13C227.751 456.33 228.141 456.51 228.511 456.68C229.061 456.94 229.621 457.17 230.191 457.4L230.741 457.62C230.741 457.62 230.811 457.65 230.851 457.66C231.841 458.06 232.871 458.51 233.731 459.11L243.081 465.65C244.051 466.33 244.871 467.51 245.741 468.75C246.751 470.2 247.861 471.79 249.471 473.01C245.561 477 245.071 482.3 248.351 487C248.641 487.42 249.111 487.64 249.581 487.64C249.861 487.64 250.141 487.57 250.391 487.41L253.751 485.27C259.531 481.56 262.081 476.78 264.321 470.26C265.451 466.94 270.171 464.17 272.711 462.67C274.781 461.44 277.001 459.75 279.121 457.78C279.441 457.48 279.771 457.18 280.071 456.88C280.381 456.58 280.681 456.29 280.941 456C282.371 454.55 283.701 453 284.921 451.38C285.111 451.13 285.291 450.89 285.451 450.66C285.951 449.98 286.441 449.25 286.941 448.44L287.041 448.28C287.171 448.07 287.301 447.86 287.391 447.69C288.431 445.93 289.201 444.26 289.681 442.75C289.791 442.42 289.891 442.08 289.981 441.76C290.071 441.42 290.151 441.11 290.201 440.81C291.401 439.3 292.501 437.73 293.571 436.21C294.111 435.46 294.641 434.7 295.181 433.96C296.731 431.83 298.631 429.37 300.971 427.22C301.001 427.19 301.021 427.16 301.051 427.13C301.111 427.06 301.181 427.01 301.311 426.89C301.581 426.64 301.841 426.41 302.151 426.16C303.161 425.3 304.291 424.49 305.511 423.74C306.171 423.33 306.861 422.94 307.621 422.56C307.991 422.38 308.271 422.05 308.391 421.65L312.291 408.5C312.371 408.22 312.371 407.92 312.291 407.64L311.621 405.44C311.621 405.44 311.621 405.38 311.601 405.35L310.341 401.18C310.251 400.9 310.171 400.62 310.101 400.36C309.501 398.11 309.461 396.63 310.811 394.31C310.941 394.09 311.011 393.84 311.021 393.58L311.151 387.29C314.071 383.56 317.541 379.37 321.351 376.15C322.191 375.44 323.051 374.77 323.911 374.16L332.651 368.05L340.291 363.71L348.361 365.23C349.131 365.37 349.871 364.91 350.081 364.16L350.311 363.34C350.651 362.13 350.951 361.09 351.261 360.25C351.501 359.59 351.701 359.24 351.741 359.17C352.021 358.93 353.211 358.7 353.921 358.56C355.131 358.32 356.271 358.09 357.051 357.51L358.831 356.15L361.041 355.98C361.111 355.98 361.181 355.96 361.261 355.94L368.361 354.32C373.901 353.06 379.731 353.02 385.911 352.97L388.021 352.95C388.801 352.95 389.441 352.35 389.501 351.58C389.691 349.37 390.351 347.69 391.501 346.43C392.951 344.84 395.041 344.09 396.891 343.43C397.381 343.25 397.851 343.08 398.301 342.91C399.581 342.39 400.991 341.68 401.681 340.3C402.121 339.4 402.221 338.11 402.011 335.99C401.981 335.62 401.941 335.25 401.911 334.9C401.861 334.42 401.811 333.98 401.791 333.61C401.621 330.7 403.741 328.41 405.981 325.98C406.291 325.65 406.601 325.31 406.971 324.91C407.281 324.55 407.601 324.19 407.891 323.84C409.611 321.75 410.591 319.34 411.641 316.79C411.991 315.92 412.351 315.04 412.751 314.15L417.691 308.99C417.961 308.72 418.111 308.35 418.111 307.97L418.251 293.2L422.991 288.52C423.261 288.25 423.421 287.88 423.431 287.5C423.501 285.26 423.661 283 423.931 280.61C424.541 275.38 425.601 270.29 426.931 264.18C427.581 261.13 426.991 257.89 426.421 254.76C425.961 252.24 425.531 249.86 425.741 247.75L427.201 233.41C427.481 230.72 427.981 230.54 430.071 229.78C430.631 229.57 431.241 229.35 431.921 229.06C437.971 226.44 440.781 220.25 443.491 214.26C445.521 209.8 447.611 205.19 451.021 201.96L463.271 190.36C474.311 179.94 479.271 163.3 475.621 148.96L475.611 148.94ZM168.281 257.32C168.251 257.08 168.151 256.85 168.011 256.66C167.351 255.75 166.591 254.43 166.271 253.65C169.621 250.83 168.491 248.16 167.391 245.57C166.661 243.86 165.831 241.93 165.751 239.28C165.751 239.12 165.711 238.96 165.661 238.81C164.851 236.58 163.171 234.82 160.781 233.72C157.801 232.34 153.871 232.14 150.591 233.18C149.451 232.57 148.201 231.51 146.991 230.48C146.571 230.13 146.161 229.78 145.751 229.45C145.641 229.36 145.521 229.29 145.401 229.24L136.521 225.36L130.751 221.97C128.481 220.64 124.851 219.46 122.241 220.04C121.341 220.24 120.591 220.23 119.961 220.01C119.171 219.74 118.551 219.18 117.831 218.53C117.261 218.01 116.671 217.48 115.941 217.05C111.821 214.63 109.141 211.6 107.731 207.77C107.461 207.01 107.231 206.24 107.061 205.46C106.201 201.55 106.581 197.62 106.911 194.14C107.181 191.36 107.411 188.96 106.901 187.14C106.321 185.07 103.651 185.8 102.221 186.19C101.831 186.1 101.461 186.04 101.131 185.99C94.3913 184.96 88.7813 188.75 84.2713 191.79L77.4513 196.4L73.0113 197.48C72.5613 197.58 72.1913 197.89 72.0013 198.31C70.0013 202.65 67.7113 202.38 62.2313 201.3C59.0313 200.67 55.0413 199.88 50.3413 200.41C50.2813 200.41 50.2213 200.43 50.1513 200.45C49.6613 200.57 49.1213 200.74 48.5613 200.92C46.2613 201.64 44.6213 202.05 43.5113 201.01C43.1013 195.65 43.3913 189.72 43.7013 184.56C43.7313 183.99 43.4313 183.45 42.9313 183.17C42.4313 182.88 41.8113 182.91 41.3413 183.24C40.7113 183.69 40.0513 184.17 39.3813 184.67C37.0113 186.42 34.3213 188.41 32.5013 188.41H32.4813L24.5713 188.32L22.4813 183.31C22.2813 182.81 21.8313 182.47 21.3013 182.4L13.2913 181.34L14.9113 177.53C15.1713 176.93 15.0013 176.23 14.5113 175.81C9.38129 171.39 4.14129 161.29 3.12129 158.79L4.74129 156.41C4.91129 156.16 5.00129 155.87 5.00129 155.57C5.00129 153.29 5.86129 151.11 7.29129 149.72C8.54129 148.5 10.2113 147.9 12.2213 147.96C12.7613 147.96 13.2813 147.69 13.5513 147.22C13.8313 146.75 13.8313 146.17 13.5513 145.7C11.0213 141.4 11.6313 139.81 13.9513 137.85C14.1813 137.65 14.3513 137.38 14.4313 137.08L16.2313 130.13L27.1913 123.02C28.5213 122.17 31.2913 121.82 33.7313 121.51C35.3413 121.31 36.8613 121.12 38.0413 120.79C38.3213 120.71 38.5613 120.55 38.7513 120.34C41.6813 117.04 44.5713 118.05 47.5213 119.49C48.6713 120.05 49.5013 120.46 50.4013 120.07C50.8813 119.87 51.2213 119.47 51.3813 118.98L52.0913 116.74C52.1113 116.67 52.1313 116.6 52.1413 116.53L57.9613 81.0702C58.0013 80.8302 57.9813 80.5802 57.9013 80.3502L54.7513 70.9702C54.6513 70.6602 54.4513 70.4002 54.1913 70.2202L50.4113 67.5502L50.3713 58.9702L57.3413 57.0802C59.0113 56.7802 59.7213 55.4502 59.5413 54.2702C59.3413 52.9402 58.0313 51.6602 56.2613 51.8202C54.3213 51.6802 53.5613 51.4102 53.3013 51.2802L52.7213 47.0402C52.6613 46.6202 52.7413 45.6602 52.8813 45.1502C53.3113 45.0902 54.0113 45.0402 54.8013 45.0502L69.5313 45.1702C70.0013 45.1702 70.4313 44.9602 70.7213 44.5902L71.9613 42.9802C73.4713 43.3402 76.4213 43.2602 80.7213 39.6202L82.6013 42.5502C82.6013 42.5502 82.6413 42.6102 82.6613 42.6402C83.7413 44.0902 84.3313 46.3002 84.4213 49.1902C84.4413 49.7602 84.7813 50.2802 85.3013 50.5102C87.2113 51.3702 88.7013 52.5802 90.1313 53.7502C93.0013 56.0902 96.2413 58.7402 100.931 54.6802C101.121 54.5402 101.601 54.3402 102.031 54.2002L102.601 56.6802C102.731 57.2802 103.211 57.7302 103.811 57.8302C104.411 57.9302 105.011 57.6602 105.331 57.1502C107.321 53.9602 109.961 51.8202 114.451 49.7702L119.851 47.2902C121.251 46.6302 121.851 44.7102 122.501 42.2502C122.501 42.2102 122.521 42.1702 122.531 42.1202L127.511 40.3402C128.681 39.9202 130.331 37.8102 130.251 36.4502C130.211 35.6402 129.671 35.0102 128.891 34.8302L126.091 34.1902C125.691 34.1002 125.221 34.0702 124.671 34.0302C124.311 34.0102 123.711 33.9702 123.331 33.9002L122.431 30.4702C122.181 29.5302 121.911 28.6102 121.651 27.6902C120.951 25.3302 120.301 23.0902 119.991 20.5302C119.961 20.2602 119.851 20.0102 119.681 19.7902C119.061 18.9902 118.161 18.2002 117.201 17.3502C116.041 16.3302 114.701 15.1502 113.961 13.9702L119.841 15.3802L122.491 17.3702C122.821 17.6202 123.221 17.7202 123.631 17.6502C128.051 16.9402 130.541 17.2102 131.391 17.6902L134.631 21.0602C135.021 21.4702 135.601 21.6202 136.131 21.4602C136.671 21.3002 137.081 20.8602 137.181 20.3102C138.041 15.8902 138.891 15.1902 141.771 15.0002C146.271 15.6002 150.741 14.1102 154.411 10.8102C154.591 10.7902 154.841 10.7702 155.001 10.7602C155.361 10.7302 155.641 10.7102 155.891 10.6502C156.641 10.4702 157.381 10.2202 158.091 9.90018C159.511 9.25018 160.741 8.32018 161.661 7.19018C162.501 6.16018 162.841 5.15018 163.161 4.17018C163.251 3.91018 163.331 3.66018 163.391 3.46018C163.591 3.24018 164.691 2.94018 165.901 2.99018C167.061 3.05018 168.191 3.49018 169.081 4.26018C169.701 4.78018 169.231 6.35018 168.891 7.50018L168.751 7.98018C168.631 8.38018 168.691 8.81018 168.901 9.16018C169.111 9.52018 169.461 9.77018 169.861 9.86018C171.481 10.2202 172.971 11.4302 173.831 13.0902C174.641 14.6602 174.771 16.3802 174.181 17.8002L171.591 23.9902C169.141 29.8402 170.531 33.4602 172.461 38.4702C172.711 39.1102 172.871 39.7902 173.051 40.5202C173.491 42.3102 173.981 44.3502 175.831 46.1302C176.131 46.4202 183.281 53.2902 187.341 50.2102L188.091 49.6302C190.251 47.9802 191.551 46.9902 193.761 46.4002L200.051 44.7302C200.401 44.6402 200.701 44.4302 200.901 44.1402C202.301 42.1502 203.801 42.3202 207.371 42.9502C210.561 43.5202 214.531 44.2202 219.561 42.6302C219.961 42.5102 220.301 42.2102 220.471 41.8302C220.651 41.4502 220.661 41.0002 220.491 40.6202L218.701 36.4302C219.061 36.1002 219.741 35.7102 220.091 35.6502C223.161 36.5002 225.561 35.8902 227.501 35.3902C229.961 34.7502 231.461 34.3702 233.821 36.4902C237.201 39.5202 240.421 39.8802 244.521 37.6502L251.251 37.5502C252.741 38.6402 254.581 39.0102 256.361 38.5702C258.381 38.0702 260.041 36.5802 260.801 34.5702C262.621 29.7902 265.211 25.5102 267.951 20.9802C268.521 20.0402 269.091 19.1002 269.671 18.1102L273.221 11.8702C276.351 14.2402 276.851 18.7702 277.331 23.1602C277.491 24.5802 277.641 25.9202 277.871 27.2102C278.231 29.1602 279.341 31.9102 280.331 34.3402C280.801 35.5002 281.241 36.5902 281.541 37.4602C281.691 37.8702 282.001 38.2002 282.411 38.3602C284.811 39.3002 286.261 40.2002 286.571 41.9802C286.651 42.4202 286.921 42.8002 287.301 43.0202L291.381 45.3702C291.831 48.5702 291.051 52.2102 289.181 55.4602C289.001 55.7602 288.941 56.1202 289.001 56.4702L289.891 61.4402C290.041 62.2402 290.801 62.7802 291.601 62.6502C293.661 62.3402 294.621 62.6202 295.741 63.8602C298.191 66.6002 301.681 68.5902 305.821 69.6102C306.871 69.8702 307.971 70.0802 309.101 70.2202C309.611 71.6502 310.721 73.9002 312.551 73.9002H312.581L317.221 73.8502C319.901 73.8302 323.681 74.3702 326.291 75.1602L333.881 77.4502L344.401 81.6902C346.721 82.6202 348.921 83.5002 352.061 82.7202C354.671 85.4302 355.921 88.5102 356.941 91.0302C358.021 93.6802 358.951 95.9802 361.121 96.6902C361.471 96.8102 361.841 96.8802 362.231 96.8902C362.191 97.0202 362.161 97.1502 362.141 97.2902L361.101 104.12L355.941 105.98C354.841 106.37 354.071 107.36 353.961 108.52L353.891 109.36C353.571 112.9 353.261 116.25 351.341 118.57C351.191 118.75 350.501 119.32 347.631 119.32C346.681 119.32 345.651 119.26 344.771 119.2C344.711 119.2 344.641 119.19 344.581 119.19C343.801 119.19 343.051 119.5 342.481 120.05C341.881 120.64 341.551 121.47 341.581 122.31C341.691 124.98 340.181 128.48 338.151 130.3C338.051 130.39 337.951 130.48 337.831 130.57C337.811 130.58 337.791 130.6 337.771 130.62C337.541 130.79 337.301 130.95 337.071 131.07C337.041 131.09 337.001 131.11 336.971 131.13C336.951 131.14 336.931 131.15 336.911 131.16C336.821 131.11 336.731 131.07 336.641 131.03C336.141 130.79 335.651 130.59 335.171 130.42C332.271 129.39 329.431 129.3 326.771 129.3H326.301L314.261 129.32C313.201 129.33 312.221 129.89 311.681 130.81C311.141 131.73 311.131 132.86 311.651 133.79L313.171 136.49C312.901 136.94 312.661 137.41 312.461 137.88C311.401 140.47 311.491 143.25 312.711 146.19C313.701 148.59 311.471 152.44 310.141 154.74C309.591 155.69 309.521 156.78 309.451 157.84C309.451 157.86 309.441 157.88 309.441 157.9L307.191 158.66C305.871 159.11 305.031 160.4 305.161 161.79L305.941 169.99C305.371 169.08 304.651 168.18 303.731 167.28C303.151 166.72 302.391 166.43 301.641 166.43C300.931 166.43 300.211 166.69 299.641 167.19C299.111 167.67 298.561 168.15 298.011 168.63C294.471 171.71 290.811 174.9 289.011 179.2L284.061 191.08L278.151 191.38C276.871 191.44 275.771 192.31 275.421 193.54C274.601 196.38 273.701 197.96 273.191 198.45C273.181 198.45 273.171 198.47 273.161 198.48L269.881 199.66C268.741 200.07 267.931 201.07 267.771 202.27C267.411 204.96 270.631 207.46 270.671 207.48C271.001 207.71 271.131 207.96 271.151 208.12C271.161 208.27 271.081 208.46 270.881 208.67C268.801 210.98 268.731 213.48 268.651 215.9C268.591 217.78 268.521 219.9 267.701 222.86L265.601 230.43L261.861 229.15C260.591 228.71 259.281 228.5 257.841 228.5C255.181 228.5 252.591 229.24 250.081 229.96C247.631 230.67 245.321 231.33 243.021 231.33C240.451 231.33 238.221 230.46 235.991 228.58C235.441 228.11 234.751 227.87 234.061 227.87C233.431 227.87 232.801 228.07 232.261 228.47C232.141 227.95 231.961 227.46 231.731 226.99C231.541 226.61 231.321 226.25 231.061 225.91C230.211 224.77 229.111 224.08 228.221 223.52C226.831 222.64 226.301 222.31 226.221 220.52C226.171 219.59 225.691 218.73 224.921 218.19L222.381 216.44C221.851 215.53 221.341 214.72 220.731 214.08C220.661 214 220.591 213.92 220.521 213.85C220.381 213.71 220.251 213.6 220.141 213.51C220.081 213.47 220.031 213.43 219.991 213.4C219.991 213.4 219.981 213.4 219.971 213.38C219.931 213.35 219.881 213.32 219.831 213.29C219.731 213.22 219.621 213.16 219.511 213.11C219.431 213.06 219.361 213.03 219.321 213.01C219.301 213.01 219.291 212.99 219.271 212.99C219.181 212.94 219.081 212.9 218.981 212.87C218.961 212.87 218.951 212.87 218.931 212.85C218.771 212.8 218.611 212.76 218.451 212.73C218.371 212.73 218.291 212.7 218.221 212.7C218.071 212.67 217.921 212.66 217.761 212.66C217.511 212.66 217.251 212.69 217.001 212.74C216.761 212.78 216.531 212.85 216.301 212.95C216.051 213.04 215.851 213.14 215.721 213.22C215.591 213.29 215.481 213.36 215.371 213.44C215.251 213.51 215.141 213.59 215.041 213.67C214.921 213.77 214.821 213.85 214.761 213.91C214.741 213.93 214.691 213.98 214.661 214C212.411 216.1 210.251 221.32 210.231 226.62L204.741 231.07C204.541 231.24 204.361 231.41 204.191 231.59C203.441 229.53 201.991 226.47 197.471 224.17L197.771 220.8C197.841 219.94 197.551 219.1 196.961 218.47C194.901 216.29 194.001 214.31 193.121 212.4C191.531 208.91 189.881 205.3 182.461 205.12C181.971 205.12 181.471 205.12 180.961 205.12C177.721 205.12 173.651 205.42 170.931 207.8C170.931 207.81 170.901 207.82 170.891 207.84C170.741 207.97 170.601 208.11 170.471 208.24C170.421 208.29 170.351 208.36 170.301 208.42C169.931 208.85 169.631 209.27 169.411 209.71C169.171 210.16 169.001 210.61 168.881 211.07C168.801 211.33 168.751 211.6 168.711 211.87C168.651 212.26 168.621 212.67 168.621 213.07C168.621 213.39 168.631 213.71 168.661 214.03C168.661 214.05 168.661 214.07 168.671 214.09C168.751 214.91 168.911 215.69 169.091 216.49L169.171 216.85C169.231 217.13 169.301 217.4 169.341 217.66C169.421 218.15 169.421 218.35 169.421 218.42C169.411 218.47 169.411 218.51 169.411 218.55C169.321 219.22 169.071 220.02 168.821 220.86C168.221 222.81 167.471 225.24 168.261 227.7C169.081 230.21 170.871 232.57 173.601 234.72C173.581 234.77 173.561 234.81 173.541 234.85C173.141 235.58 172.741 236.34 172.601 237.24C172.371 238.77 172.511 240.46 173.031 242.25C173.181 242.79 173.331 243.23 173.491 243.65C173.711 244.26 174.021 244.95 174.381 245.65C174.641 246.16 174.871 246.57 175.101 246.96C175.371 247.41 175.661 247.85 175.951 248.26C176.271 248.71 176.591 249.13 176.841 249.44C176.841 249.45 176.861 249.47 176.871 249.48C177.181 249.85 177.491 250.19 177.801 250.54C177.801 250.54 177.851 250.6 177.871 250.61C180.721 253.64 184.051 255.32 187.251 255.32C187.861 255.32 188.471 255.25 189.061 255.13C189.631 255.02 190.231 254.83 190.831 254.57C191.081 254.47 191.301 254.35 191.441 254.28C191.481 254.25 191.521 254.23 191.561 254.21C191.931 253.98 192.271 253.74 192.601 253.47C192.621 253.45 192.631 253.44 192.651 253.43C192.901 253.21 193.231 252.91 193.561 252.54C193.871 252.21 194.141 251.88 194.361 251.6C194.361 251.58 194.391 251.56 194.401 251.54C194.651 251.21 194.881 250.87 195.101 250.52C195.471 249.96 195.791 249.41 196.061 248.87C196.421 248.17 196.761 247.44 197.051 246.69C197.141 246.45 197.261 246.22 197.401 245.99C197.501 245.82 197.611 245.67 197.741 245.51C199.611 243.18 203.851 241.74 206.711 241.74C207.121 241.74 207.411 241.77 207.601 241.8C208.351 243.1 208.221 247.81 207.111 249.1L203.821 252.96C200.971 254.42 199.091 256.52 198.221 259.25C198.121 259.07 197.991 258.9 197.841 258.76C196.381 257.4 194.141 258.3 192.171 259.1C191.581 259.34 190.911 259.61 190.531 259.69C190.231 259.61 189.531 259.22 189.101 258.99C187.631 258.19 186.121 257.36 184.821 258.23C182.391 259.87 179.301 263.54 178.011 266.88L169.671 266.51L168.291 257.34L168.281 257.32ZM195.071 319.72C194.961 319.43 194.841 319.14 194.731 318.86C194.711 318.82 194.691 318.79 194.681 318.75C194.441 318.15 194.201 317.57 193.991 317.03L196.521 315.12C196.881 314.85 197.101 314.43 197.121 313.98C197.141 313.53 196.961 313.1 196.621 312.8C196.461 312.66 196.301 312.52 196.121 312.37C196.071 312.33 196.021 312.28 195.971 312.24C195.811 312.1 195.621 311.94 195.441 311.77C195.381 311.71 195.321 311.65 195.261 311.6C195.201 311.54 195.141 311.49 195.091 311.43C194.981 311.32 194.891 311.22 194.831 311.14C194.881 310.95 194.951 310.72 195.041 310.47C195.091 310.32 195.141 310.18 195.201 310.03C195.301 309.74 195.411 309.46 195.501 309.22C195.631 308.9 195.741 308.6 195.831 308.34L199.661 297.73C199.691 297.66 199.711 297.58 199.741 297.5C199.801 297.33 199.851 297.15 199.911 296.95C199.941 296.85 199.971 296.75 200.001 296.64C200.051 296.45 200.101 296.25 200.151 296.04C200.211 295.77 200.271 295.5 200.331 295.21C200.381 294.95 200.431 294.68 200.471 294.42C200.561 293.88 200.621 293.33 200.651 292.78C200.661 292.65 200.671 292.51 200.671 292.37C200.701 291.8 200.671 291.26 200.611 290.75C200.561 290.35 200.471 289.99 200.361 289.67L198.131 283.5C198.111 283.43 198.091 283.37 198.051 283.32C198.031 283.27 198.011 283.23 197.981 283.19C197.941 283.12 197.891 283.06 197.841 283C197.751 282.91 197.661 282.82 197.551 282.75C197.441 282.68 197.331 282.63 197.211 282.58C197.151 282.56 197.091 282.54 197.021 282.53C194.021 281.92 191.541 280.15 190.691 278.03C189.661 275.45 189.971 273.23 191.871 269.55C191.901 269.5 191.921 269.44 191.941 269.39C191.971 269.31 191.991 269.22 192.011 269.13C192.021 269.09 192.031 269.04 192.021 269C192.021 268.96 192.021 268.92 192.021 268.88C192.021 268.77 192.021 268.65 192.001 268.54C192.001 268.53 191.991 268.51 191.981 268.5C191.951 268.37 191.911 268.23 191.841 268.11C191.811 268.05 191.771 268 191.731 267.95C191.691 267.9 191.651 267.86 191.601 267.81C191.401 267.61 191.131 267.46 190.841 267.39C190.761 267.38 190.681 267.36 190.601 267.36L181.211 266.98C182.381 264.66 184.501 262.16 186.211 260.89C186.591 261.02 187.231 261.37 187.651 261.6C188.831 262.24 189.831 262.8 190.861 262.65C191.571 262.55 192.401 262.21 193.281 261.86C193.961 261.58 195.151 261.1 195.751 261.04C195.811 261.23 195.881 261.46 195.941 261.64C196.261 262.7 196.571 263.7 197.441 264.14L197.661 264.25L199.481 265.19C200.441 267.07 202.291 266.83 203.541 266.67C204.871 266.5 206.521 266.28 208.811 267.27C209.301 267.48 209.871 267.42 210.301 267.1L216.691 262.35L217.001 262.12C217.231 261.94 217.811 261.49 218.261 261.22L220.141 263.41C220.751 264.12 221.801 264.44 223.231 264.82C223.491 264.9 223.811 264.98 224.011 265.05C224.161 265.29 224.351 265.83 224.481 266.17C224.831 267.12 225.161 268.02 225.861 268.58L230.161 271.93C229.741 276.4 229.741 280.6 229.751 284.67C229.751 292.21 229.771 299.34 227.121 307.56L223.361 313.55C222.671 314.64 221.331 316.24 220.031 317.51C219.261 317.38 217.301 316.13 216.481 315.22C216.031 314.71 215.301 314.57 214.701 314.87L211.951 316.23C211.841 316 211.721 315.72 211.621 315.49C210.991 314.03 210.121 312.04 208.381 310.58C207.721 310.04 206.751 309.89 205.561 310.16C204.361 310.43 202.761 311.17 202.221 312.36C201.131 314.75 201.831 316.63 202.291 317.87C202.401 318.15 202.541 318.53 202.571 318.72C202.551 318.74 202.531 318.75 202.501 318.78L202.201 318.97C202.131 319.02 202.051 319.07 201.971 319.12C200.721 319.94 199.091 321.14 199.881 322.7L200.951 324.81L197.271 333.41C196.961 334.14 196.821 335.15 196.761 336.33C196.651 336.24 196.551 336.15 196.451 336.04L196.871 330.54V330.51L197.111 327.42V327.32C197.121 326.69 197.041 326 196.891 325.29C196.861 325.12 196.821 324.94 196.781 324.76C196.611 324.05 196.401 323.33 196.141 322.59C195.851 321.71 195.511 320.82 195.161 319.95C195.131 319.87 195.101 319.8 195.071 319.72ZM216.381 342.27C214.941 341.9 214.171 341.66 213.361 341.66C212.741 341.66 212.101 341.8 211.131 342.13C209.771 342.6 208.321 342.8 206.841 342.8C204.361 342.8 201.831 342.25 199.621 341.53C199.621 341.51 199.641 341.48 199.651 341.45C199.681 341.36 199.691 341.27 199.701 341.17C199.701 341.15 199.701 341.12 199.701 341.1V341.03C199.701 340.63 199.701 340.09 199.701 339.48C199.701 338.77 199.681 337.74 199.721 336.79C199.761 335.86 199.841 335 200.021 334.59L203.971 325.35C204.151 324.94 204.131 324.48 203.931 324.08L202.931 322.1C203.241 321.87 203.641 321.61 203.841 321.48L204.181 321.25C206.231 319.85 205.491 317.88 205.091 316.82C204.711 315.79 204.381 314.9 204.911 313.68C205.201 313.39 206.151 313.03 206.601 313.02C207.701 314.02 208.341 315.49 208.861 316.69C209.421 317.99 209.871 319.02 210.911 319.4C211.431 319.59 212.001 319.55 212.531 319.29L215.091 318.02C216.331 319.08 218.411 320.46 220.041 320.52C220.981 320.56 221.581 320.18 221.921 319.86C223.441 318.39 225.041 316.49 225.891 315.14L229.751 308.99C229.821 308.89 229.871 308.78 229.911 308.66C232.761 299.91 232.751 292.51 232.741 284.66C232.741 280.42 232.741 276.04 233.221 271.41C233.281 270.9 233.061 270.39 232.651 270.07L227.771 266.28C227.641 266.12 227.421 265.5 227.291 265.14C226.871 264 226.441 262.82 225.361 262.35C224.991 262.19 224.531 262.07 223.991 261.93C223.511 261.8 222.641 261.56 222.351 261.39L220.021 258.69C218.631 257.08 216.461 258.74 215.161 259.74L209.171 264.19C206.541 263.25 204.521 263.51 203.151 263.69C202.801 263.74 202.341 263.79 202.121 263.79C202.101 263.75 202.081 263.7 202.061 263.63C201.931 263.26 201.671 262.95 201.321 262.77L200.641 262.42C200.841 259.13 202.411 256.85 205.671 255.36L209.371 251.03C211.661 248.35 211.811 239.88 208.711 238.96C208.151 238.8 207.471 238.72 206.691 238.72C203.201 238.72 197.971 240.39 195.371 243.62C195.181 243.86 195.001 244.11 194.841 244.37C194.601 244.75 194.391 245.16 194.231 245.58C193.991 246.2 193.701 246.85 193.371 247.48C193.131 247.96 192.851 248.43 192.561 248.87C192.371 249.17 192.171 249.46 191.971 249.73C191.761 250 191.551 250.26 191.331 250.49C191.121 250.73 190.891 250.94 190.671 251.13C190.441 251.32 190.211 251.48 189.981 251.62C189.871 251.68 189.761 251.74 189.641 251.79C189.241 251.96 188.841 252.09 188.441 252.17C188.041 252.26 187.631 252.3 187.231 252.3C184.681 252.3 182.111 250.74 180.031 248.53C179.741 248.21 179.451 247.89 179.171 247.55C178.901 247.21 178.631 246.86 178.381 246.5C178.121 246.14 177.881 245.77 177.661 245.4C177.441 245.03 177.231 244.65 177.031 244.27C176.741 243.7 176.481 243.12 176.271 242.55C176.121 242.16 176.001 241.78 175.891 241.4C175.511 240.07 175.381 238.79 175.551 237.66C175.731 236.45 177.961 234.15 176.421 233.07C173.811 231.23 171.871 229.14 171.101 226.76C170.311 224.31 172.061 221.44 172.381 218.81C172.381 218.74 172.401 218.67 172.381 218.6C172.411 218.16 172.361 217.67 172.271 217.16C172.201 216.73 172.091 216.28 171.991 215.82C171.841 215.14 171.691 214.44 171.621 213.76C171.601 213.52 171.591 213.28 171.591 213.05C171.591 212.79 171.611 212.53 171.651 212.28C171.671 212.13 171.701 211.98 171.741 211.84C171.811 211.57 171.911 211.32 172.041 211.07C172.171 210.82 172.341 210.59 172.541 210.36C172.651 210.25 172.761 210.14 172.881 210.03C174.791 208.37 178.041 208.1 180.931 208.1C181.421 208.1 181.901 208.1 182.361 208.1C191.281 208.31 188.401 213.78 194.751 220.51L194.261 226.03C203.491 229.49 200.251 235.58 203.731 235.58C203.841 235.58 203.951 235.58 204.071 235.56C204.841 235.49 205.981 233.89 206.601 233.38L213.251 227.98C212.911 223.96 214.181 219.87 215.611 217.55C215.851 217.85 216.141 218.11 216.491 218.3C217.051 218.74 217.711 218.96 218.381 218.96C218.971 218.96 219.561 218.79 220.061 218.44C220.061 218.46 220.091 218.49 220.101 218.51L223.201 220.65C223.441 225.64 227.021 225.53 228.661 227.72C228.791 227.89 228.911 228.08 229.011 228.29C229.271 228.81 229.441 229.44 229.471 230.25C229.501 231.17 230.411 233.13 231.061 233.13C231.131 233.13 231.201 233.11 231.261 233.06L234.041 230.86C237.141 233.48 240.121 234.32 243.001 234.32C248.271 234.32 253.191 231.49 257.821 231.49C258.851 231.49 259.871 231.63 260.871 231.97L267.621 234.29L270.571 223.65C272.561 216.48 270.601 213.43 273.091 210.67C274.841 208.73 274.231 206.3 272.371 205.01C271.801 204.61 270.231 202.7 270.871 202.47L274.271 201.25C274.611 201.13 274.931 200.91 275.241 200.61C276.571 199.34 277.621 196.64 278.281 194.36L286.081 193.97L291.761 180.34C293.551 176.06 297.911 172.73 301.621 169.42C304.691 172.4 304.941 175.36 305.351 179.54C305.441 179.6 305.601 179.63 305.811 179.63C306.701 179.63 308.401 179.13 308.721 178.39C309.041 177.64 309.461 175.55 309.391 174.72L308.131 161.49L311.801 160.25C312.631 159.97 312.241 157.06 312.721 156.23C314.491 153.17 316.991 148.74 315.461 145.03C314.541 142.81 314.461 140.85 315.201 139.04C315.371 138.64 315.581 138.24 315.831 137.85C316.081 137.46 316.371 137.08 316.701 136.7H316.711L314.251 132.31L326.291 132.29H326.751C329.421 132.29 331.771 132.39 334.161 133.24C334.561 133.38 334.961 133.55 335.361 133.74C335.771 133.93 336.181 134.15 336.591 134.39C337.021 134.31 337.441 134.17 337.851 134C338.051 133.91 338.261 133.82 338.451 133.71C338.851 133.5 339.231 133.25 339.591 132.97C339.781 132.83 339.951 132.68 340.131 132.52C342.921 130.03 344.701 125.64 344.561 122.18C345.561 122.25 346.601 122.31 347.611 122.31C350.091 122.31 352.411 121.96 353.631 120.47C356.331 117.21 356.551 112.85 356.931 108.79L363.781 106.33L365.091 97.7302L372.241 95.1902C372.861 95.5902 373.681 95.4802 374.171 94.9302L374.521 94.9102H374.541C374.541 94.9102 374.521 94.9102 374.511 94.9102L375.281 94.9902H375.361L381.881 98.0402C382.861 98.5002 384.151 98.6102 385.461 98.6102C386.581 98.6102 387.711 98.5302 388.691 98.5302C390.091 98.5302 391.171 98.6802 391.441 99.4302L391.901 101.15V101.2C391.901 101.2 391.911 101.27 391.921 101.3H391.891L387.571 101.33L388.351 105.13C388.371 105.23 388.371 105.33 388.341 105.42C388.341 105.45 388.321 105.48 388.301 105.51C388.261 105.62 388.181 105.71 388.071 105.8C388.011 105.85 387.941 105.9 387.861 105.95C387.811 105.98 387.751 106.01 387.691 106.04C387.601 106.09 387.511 106.13 387.401 106.17C387.311 106.21 387.211 106.24 387.111 106.28C386.891 106.35 386.651 106.42 386.401 106.5C386.311 106.52 386.211 106.55 386.111 106.58C386.111 106.58 386.091 106.58 386.071 106.59C385.891 106.64 385.701 106.69 385.511 106.74C385.361 106.78 385.201 106.82 385.051 106.87C384.891 106.91 384.741 106.96 384.581 107.01C384.481 107.04 384.371 107.07 384.271 107.1C383.981 107.19 383.711 107.3 383.441 107.4C383.411 107.42 383.381 107.43 383.351 107.44C383.321 107.44 383.291 107.46 383.261 107.47C383.221 107.49 383.181 107.5 383.141 107.52C383.061 107.56 382.981 107.59 382.911 107.63C382.861 107.65 382.821 107.68 382.771 107.7C382.701 107.74 382.641 107.78 382.571 107.82C382.461 107.88 382.361 107.94 382.261 108C382.261 108 382.261 108 382.261 108.01C382.091 108.11 381.941 108.23 381.801 108.37C381.731 108.43 381.661 108.5 381.601 108.57C381.401 108.78 381.251 109.01 381.131 109.27C381.071 109.4 381.051 109.54 381.051 109.69C381.051 109.79 381.051 109.89 381.081 109.99V110.01C381.101 110.11 381.131 110.22 381.171 110.33C381.211 110.44 381.251 110.56 381.301 110.68C381.411 110.96 381.561 111.25 381.711 111.55C381.811 111.77 381.931 111.98 382.031 112.2C382.101 112.33 382.161 112.46 382.221 112.59H382.211L377.761 113.13C377.711 113.13 377.651 113.15 377.601 113.18C377.551 113.21 377.511 113.25 377.461 113.3C377.421 113.33 377.371 113.39 377.341 113.46L377.281 113.58C377.281 113.58 377.241 113.67 377.221 113.72C377.191 113.81 377.161 113.91 377.141 114.02C377.121 114.13 377.101 114.25 377.091 114.37C377.081 114.49 377.071 114.6 377.071 114.72C377.071 115.24 377.171 115.76 377.341 116.1C377.371 116.16 377.401 116.2 377.441 116.25C377.471 116.3 377.511 116.34 377.541 116.37H377.551L380.401 118.82C381.071 119.39 379.991 122.07 379.901 122.94L380.831 130.08L375.981 130.58H375.971L372.271 138.38C372.131 138.68 372.001 139.12 371.901 139.61C371.731 140.44 371.671 141.39 371.851 141.89C371.861 141.93 371.881 141.96 371.901 141.99C371.931 142.03 371.971 142.07 372.011 142.09C372.041 142.12 372.071 142.14 372.111 142.15C372.151 142.17 372.181 142.19 372.221 142.2C372.301 142.23 372.401 142.25 372.501 142.26C372.621 142.28 372.741 142.29 372.871 142.29C372.981 142.29 373.091 142.29 373.211 142.27C373.421 142.27 373.641 142.24 373.861 142.21C374.071 142.18 374.281 142.15 374.471 142.13C374.471 142.13 374.491 142.13 374.501 142.12C374.611 142.12 374.711 142.09 374.811 142.08C374.901 142.08 374.991 142.05 375.081 142.05C375.161 142.04 375.241 142.03 375.311 142.03C375.401 142.09 375.491 142.15 375.581 142.23C375.611 142.25 375.631 142.27 375.651 142.29C375.741 142.38 375.831 142.47 375.911 142.57C375.951 142.62 375.991 142.67 376.021 142.72C376.071 142.78 376.101 142.84 376.141 142.9C376.171 142.96 376.211 143.02 376.241 143.08C376.271 143.14 376.311 143.2 376.331 143.27C376.391 143.4 376.441 143.53 376.491 143.67C376.541 143.81 376.581 143.95 376.611 144.1C376.651 144.24 376.671 144.37 376.691 144.51C376.691 144.56 376.711 144.61 376.711 144.66C376.731 144.78 376.741 144.9 376.751 145.02C376.771 145.28 376.771 145.55 376.751 145.82C376.751 145.9 376.751 145.98 376.751 146.06C376.711 146.42 376.661 146.78 376.571 147.12C376.571 147.15 376.551 147.18 376.551 147.2C376.521 147.28 376.501 147.36 376.481 147.43C376.441 147.56 376.401 147.69 376.351 147.81C376.341 147.83 376.341 147.84 376.331 147.86C376.331 147.86 376.321 147.88 376.311 147.89C376.281 147.96 376.251 148.02 376.221 148.09C376.191 148.16 376.161 148.22 376.131 148.28C376.091 148.36 376.051 148.43 376.001 148.5C375.961 148.57 375.911 148.64 375.861 148.71C375.831 148.75 375.801 148.79 375.781 148.82C375.741 148.88 375.691 148.93 375.641 148.98C375.611 149.01 375.581 149.05 375.551 149.08C375.551 149.09 375.531 149.1 375.521 149.11C375.471 149.16 375.421 149.2 375.371 149.24C375.291 149.31 375.211 149.37 375.131 149.42C375.091 149.45 375.061 149.47 375.021 149.49C374.941 149.54 374.861 149.58 374.781 149.61C374.611 149.26 374.301 148.8 373.911 148.34C373.751 148.16 373.591 147.97 373.411 147.79C373.321 147.7 373.231 147.6 373.141 147.52C373.011 147.39 372.881 147.27 372.751 147.16C372.611 147.04 372.471 146.93 372.331 146.83H372.321C371.861 146.49 371.431 146.27 371.081 146.27C371.031 146.27 370.981 146.28 370.941 146.28C369.901 147.61 370.061 150.23 370.601 151.88C368.431 154.04 366.791 156.47 365.821 159.21C365.631 159.76 365.461 160.32 365.331 160.89C365.051 162.04 364.891 163.24 364.851 164.49L364.651 171.2C364.961 171.04 365.241 170.84 365.481 170.62L365.521 170.58C365.581 170.53 365.621 170.49 365.671 170.43C365.751 170.35 365.821 170.28 365.881 170.19C365.991 170.07 366.081 169.94 366.171 169.8C366.181 169.79 366.181 169.78 366.191 169.77C366.281 169.63 366.371 169.47 366.441 169.31C366.461 169.28 366.481 169.25 366.491 169.22C366.491 169.21 366.501 169.21 366.501 169.2C366.561 169.08 366.611 168.95 366.661 168.82C366.731 168.65 366.791 168.47 366.841 168.29C366.901 168.11 366.951 167.93 366.991 167.74C367.031 167.56 367.071 167.37 367.111 167.17C367.141 167.01 367.161 166.84 367.191 166.67C367.191 166.64 367.191 166.61 367.191 166.57C367.221 166.37 367.241 166.17 367.261 165.96C367.281 165.76 367.301 165.55 367.311 165.34C367.321 165.16 367.341 164.98 367.351 164.79C367.361 164.6 367.371 164.42 367.381 164.23C367.381 163.97 367.411 163.7 367.421 163.44C367.421 163.22 367.441 163.01 367.451 162.8C367.461 162.53 367.471 162.26 367.491 161.99C367.511 161.64 367.541 161.28 367.581 160.94C367.601 160.74 367.621 160.54 367.651 160.35C367.671 160.16 367.701 159.97 367.741 159.79V159.77C367.781 159.58 367.811 159.4 367.861 159.23C367.901 159.06 367.941 158.9 367.991 158.74C367.991 158.72 368.011 158.7 368.011 158.69C368.051 158.56 368.091 158.44 368.141 158.32C368.231 158.1 368.321 157.9 368.431 157.71C368.461 157.65 368.491 157.6 368.531 157.55C368.531 157.54 368.551 157.52 368.561 157.51C368.581 157.46 368.611 157.42 368.631 157.38C368.661 157.34 368.691 157.3 368.721 157.26C369.091 156.77 369.561 156.38 370.191 156.13C370.331 156.08 370.481 156.02 370.641 155.98C370.691 155.96 370.751 155.95 370.801 155.94C370.881 155.92 370.961 155.9 371.041 155.89C371.121 155.87 371.211 155.86 371.301 155.84H371.341C371.341 155.84 371.451 155.84 371.501 155.87C371.501 155.88 371.531 155.88 371.541 155.89C371.611 155.91 371.681 155.94 371.751 155.98C371.821 156.02 371.891 156.07 371.961 156.12C372.041 156.19 372.111 156.25 372.181 156.32C372.311 156.45 372.431 156.59 372.521 156.73C372.561 156.82 372.601 156.89 372.621 156.96C372.671 157.08 372.681 157.2 372.621 157.29L371.191 160.2L370.911 161.76L369.341 170.57C369.491 170.75 369.631 170.94 369.781 171.14C369.911 171.31 370.041 171.49 370.171 171.68C370.181 171.7 370.191 171.71 370.211 171.73C370.361 171.96 370.521 172.2 370.671 172.44C370.751 172.57 370.831 172.71 370.901 172.84C370.951 172.92 371.001 173 371.041 173.08C371.081 173.15 371.121 173.23 371.161 173.31C371.231 173.44 371.291 173.58 371.351 173.71C371.481 173.98 371.581 174.24 371.661 174.5C371.711 174.68 371.751 174.85 371.781 175.01C371.791 175.04 371.791 175.06 371.791 175.09C371.791 175.11 371.791 175.12 371.791 175.14C371.801 175.2 371.811 175.27 371.811 175.33C371.821 175.46 371.811 175.58 371.781 175.69C371.771 175.75 371.751 175.81 371.731 175.86C371.731 175.91 371.701 175.96 371.671 176.01C371.661 176.06 371.641 176.09 371.621 176.13C371.591 176.19 371.561 176.23 371.531 176.28C371.451 176.41 371.361 176.52 371.231 176.63C371.131 176.72 371.021 176.81 370.901 176.88C370.871 176.91 370.841 176.92 370.811 176.94C370.731 176.99 370.651 177.03 370.571 177.07C370.491 177.11 370.411 177.15 370.321 177.18C370.231 177.22 370.141 177.25 370.051 177.28C369.951 177.31 369.861 177.34 369.761 177.36C369.661 177.39 369.551 177.41 369.451 177.43C369.141 177.49 368.821 177.52 368.491 177.52C367.681 177.52 366.831 177.35 366.051 176.97L364.541 181.59L363.541 182.74C363.441 182.84 363.341 182.95 363.231 183.07C363.171 183.14 363.101 183.21 363.041 183.29C362.841 183.51 362.641 183.76 362.451 184.02C362.391 184.1 362.321 184.19 362.261 184.28C362.071 184.54 361.891 184.81 361.751 185.07C361.541 185.45 361.391 185.81 361.361 186.1L363.681 187.15L366.231 188.32H366.241L370.481 186.69H370.491L370.731 192.19L370.811 194.07C370.701 194.12 370.591 194.19 370.471 194.27C369.151 195.15 368.741 196.9 369.531 198.27C369.771 198.68 370.101 199.01 370.471 199.25C370.471 199.26 370.461 199.28 370.461 199.29C370.431 199.41 370.411 199.54 370.391 199.66C370.351 199.91 370.321 200.15 370.301 200.4C370.291 200.5 370.281 200.6 370.281 200.69C370.271 200.95 370.271 201.22 370.281 201.47C370.301 201.75 370.331 202.02 370.371 202.28C370.401 202.44 370.431 202.59 370.471 202.74C370.491 202.83 370.521 202.91 370.551 202.99C370.621 203.21 370.711 203.4 370.811 203.56C370.861 203.64 370.911 203.72 370.971 203.78L374.331 203.74C374.251 203.91 374.161 204.08 374.081 204.24C370.021 212.57 375.581 217.32 371.441 227.61C369.831 231.61 370.811 237.37 371.421 241.85L370.831 246.45C370.721 247.35 369.741 249.03 369.091 249.6C368.701 249.95 368.351 250.1 368.031 250.1C367.761 250.1 367.501 249.99 367.261 249.81C367.141 249.71 367.021 249.6 366.901 249.48C366.821 249.4 366.741 249.31 366.671 249.21L366.651 249.19C366.561 249.08 366.471 248.96 366.381 248.83C366.381 248.83 366.371 248.83 366.371 248.81C366.261 248.64 366.141 248.47 366.031 248.28C365.971 248.18 365.911 248.09 365.851 247.99C365.791 247.9 365.731 247.8 365.681 247.7C365.561 247.5 365.441 247.3 365.321 247.09C365.221 246.92 365.121 246.75 365.021 246.58C365.021 246.58 365.021 246.56 365.001 246.55C364.961 246.48 364.911 246.42 364.871 246.35C364.831 246.28 364.791 246.22 364.761 246.16C364.711 246.1 364.671 246.04 364.641 245.97C364.581 245.89 364.531 245.81 364.481 245.73C364.391 245.62 364.311 245.5 364.241 245.39C364.141 245.26 364.031 245.13 363.931 245C363.851 244.91 363.781 244.82 363.701 244.74C363.621 244.65 363.551 244.57 363.471 244.5C363.331 244.36 363.201 244.24 363.061 244.14C363.041 244.14 363.031 244.11 363.011 244.1C362.921 244.03 362.831 243.96 362.731 243.9C362.731 243.9 362.671 243.86 362.641 243.84C362.621 243.83 362.611 243.82 362.591 243.82C362.531 243.78 362.461 243.75 362.401 243.71C362.381 243.71 362.351 243.71 362.331 243.69C362.141 243.6 361.951 243.54 361.741 243.51C361.661 243.5 361.581 243.49 361.501 243.48C361.411 243.47 361.331 243.46 361.241 243.46C361.141 243.46 361.031 243.47 360.921 243.48L362.111 252.01L366.281 254.19C366.221 254.68 366.091 255.15 365.901 255.6C365.831 255.78 365.751 255.96 365.661 256.13C365.341 256.75 364.951 257.33 364.551 257.91L364.101 258.54C364.021 258.66 363.941 258.77 363.861 258.89C363.691 259.13 363.531 259.37 363.381 259.61C363.281 259.77 363.181 259.94 363.081 260.11C363.001 260.27 362.911 260.43 362.841 260.59C362.801 260.67 362.761 260.76 362.731 260.85C362.491 261.44 362.361 262.04 362.421 262.67C362.421 262.77 362.441 262.88 362.461 262.98C362.511 263.29 362.611 263.61 362.771 263.93C362.871 264.15 362.991 264.37 363.151 264.59C363.221 264.7 363.301 264.81 363.401 264.93L367.161 263.03L367.091 260.25L370.201 256.42L371.621 261.57C371.621 261.57 371.651 261.68 371.681 261.74C371.771 261.98 371.911 262.28 372.051 262.55C372.161 262.76 372.261 262.93 372.351 263.07L373.531 263.1L374.831 263.08L375.901 261.3L376.061 259.56L376.261 259.01L376.821 257.47L376.941 256.93L377.071 256.38C377.011 256.27 376.951 256.15 376.891 256.04C376.831 255.93 376.781 255.81 376.741 255.7C376.681 255.57 376.631 255.44 376.591 255.31C376.541 255.19 376.511 255.06 376.471 254.94C376.281 254.25 376.211 253.55 376.291 252.87C376.291 252.78 376.311 252.68 376.341 252.59C376.361 252.49 376.381 252.4 376.401 252.31C376.421 252.22 376.451 252.12 376.481 252.03C376.511 251.94 376.541 251.85 376.591 251.76C376.621 251.68 376.651 251.61 376.691 251.53C376.741 251.43 376.791 251.33 376.851 251.23C376.951 251.06 377.071 250.89 377.201 250.73C377.301 250.61 377.401 250.49 377.521 250.38C377.631 250.26 377.761 250.15 377.891 250.04C378.021 249.94 378.171 249.83 378.321 249.73C378.471 249.63 378.631 249.53 378.801 249.44L380.931 252.6C382.271 254.6 383.251 255.79 385.641 257.29C387.101 258.24 389.301 261.09 390.491 263.04C390.491 263.72 388.981 264.95 388.261 264.95C388.191 264.95 388.121 264.95 388.071 264.91L384.041 262.83L384.631 270.25L384.741 286.16L380.241 285.51H380.181C380.131 285.51 380.081 285.51 380.021 285.54C379.971 285.56 379.911 285.58 379.861 285.63C379.811 285.65 379.761 285.69 379.711 285.75C379.671 285.78 379.641 285.81 379.611 285.85C379.581 285.87 379.551 285.9 379.531 285.94C379.471 286 379.421 286.07 379.371 286.15C379.321 286.22 379.271 286.3 379.221 286.38C378.861 286.95 378.511 287.69 378.151 288.17C378.091 288.24 378.041 288.3 377.991 288.36C377.891 288.48 377.791 288.56 377.691 288.61C373.751 290.55 369.901 294.47 368.871 297.28C368.381 298.59 369.571 301.76 370.681 302.9C371.891 304.13 372.851 307.04 372.631 309.24C372.611 309.45 372.571 309.65 372.531 309.85C372.481 310.08 372.411 310.29 372.331 310.48C372.241 310.71 372.131 310.91 372.001 311.09C371.941 311.18 371.871 311.27 371.791 311.35C371.721 311.43 371.641 311.5 371.551 311.57C371.501 311.61 371.461 311.64 371.411 311.67C371.381 311.7 371.341 311.72 371.311 311.73C371.181 311.81 371.031 311.88 370.871 311.93C370.691 311.99 370.491 312.03 370.271 312.05L359.881 313.04L356.991 312.69H356.961C356.041 312.69 357.551 318.97 355.181 319.63C354.931 319.7 354.641 319.74 354.331 319.74C352.901 319.74 351.051 319.05 350.411 318.21C349.471 316.98 348.861 316.31 348.301 315.92C348.251 315.89 348.191 315.87 348.111 315.87C347.421 315.87 345.891 317.47 346.251 318.09C346.341 318.24 346.431 318.41 346.521 318.59C346.701 318.96 346.871 319.37 347.041 319.82C347.121 320.04 347.191 320.28 347.271 320.52C347.301 320.64 347.341 320.76 347.371 320.89C347.431 321.13 347.491 321.39 347.551 321.64C347.601 321.9 347.641 322.16 347.671 322.43C347.711 322.69 347.731 322.96 347.741 323.23C347.761 323.59 347.751 323.96 347.721 324.32C347.721 324.49 347.691 324.66 347.661 324.82L347.631 325C347.611 325.11 347.591 325.22 347.561 325.33C347.561 325.36 347.551 325.38 347.541 325.41C347.501 325.6 347.441 325.79 347.371 325.98C347.311 326.16 347.241 326.33 347.151 326.51C347.151 326.54 347.121 326.57 347.101 326.61C347.031 326.75 346.951 326.89 346.861 327.03C346.861 327.03 346.861 327.05 346.831 327.07C346.811 327.11 346.781 327.16 346.751 327.2C346.691 327.29 346.621 327.39 346.541 327.48C346.521 327.51 346.501 327.53 346.481 327.55C346.351 327.71 346.211 327.86 346.061 328C345.971 328.09 345.871 328.17 345.781 328.25C345.681 328.33 345.581 328.4 345.471 328.48C345.381 328.48 345.301 328.48 345.211 328.48C341.061 328.48 338.451 324.84 332.981 324.84C332.201 324.84 331.361 324.92 330.461 325.08C328.611 329.87 329.021 333.5 329.601 336.58C329.841 337.89 330.111 339.09 330.251 340.24C330.431 341.68 330.411 343.03 329.871 344.39C329.471 345.4 328.781 346.41 327.681 347.45C327.041 348.07 325.211 348.75 323.941 348.75C323.511 348.75 323.151 348.67 322.921 348.48C322.011 347.75 321.461 346.33 320.101 343.84L318.711 349.09C316.031 350.41 313.291 352.35 311.941 354.52L315.051 356.58C315.331 356.77 315.521 357.23 315.641 357.77C315.761 358.33 315.821 358.96 315.831 359.47C315.831 359.7 315.821 359.9 315.811 360.06H315.381C314.221 360.06 313.311 360.14 312.521 360.35H312.501C311.151 360.7 310.191 361.41 309.071 362.68C308.971 362.79 308.871 362.91 308.761 363.04L303.451 366.57C303.121 366.79 302.771 366.98 302.391 367.15C301.101 367.76 299.541 368.15 297.951 368.5C297.261 368.65 296.571 368.79 295.891 368.94H295.881C294.081 369.33 292.371 369.76 291.091 370.46L287.911 372.77C287.851 372.82 287.771 372.84 287.691 372.84C286.781 372.84 285.071 369.83 285.611 368.98C285.731 368.8 285.841 368.63 285.971 368.47C286.011 368.4 286.061 368.34 286.111 368.28C286.111 368.26 286.141 368.24 286.151 368.22C286.301 368.02 286.451 367.84 286.621 367.67C286.651 367.62 286.691 367.57 286.741 367.53C286.861 367.39 286.981 367.26 287.121 367.14C287.351 366.9 287.601 366.67 287.861 366.45C288.111 366.24 288.371 366.04 288.631 365.85C288.891 365.66 289.151 365.48 289.421 365.31C289.771 365.08 290.141 364.86 290.501 364.66C290.861 364.46 291.231 364.26 291.591 364.07C292.141 363.79 292.681 363.53 293.211 363.26C293.381 363.18 293.561 363.09 293.731 363C294.071 362.83 294.411 362.65 294.731 362.47C294.891 362.38 295.051 362.29 295.211 362.19C295.361 362.11 295.511 362.02 295.651 361.92C295.981 361.72 296.291 361.5 296.581 361.26C296.691 361.18 296.801 361.09 296.901 360.98C297.031 360.88 297.151 360.76 297.261 360.64C298.471 359.36 299.061 357.64 298.511 354.92L297.501 349.89C297.481 349.81 297.451 349.73 297.411 349.66C297.391 349.63 297.371 349.59 297.341 349.56C297.311 349.53 297.291 349.5 297.251 349.47C297.191 349.42 297.131 349.38 297.061 349.34C297.031 349.31 296.991 349.29 296.941 349.27C296.921 349.26 296.901 349.25 296.881 349.25C296.831 349.23 296.791 349.2 296.731 349.19C296.691 349.17 296.651 349.16 296.611 349.15C296.551 349.13 296.491 349.11 296.431 349.1C296.371 349.08 296.301 349.07 296.231 349.05C296.161 349.03 296.091 349.02 296.021 349.01C295.961 349.01 295.891 348.99 295.821 348.98C295.761 348.98 295.681 348.96 295.611 348.95C295.541 348.95 295.471 348.95 295.401 348.93C295.331 348.92 295.261 348.91 295.181 348.91C295.031 348.9 294.871 348.89 294.711 348.88C294.421 348.86 294.121 348.85 293.831 348.84C293.691 348.84 293.541 348.84 293.391 348.82C293.111 348.82 292.851 348.8 292.601 348.78C292.341 348.76 292.111 348.74 291.911 348.7L274.761 345.58C273.241 343.22 275.371 338.59 278.151 338.59H278.301C280.321 342.38 282.731 342.54 286.721 343.11C289.141 343.46 292.121 344.28 294.761 344.28C296.001 344.28 297.161 344.1 298.161 343.61C298.231 341.68 299.421 337.93 300.961 337.74C301.121 337.72 301.271 337.71 301.421 337.71C305.501 337.71 305.291 345.06 307.921 345.06C308.111 345.06 308.321 345.02 308.551 344.93C308.561 344.73 308.571 344.53 308.571 344.34C308.571 344.14 308.571 343.95 308.551 343.76C308.531 343.51 308.501 343.27 308.461 343.04C308.441 342.89 308.411 342.74 308.371 342.6C308.341 342.42 308.291 342.26 308.241 342.1C308.191 341.93 308.131 341.76 308.071 341.6C307.951 341.27 307.801 340.96 307.631 340.67C307.561 340.54 307.481 340.41 307.401 340.28C306.951 339.57 306.401 338.94 305.821 338.36C305.591 338.13 305.351 337.91 305.121 337.7C304.881 337.48 304.641 337.28 304.401 337.08C304.171 336.87 303.931 336.67 303.701 336.48C303.471 336.28 303.241 336.08 303.021 335.89C302.801 335.69 302.591 335.49 302.401 335.29C302.251 335.13 302.101 334.97 301.961 334.81C301.901 334.73 301.831 334.65 301.771 334.57C301.701 334.49 301.641 334.4 301.591 334.32C301.521 334.22 301.461 334.12 301.391 334.01C301.311 333.86 301.231 333.7 301.171 333.54C301.131 333.43 301.101 333.34 301.071 333.23C301.021 333.08 300.991 332.92 300.971 332.76C300.971 332.64 300.951 332.53 300.951 332.41C300.951 332.17 300.981 331.92 301.041 331.66C301.081 331.49 301.131 331.33 301.181 331.18C301.241 331.04 301.301 330.91 301.371 330.79C301.401 330.73 301.441 330.67 301.471 330.62C301.591 330.45 301.711 330.32 301.851 330.2C301.961 330.11 302.071 330.03 302.191 329.97C302.341 329.89 302.501 329.82 302.671 329.77C302.751 329.74 302.841 329.71 302.931 329.69C302.931 329.69 302.961 329.69 302.981 329.69C303.061 329.67 303.131 329.66 303.211 329.64C303.341 329.62 303.471 329.6 303.601 329.58C303.771 329.56 303.951 329.54 304.131 329.52C304.281 329.52 304.441 329.49 304.601 329.48C304.691 329.47 304.781 329.46 304.871 329.45C305.121 329.43 305.371 329.4 305.621 329.36C306.291 329.25 306.961 329.06 307.571 328.67C307.641 328.63 307.661 328.37 307.641 327.96C307.641 327.88 307.641 327.8 307.631 327.72C307.621 327.63 307.621 327.54 307.611 327.45C307.591 327.31 307.581 327.16 307.561 327C307.551 326.92 307.531 326.84 307.521 326.75C307.511 326.66 307.491 326.58 307.481 326.49C307.441 326.25 307.401 326 307.351 325.74C307.271 325.34 307.171 324.93 307.061 324.5C307.011 324.33 306.961 324.15 306.911 323.97C306.841 323.72 306.771 323.46 306.671 323.19C306.631 323.04 306.581 322.89 306.521 322.74C306.471 322.59 306.411 322.44 306.351 322.28C306.291 322.13 306.231 321.98 306.171 321.82C306.051 321.53 305.911 321.23 305.771 320.94C305.681 320.75 305.581 320.57 305.491 320.39C305.431 320.28 305.371 320.18 305.311 320.08C305.191 319.87 305.061 319.66 304.931 319.47C304.831 319.32 304.731 319.17 304.621 319.02C304.581 318.97 304.551 318.93 304.521 318.89C304.451 318.8 304.371 318.71 304.301 318.62C304.231 318.53 304.151 318.44 304.071 318.36C303.951 318.22 303.811 318.08 303.671 317.95C303.541 317.82 303.391 317.7 303.251 317.58C303.131 317.48 303.011 317.4 302.891 317.32C302.781 317.23 302.661 317.16 302.541 317.09C302.521 317.08 302.511 317.07 302.501 317.07C302.401 317.01 302.291 316.96 302.191 316.91C302.031 316.83 301.881 316.77 301.721 316.71L302.561 322.78L298.071 322.66L287.631 320.82C289.291 317.84 291.871 316.15 294.881 316.15C295.051 316.15 295.221 316.15 295.391 316.17C295.511 316.17 295.641 316.17 295.771 316.2C295.881 316.2 295.981 316.22 296.081 316.24C296.121 316.24 296.161 316.24 296.201 316.26C296.451 316.29 296.691 316.34 296.941 316.4C297.181 316.46 297.421 316.53 297.661 316.61C297.841 316.67 298.031 316.73 298.221 316.8H298.231C298.231 316.8 298.251 316.78 298.261 316.76C298.271 316.75 298.291 316.73 298.291 316.71C298.331 316.67 298.351 316.63 298.361 316.59C298.391 316.55 298.411 316.51 298.431 316.47C298.481 316.36 298.521 316.26 298.561 316.15C298.621 315.97 298.681 315.77 298.731 315.57C298.771 315.43 298.801 315.29 298.831 315.15C298.851 315.08 298.861 315.01 298.871 314.93C298.901 314.79 298.921 314.64 298.931 314.5C299.011 313.8 298.971 313.13 298.751 312.79C298.131 311.85 296.291 310.28 295.691 310.2C294.791 311.16 294.001 311.48 293.171 311.48C291.481 311.48 289.631 310.15 286.451 310.15C285.431 310.15 284.281 310.29 282.961 310.64C282.161 310.48 282.891 308.04 283.481 306.86C288.111 297.61 289.441 301.21 296.131 296.53L297.691 300.3L298.111 301.35L299.431 301.23L299.801 300.18C300.041 299.12 300.591 297.2 301.501 296.66C303.921 295.23 306.071 296.28 309.371 294.97C310.201 294.65 309.271 292.25 308.691 291.5L306.111 287.62L303.451 287.68L300.871 289.74C300.871 289.74 300.831 289.74 300.801 289.74C300.611 289.74 300.201 289.58 300.061 289.57L299.431 295.54L297.201 291.17C297.051 290.88 296.681 290.78 296.231 290.78C295.421 290.78 294.361 291.11 293.951 291.25L293.901 292.35L290.271 292L285.981 291.21L281.421 295.92L278.671 296.28C278.181 296.34 278.031 297.24 278.031 297.98C278.031 298.28 278.051 298.55 278.091 298.73C278.501 298.77 278.661 298.73 278.681 298.96L278.781 300.39C278.781 300.39 278.841 300.36 278.861 300.36C279.171 300.36 279.501 301.56 279.621 302.03L279.721 302.39L279.771 302.6L279.861 302.93L280.011 303.48L280.121 303.87C280.461 305.14 278.601 306.78 277.011 307.55L276.971 315.21L276.121 316.09L274.451 316.18C274.091 316.2 273.421 316.82 273.201 317.16L271.041 320.42L267.731 325.42C265.181 329.27 263.471 334.2 260.101 337.33C258.461 338.86 256.111 339.5 253.691 339.5C251.131 339.5 248.491 338.79 246.471 337.63C245.811 337.24 245.211 336.81 244.711 336.34C242.891 334.63 241.001 333.77 239.121 333.77C237.551 333.77 235.981 334.36 234.451 335.56L229.591 335.96C229.421 339.28 228.341 342.96 225.851 344.2L223.411 345.48L222.091 346.18C222.001 345.64 221.811 345.19 221.531 344.8C220.451 343.24 218.141 342.72 216.321 342.25L216.381 342.27ZM292.601 295.26C291.501 295.85 290.591 296.19 289.711 296.51C287.081 297.48 285.161 298.36 282.791 302.07L282.741 301.88L282.701 301.72C282.701 301.72 282.681 301.65 282.671 301.61L282.581 301.29C282.451 300.78 282.231 299.9 281.761 299.1L281.741 298.93H281.871C282.541 298.83 283.161 298.52 283.631 298.03L287.081 294.48L289.791 294.97C289.871 294.99 289.961 295 290.041 295.01L292.601 295.26ZM302.771 293.04L302.881 292.04L304.591 290.67L305.951 292.72C305.681 292.75 305.401 292.76 305.111 292.78C304.381 292.83 303.601 292.88 302.771 293.04ZM286.821 441.8C286.401 443.12 285.721 444.59 284.771 446.2C284.681 446.36 284.591 446.51 284.491 446.67L284.391 446.83C283.921 447.58 283.471 448.25 283.001 448.89C282.841 449.12 282.681 449.33 282.511 449.56C281.381 451.07 280.121 452.52 278.761 453.91C278.511 454.18 278.251 454.44 277.981 454.71C277.681 454.99 277.371 455.28 277.071 455.56C275.101 457.38 273.061 458.94 271.171 460.07C266.911 462.58 262.781 465.42 261.471 469.27C259.441 475.18 257.171 479.49 252.121 482.72L250.061 484.03C248.231 480.44 249.241 476.75 252.901 473.96C253.321 473.63 253.541 473.12 253.481 472.59C253.421 472.06 253.091 471.61 252.601 471.39C250.641 470.52 249.451 468.81 248.181 467.01C247.211 465.61 246.191 464.16 244.791 463.17L235.441 456.63C234.301 455.84 233.051 455.29 231.871 454.82C231.841 454.82 231.811 454.8 231.781 454.79L231.301 454.59C230.781 454.39 230.271 454.18 229.751 453.94C229.441 453.79 229.121 453.64 228.831 453.48C228.701 453.41 228.561 453.33 228.431 453.26C228.431 453.26 228.411 453.24 228.391 453.23C228.251 453.14 228.111 453.05 227.971 452.96C227.861 452.88 227.751 452.81 227.651 452.71C227.621 452.69 227.591 452.66 227.561 452.64C227.451 452.56 227.351 452.47 227.231 452.35C227.131 452.25 227.021 452.15 226.931 452.04C226.911 452.02 226.891 452 226.871 451.98C226.791 451.88 226.711 451.78 226.641 451.69C226.551 451.57 226.461 451.44 226.361 451.27C226.281 451.14 226.201 450.99 226.131 450.86C226.061 450.71 225.991 450.56 225.901 450.32C225.831 450.17 225.781 450 225.721 449.81C225.601 449.4 225.311 449.06 224.921 448.88C224.531 448.7 224.081 448.7 223.691 448.88L219.381 450.77C217.201 445.65 212.931 440.36 206.771 439.44C206.451 439.39 206.131 439.44 205.851 439.6C205.571 439.75 205.281 439.91 204.991 440.07C203.441 440.94 202.291 441.52 201.191 441.36L204.931 437.6L211.821 430.26L220.981 419.93C222.091 418.68 223.391 417.3 224.701 416.47C225.291 416.09 226.121 415.67 226.741 415.88L234.211 418.41C235.461 418.84 236.801 419.24 238.091 419.62C238.981 419.88 239.871 420.14 240.791 420.43C241.071 420.52 241.351 420.61 241.641 420.71C241.691 420.71 241.741 420.74 241.791 420.75C241.821 420.75 241.851 420.77 241.891 420.79C242.021 420.83 242.151 420.87 242.251 420.9C243.841 421.44 245.111 421.96 246.301 422.57C246.501 422.66 246.691 422.76 246.921 422.89C247.491 423.19 248.021 423.52 248.591 423.92C248.711 424 248.831 424.09 248.991 424.21C249.201 424.36 249.401 424.53 249.591 424.69C249.801 424.86 250.021 425.06 250.181 425.23C250.191 425.25 250.201 425.27 250.221 425.29C250.221 425.26 250.201 425.24 250.181 425.21C250.191 425.24 250.211 425.27 250.231 425.29H250.221C250.221 425.29 250.231 425.3 250.231 425.31C250.241 425.35 250.261 425.39 250.281 425.43V425.51C250.311 425.64 250.311 425.78 250.281 426.04C250.281 426.07 250.281 426.1 250.261 426.14C250.211 426.37 250.131 426.61 250.041 426.81C250.001 426.91 249.961 427.01 249.891 427.15C249.851 427.22 249.821 427.29 249.781 427.36C249.751 427.4 249.721 427.44 249.701 427.49C249.681 427.54 249.651 427.58 249.571 427.71C249.571 427.71 249.511 427.79 249.511 427.8C249.461 427.87 249.421 427.95 249.321 428.08C249.011 428.52 248.631 428.96 248.191 429.37C248.141 429.42 248.081 429.48 247.951 429.58C247.571 429.9 247.311 430.02 247.211 430.06C245.801 430.62 244.391 430.16 242.041 429.3C238.831 428.13 234.451 426.52 228.271 428.86C227.651 429.1 227.251 429.71 227.301 430.38C227.361 431.04 227.841 431.59 228.491 431.73L246.261 435.5C247.091 435.68 248.061 435.94 249.091 436.21C251.151 436.76 253.491 437.39 255.551 437.57C256.611 437.67 257.571 437.65 258.381 437.48L273.721 434.43C275.981 433.98 277.681 434.88 278.401 436.89C278.451 437.04 278.531 437.18 278.621 437.3C278.671 437.36 278.721 437.42 278.781 437.47C278.911 437.6 279.071 437.7 279.241 437.76C279.281 437.78 279.331 437.8 279.371 437.81C279.541 437.86 279.721 437.89 279.911 437.88L288.121 437.35L287.351 439.71C287.331 439.78 287.311 439.86 287.301 439.94C287.251 440.25 287.181 440.58 287.071 440.97C287.001 441.24 286.921 441.52 286.821 441.81V441.8ZM461.201 188.16L448.951 199.76C445.111 203.39 442.891 208.28 440.751 213C438.161 218.72 435.711 224.12 430.711 226.29C430.101 226.55 429.541 226.75 429.041 226.94C426.331 227.92 424.641 228.83 424.211 233.08L422.751 247.43C422.491 249.96 422.981 252.66 423.461 255.27C423.971 258.12 424.511 261.07 423.981 263.53C422.641 269.72 421.571 274.88 420.941 280.25C420.681 282.51 420.521 284.66 420.441 286.79L415.691 291.49C415.411 291.76 415.251 292.14 415.251 292.54L415.111 307.32L410.401 312.24C410.281 312.36 410.191 312.5 410.121 312.65C409.651 313.67 409.241 314.67 408.851 315.64C407.901 317.97 407.001 320.17 405.551 321.92C405.291 322.25 405.001 322.57 404.671 322.95C404.371 323.27 404.071 323.6 403.771 323.92C401.321 326.57 398.541 329.57 398.781 333.76C398.811 334.17 398.861 334.66 398.911 335.19C398.951 335.53 398.981 335.88 399.021 336.25C399.211 338.23 399.051 338.81 398.981 338.95C398.741 339.43 397.831 339.84 397.171 340.1C396.771 340.26 396.331 340.42 395.871 340.58C393.801 341.33 391.221 342.25 389.281 344.39C387.921 345.86 387.071 347.69 386.681 349.94H385.881C379.531 350 373.541 350.04 367.691 351.38L360.681 352.98L358.141 353.18C357.851 353.2 357.581 353.3 357.351 353.48L355.231 355.09C354.971 355.27 353.941 355.47 353.331 355.59C351.741 355.91 350.101 356.23 349.311 357.39C348.991 357.86 348.701 358.47 348.441 359.2C348.131 360.01 347.861 360.94 347.561 362.01L340.301 360.64C339.951 360.57 339.591 360.63 339.281 360.81L331.101 365.46C331.101 365.46 331.021 365.51 330.981 365.53L328.831 367.04L322.181 371.69C321.241 372.35 320.301 373.07 319.401 373.84C315.251 377.36 311.541 381.87 308.471 385.82C308.271 386.08 308.161 386.39 308.151 386.71L308.021 393.12C306.371 396.12 306.481 398.42 307.191 401.11C307.271 401.4 307.361 401.71 307.451 402.02L308.081 404.1L308.691 406.12C308.691 406.12 308.711 406.18 308.711 406.21L309.271 408.06L305.681 420.16C305.071 420.49 304.491 420.82 303.931 421.16C302.581 421.99 301.321 422.89 300.231 423.83C299.891 424.1 299.571 424.38 299.321 424.62C299.171 424.75 299.031 424.88 298.881 425.03C296.381 427.35 294.381 429.94 292.751 432.17C292.201 432.93 291.651 433.7 291.111 434.46C291.111 434.46 291.111 434.46 291.111 434.48C291.051 434.43 290.981 434.39 290.911 434.36C290.811 434.31 290.711 434.27 290.601 434.25C290.461 434.21 290.301 434.2 290.151 434.21L280.771 434.81C279.321 432.12 276.441 430.83 273.161 431.48L257.811 434.53C257.291 434.64 256.641 434.65 255.851 434.57C254.031 434.42 251.831 433.82 249.881 433.3C249.321 433.15 248.771 433.01 248.251 432.87C248.281 432.86 248.311 432.85 248.351 432.84C248.861 432.63 249.401 432.29 249.841 431.91C250.021 431.78 250.181 431.63 250.301 431.51C250.851 431 251.371 430.4 251.761 429.84C251.871 429.7 251.971 429.54 252.061 429.39C252.181 429.23 252.281 429.06 252.371 428.89C252.451 428.76 252.521 428.62 252.571 428.52C252.661 428.35 252.741 428.17 252.821 427.97C252.971 427.61 253.101 427.22 253.191 426.84C253.241 426.66 253.261 426.5 253.271 426.39C253.351 425.9 253.351 425.44 253.271 424.98C253.231 424.8 253.201 424.63 253.171 424.55C253.151 424.48 253.121 424.37 253.061 424.26C253.011 424.12 252.951 423.99 252.901 423.9C252.851 423.79 252.791 423.68 252.721 423.59C252.621 423.44 252.521 423.3 252.401 423.17C252.371 423.14 252.351 423.11 252.321 423.08C252.061 422.84 251.801 422.59 251.521 422.37C251.281 422.17 251.041 421.97 250.841 421.82C250.651 421.67 250.451 421.52 250.281 421.42C249.661 420.98 249.031 420.59 248.381 420.25C248.331 420.22 248.281 420.19 248.231 420.16C248.091 420.09 247.951 420.02 247.801 419.94C247.741 419.91 247.681 419.89 247.621 419.86C246.361 419.21 244.961 418.64 243.191 418.04C243.101 418.01 243.001 417.98 242.911 417.95C242.891 417.94 242.871 417.93 242.851 417.93C242.761 417.89 242.661 417.86 242.561 417.83C242.261 417.73 241.951 417.63 241.681 417.55C240.771 417.27 239.861 417 238.971 416.73C237.641 416.34 236.401 415.97 235.201 415.56L229.491 413.63C229.881 413.15 230.321 412.67 230.661 412.43L234.991 409.29L235.431 409.13C239.651 407.57 244.011 405.96 246.811 402.39C246.991 402.16 247.101 401.88 247.121 401.59C247.181 400.91 247.291 400.09 247.411 399.22L247.531 398.34C247.931 395.18 248.071 392.9 247.531 391.31L244.891 383.85C244.681 383.25 244.111 382.85 243.481 382.85H243.441L237.171 383.04L240.681 369.49C241.031 368.12 240.631 366.25 240.141 364.96C239.761 363.94 239.071 362.58 238.031 361.93C235.841 360.56 233.461 361.38 231.361 362.11C229.741 362.67 228.201 363.2 226.981 362.73C226.781 362.65 226.581 362.54 226.401 362.41L224.101 348.59L227.311 346.89C230.571 345.25 231.861 341.59 232.371 338.77L234.791 338.57C235.371 338.53 235.931 338.31 236.391 337.95C237.371 337.18 238.321 336.79 239.211 336.79C240.311 336.79 241.501 337.38 242.741 338.55C243.381 339.15 244.151 339.71 245.031 340.24C247.581 341.7 250.761 342.52 253.781 342.52C257.221 342.52 260.141 341.5 262.231 339.55C264.791 337.18 266.411 334.13 267.991 331.18C268.771 329.72 269.511 328.33 270.321 327.1L273.631 322.1L275.581 319.15L276.371 319.11C277.131 319.07 277.841 318.74 278.371 318.2L279.221 317.32C279.751 316.76 280.061 316.02 280.061 315.25L280.081 311.73C280.081 311.73 280.091 311.75 280.091 311.76C280.561 312.72 281.431 313.39 282.461 313.6C282.661 313.63 282.851 313.65 283.051 313.65C283.311 313.65 283.571 313.62 283.831 313.55C284.801 313.29 285.691 313.16 286.541 313.16C287.911 313.16 288.951 313.49 290.041 313.84C290.261 313.91 290.491 313.98 290.711 314.05C288.441 315.06 286.491 316.88 285.101 319.37C284.631 320.22 284.591 321.25 285.011 322.12C285.431 323 286.241 323.62 287.201 323.79L297.641 325.63C297.781 325.65 297.931 325.67 298.081 325.67L302.571 325.79H302.651C303.231 325.79 303.781 325.63 304.261 325.32C304.341 325.65 304.431 326.01 304.501 326.34C304.511 326.39 304.521 326.44 304.531 326.49H304.481L304.421 326.51C304.331 326.51 304.241 326.52 304.151 326.53H304.021C304.021 326.53 303.941 326.55 303.901 326.55C303.711 326.57 303.521 326.59 303.341 326.61C303.301 326.62 303.271 326.62 303.231 326.63L302.841 326.69C302.751 326.7 302.661 326.72 302.571 326.74C302.541 326.74 302.491 326.76 302.451 326.77H302.421C302.421 326.77 302.381 326.77 302.371 326.79C302.181 326.83 302.001 326.88 301.811 326.95C301.501 327.04 301.201 327.17 300.901 327.33C300.611 327.48 300.331 327.66 300.031 327.91C300.031 327.91 300.011 327.93 299.991 327.94C299.661 328.23 299.371 328.54 299.111 328.91C299.071 328.97 299.021 329.04 298.981 329.1C298.931 329.19 298.881 329.27 298.831 329.36C298.691 329.61 298.591 329.84 298.511 330.02C298.481 330.1 298.451 330.17 298.431 330.25C298.371 330.42 298.281 330.69 298.211 331C298.101 331.49 298.041 331.97 298.041 332.43C298.041 332.64 298.051 332.83 298.071 333.03C298.071 333.07 298.071 333.12 298.071 333.16C298.121 333.5 298.181 333.82 298.281 334.11C298.311 334.24 298.351 334.37 298.401 334.49C298.411 334.53 298.421 334.57 298.441 334.62C298.561 334.95 298.711 335.23 298.821 335.44C298.831 335.46 298.841 335.47 298.841 335.48C297.071 336.69 296.041 339.18 295.561 341.27C295.341 341.29 295.101 341.3 294.841 341.3C293.351 341.3 291.581 340.96 289.881 340.63C289.001 340.46 288.091 340.29 287.231 340.16L286.651 340.08C283.001 339.57 282.191 339.39 281.031 337.2C280.541 336.28 279.601 335.68 278.561 335.62C278.451 335.61 278.341 335.61 278.231 335.61C275.931 335.61 273.771 337.05 272.451 339.47C271.021 342.09 270.971 345.13 272.321 347.23C272.771 347.93 273.491 348.41 274.301 348.56L291.451 351.68C291.781 351.74 292.141 351.77 292.461 351.79C292.721 351.82 293.011 351.83 293.321 351.84C293.411 351.85 293.501 351.85 293.591 351.85H293.701H293.871C294.111 351.86 294.351 351.87 294.581 351.89H294.751L294.921 351.91L295.651 355.52C296.071 357.63 295.481 358.26 295.161 358.59L295.101 358.65C295.011 358.72 294.931 358.8 294.851 358.88C294.811 358.91 294.781 358.94 294.751 358.96C294.571 359.11 294.381 359.24 294.181 359.37C294.111 359.41 294.051 359.45 293.991 359.49C293.991 359.49 293.951 359.52 293.881 359.56C293.821 359.59 293.761 359.62 293.701 359.66C293.581 359.73 293.471 359.79 293.361 359.86C293.061 360.02 292.771 360.18 292.471 360.33C292.451 360.34 292.431 360.35 292.411 360.36C292.281 360.43 292.141 360.5 292.011 360.56C291.981 360.57 291.961 360.59 291.931 360.6C291.681 360.73 291.421 360.85 291.171 360.98C290.881 361.12 290.601 361.26 290.311 361.41C289.891 361.63 289.501 361.84 289.121 362.05C288.681 362.3 288.261 362.55 287.871 362.8C287.581 362.99 287.271 363.2 286.941 363.44C286.591 363.69 286.291 363.93 286.011 364.17C285.681 364.45 285.391 364.71 285.121 364.99C284.941 365.15 284.781 365.32 284.661 365.46C284.571 365.55 284.481 365.64 284.401 365.74C284.211 365.95 284.021 366.18 283.831 366.44C283.811 366.46 283.801 366.47 283.791 366.49C283.731 366.56 283.671 366.64 283.601 366.74C283.451 366.94 283.321 367.13 283.221 367.29L283.191 367.33C282.281 368.76 282.411 370.58 283.541 372.65C284.071 373.63 284.861 374.73 285.951 375.35C286.491 375.66 287.091 375.85 287.771 375.85C288.501 375.85 289.181 375.63 289.761 375.2L290.071 374.97L290.721 374.51L292.761 373.03C293.691 372.56 295.101 372.21 296.501 371.91C296.541 371.91 296.581 371.89 296.621 371.88C296.981 371.8 297.351 371.73 297.711 371.65C298.031 371.58 298.351 371.51 298.671 371.45C300.641 371.01 302.261 370.58 303.721 369.89C304.261 369.65 304.741 369.38 305.191 369.08L310.501 365.55C310.741 365.4 310.951 365.21 311.131 364.99L311.181 364.93C311.251 364.85 311.311 364.78 311.371 364.71C312.211 363.75 312.691 363.46 313.221 363.3C313.281 363.29 313.331 363.27 313.391 363.26C313.861 363.13 314.521 363.07 315.461 363.07H315.891C317.471 363.07 318.781 361.85 318.881 360.26C318.891 360.21 318.891 360.15 318.891 360.09C318.891 359.91 318.911 359.71 318.911 359.48V359.43C318.901 358.98 318.861 358.1 318.651 357.15C318.331 355.72 317.741 354.74 316.811 354.11L316.611 353.97C317.581 353.2 318.781 352.45 320.121 351.79C320.551 351.58 320.921 351.27 321.201 350.89C321.951 351.47 322.901 351.76 324.021 351.76C326.001 351.76 328.601 350.8 329.831 349.64C331.201 348.34 332.151 346.99 332.741 345.51C333.601 343.35 333.491 341.37 333.311 339.88C333.201 338.98 333.021 338.1 332.841 337.16C332.771 336.8 332.701 336.43 332.631 336.05C332.191 333.7 331.851 331.14 332.781 327.86C332.871 327.85 332.961 327.85 333.061 327.85C335.281 327.85 336.881 328.64 338.731 329.55C340.571 330.46 342.661 331.49 345.291 331.49C345.411 331.49 345.531 331.49 345.661 331.49C346.261 331.47 346.831 331.27 347.321 330.92L347.381 330.87C347.501 330.78 347.621 330.7 347.731 330.61C347.771 330.57 347.811 330.54 347.851 330.51L347.901 330.47C348.011 330.37 348.111 330.28 348.221 330.18C348.431 329.98 348.631 329.77 348.811 329.55C348.861 329.5 348.911 329.44 348.961 329.38C349.101 329.2 349.211 329.05 349.291 328.92C349.351 328.85 349.401 328.77 349.441 328.7C349.441 328.69 349.461 328.68 349.471 328.66C349.601 328.45 349.731 328.22 349.841 328C349.881 327.94 349.911 327.87 349.951 327.78C350.081 327.52 350.191 327.26 350.281 326.99C350.381 326.73 350.451 326.47 350.511 326.23C350.541 326.13 350.571 326.03 350.591 325.92C350.621 325.79 350.641 325.66 350.661 325.54L350.691 325.36C350.741 325.1 350.771 324.83 350.791 324.55C350.831 324.05 350.841 323.56 350.821 323.1C350.801 322.72 350.771 322.37 350.721 322.05C350.721 322.02 350.721 321.98 350.711 321.95C351.931 322.48 353.271 322.75 354.411 322.75C355.001 322.75 355.551 322.67 356.051 322.54C359.151 321.67 359.621 318.44 359.691 316.04C359.781 316.04 359.871 316.04 359.961 316.04C360.051 316.04 360.151 316.04 360.241 316.04L370.631 315.05C371.061 315.01 371.481 314.93 371.871 314.8C372.191 314.7 372.491 314.57 372.781 314.41C372.941 314.32 373.091 314.23 373.241 314.12C373.341 314.05 373.431 313.99 373.501 313.93C373.711 313.77 373.891 313.6 374.061 313.42C374.231 313.23 374.401 313.03 374.551 312.81C374.801 312.45 375.021 312.05 375.191 311.62C375.341 311.26 375.461 310.88 375.541 310.5C375.541 310.5 375.541 310.47 375.541 310.45C375.591 310.22 375.651 309.9 375.691 309.53C375.991 306.55 374.761 302.71 372.891 300.81C372.481 300.37 371.871 298.84 371.831 298.15C372.691 296.15 375.871 292.9 379.091 291.31C379.581 291.06 380.011 290.72 380.361 290.29L380.491 290.14C380.541 290.09 380.581 290.04 380.621 289.98C380.931 289.57 381.191 289.12 381.411 288.71L384.381 289.14C384.521 289.16 384.671 289.17 384.811 289.17C385.531 289.17 386.231 288.91 386.781 288.43C387.441 287.86 387.821 287.03 387.811 286.15L387.701 270.24C387.701 270.17 387.701 270.1 387.691 270.03L387.521 267.87C387.781 267.93 388.051 267.96 388.331 267.96C390.571 267.96 393.561 265.54 393.561 263.05C393.561 262.5 393.411 261.96 393.121 261.49C392.091 259.8 389.561 256.23 387.351 254.79C385.351 253.53 384.641 252.65 383.491 250.94L381.361 247.78C380.781 246.92 379.841 246.45 378.871 246.45C378.391 246.45 377.921 246.57 377.471 246.8C377.231 246.93 376.991 247.07 376.721 247.25C376.521 247.38 376.321 247.53 376.131 247.67C376.091 247.7 376.061 247.73 376.021 247.77C375.861 247.9 375.671 248.06 375.471 248.27C375.251 248.49 375.081 248.69 374.971 248.82C374.711 249.13 374.511 249.43 374.331 249.72C374.251 249.86 374.161 250.03 374.081 250.2C374.021 250.32 373.961 250.44 373.921 250.55C373.811 250.78 373.751 250.96 373.711 251.08C373.641 251.29 373.581 251.5 373.541 251.69C373.541 251.75 373.511 251.82 373.491 251.9C373.421 252.17 373.391 252.4 373.381 252.53C373.261 253.58 373.351 254.66 373.651 255.75C373.651 255.8 373.681 255.85 373.701 255.91C373.741 256.05 373.781 256.19 373.831 256.31C373.871 256.45 373.921 256.58 373.981 256.72L373.681 257.52L373.161 255.64C372.861 254.55 371.981 253.73 370.891 253.5C370.681 253.45 370.471 253.43 370.271 253.43C369.931 253.43 369.601 253.49 369.291 253.6C369.241 253.39 369.181 253.18 369.091 252.99C369.821 252.81 370.511 252.43 371.161 251.86C372.271 250.88 373.671 248.57 373.891 246.83L374.481 242.24C374.511 241.98 374.511 241.72 374.481 241.46L374.341 240.41C373.801 236.53 373.121 231.7 374.311 228.74C376.691 222.84 376.241 218.54 375.851 214.75C375.511 211.48 375.241 208.9 376.871 205.57L376.931 205.44C377.001 205.31 377.071 205.17 377.131 205.03C377.571 204.1 377.501 203 376.941 202.13C376.391 201.27 375.441 200.75 374.421 200.75H374.381L373.371 200.77V200.72C373.371 200.72 373.371 200.67 373.371 200.65C373.381 200.48 373.411 200.32 373.431 200.15C373.431 200.1 373.451 200.05 373.461 200.01V199.99C373.461 199.99 373.481 199.91 373.491 199.87C373.501 199.83 373.511 199.79 373.521 199.75C373.541 199.69 373.571 199.62 373.601 199.55C373.621 199.52 373.631 199.47 373.641 199.43C374.291 199.14 374.811 198.62 375.101 197.99C375.231 197.75 375.311 197.48 375.351 197.21C375.371 197.14 375.381 197.07 375.381 197C375.381 196.93 375.401 196.86 375.401 196.79V196.7L375.451 195.16V195.06C375.451 194.21 375.081 193.39 374.451 192.82C374.251 192.65 374.041 192.5 373.821 192.39V192.08L373.571 186.57C373.501 184.97 372.181 183.7 370.571 183.7C370.201 183.7 369.831 183.77 369.491 183.9L366.411 185.08L365.811 184.8C365.811 184.8 365.861 184.75 365.881 184.72L366.881 183.57C367.151 183.27 367.351 182.92 367.471 182.54L368.131 180.52C368.281 180.52 368.421 180.52 368.571 180.52C369.071 180.52 369.581 180.47 370.061 180.39C370.081 180.39 370.101 180.39 370.121 180.39C370.281 180.35 370.421 180.32 370.561 180.29C370.691 180.26 370.811 180.22 370.941 180.18C370.981 180.17 371.051 180.15 371.081 180.14C371.221 180.09 371.361 180.04 371.491 179.99C371.711 179.91 371.881 179.82 371.991 179.77C372.141 179.69 372.291 179.61 372.441 179.52C372.501 179.49 372.581 179.44 372.691 179.36C372.891 179.23 373.081 179.08 373.281 178.9C373.631 178.61 373.911 178.27 374.151 177.88C374.201 177.81 374.241 177.75 374.281 177.68C374.351 177.57 374.401 177.46 374.461 177.34C374.481 177.29 374.501 177.23 374.531 177.17C374.581 177.05 374.631 176.92 374.671 176.78C374.721 176.64 374.761 176.5 374.791 176.36C374.881 175.99 374.911 175.6 374.891 175.21C374.891 175.02 374.861 174.85 374.841 174.72C374.831 174.62 374.811 174.51 374.781 174.38C374.741 174.19 374.701 174 374.651 173.82C374.631 173.75 374.621 173.69 374.601 173.63C374.471 173.22 374.321 172.84 374.141 172.45L374.111 172.39C374.041 172.25 373.971 172.09 373.901 171.95C373.851 171.85 373.801 171.76 373.751 171.67C373.701 171.56 373.631 171.45 373.561 171.34C373.481 171.19 373.391 171.03 373.291 170.88C373.161 170.66 373.021 170.45 372.891 170.25L372.791 170.1C372.751 170.04 372.701 169.97 372.651 169.91C372.631 169.88 372.611 169.85 372.591 169.82L373.931 162.3L374.141 161.16L375.371 158.65C375.791 157.83 375.841 156.87 375.511 155.97C375.441 155.78 375.371 155.63 375.321 155.52C375.261 155.38 375.181 155.25 375.101 155.12C374.901 154.81 374.651 154.5 374.361 154.21C374.261 154.11 374.151 154.01 374.031 153.9C373.931 153.81 373.821 153.73 373.701 153.65C373.561 153.56 373.421 153.46 373.281 153.39C373.271 153.38 373.261 153.37 373.241 153.36C373.421 153.05 373.541 152.71 373.591 152.36C373.981 152.53 374.391 152.62 374.821 152.62C375.171 152.62 375.531 152.56 375.871 152.43C376.101 152.34 376.321 152.24 376.541 152.11C376.671 152.04 376.771 151.97 376.861 151.91C377.021 151.8 377.171 151.69 377.321 151.56C377.441 151.46 377.551 151.36 377.671 151.25C377.741 151.17 377.801 151.11 377.851 151.05C377.961 150.95 378.121 150.77 378.271 150.54C378.301 150.52 378.321 150.48 378.341 150.46C378.411 150.35 378.481 150.25 378.551 150.15C378.651 149.99 378.751 149.82 378.841 149.64C378.911 149.51 378.961 149.4 379.011 149.28C379.011 149.28 379.011 149.25 379.031 149.24C379.081 149.14 379.131 149.03 379.171 148.93C379.261 148.69 379.331 148.49 379.381 148.33C379.381 148.3 379.381 148.28 379.401 148.25V148.2C379.451 148.11 379.471 148 379.501 147.9C379.641 147.35 379.711 146.84 379.761 146.4C379.761 146.32 379.781 146.23 379.781 146.14C379.781 146.06 379.781 145.98 379.781 145.91C379.791 145.5 379.791 145.14 379.761 144.8C379.761 144.65 379.731 144.5 379.711 144.35C379.711 144.21 379.681 144.1 379.671 144.02C379.651 143.87 379.611 143.66 379.551 143.41C379.491 143.16 379.421 142.92 379.341 142.68C379.271 142.5 379.211 142.33 379.131 142.16C379.061 141.98 378.991 141.84 378.931 141.72C378.891 141.64 378.851 141.57 378.811 141.5C378.771 141.43 378.731 141.36 378.681 141.29C378.631 141.2 378.561 141.1 378.491 141C378.401 140.86 378.311 140.76 378.271 140.7C378.091 140.48 377.921 140.31 377.801 140.19L377.761 140.15C377.691 140.09 377.601 140 377.471 139.9C377.271 139.73 377.101 139.62 376.991 139.54C376.501 139.22 375.921 139.04 375.331 139.04H375.291L377.971 133.41L381.151 133.08C381.951 132.99 382.691 132.59 383.191 131.95C383.691 131.32 383.921 130.51 383.811 129.71L382.951 123.06C382.991 122.91 383.031 122.74 383.071 122.59C383.581 120.73 384.281 118.18 382.351 116.55L381.401 115.73L382.571 115.58C383.451 115.48 384.261 114.99 384.751 114.22C385.301 113.36 385.381 112.28 384.961 111.35C384.881 111.19 384.811 111.04 384.731 110.88C384.671 110.76 384.611 110.64 384.551 110.53C384.521 110.46 384.481 110.39 384.451 110.32C384.441 110.3 384.431 110.28 384.421 110.26C384.491 110.24 384.571 110.21 384.661 110.17L384.741 110.14C384.881 110.08 385.031 110.03 385.181 109.98L385.271 109.95L385.461 109.9L385.611 109.85C385.671 109.83 385.731 109.81 385.801 109.79C385.871 109.78 385.941 109.75 386.021 109.73C386.081 109.71 386.151 109.69 386.211 109.68L386.301 109.65C386.481 109.6 386.681 109.55 386.861 109.5C386.911 109.5 386.951 109.48 386.991 109.47L387.101 109.43C387.191 109.42 387.251 109.4 387.331 109.37L387.681 109.26L388.041 109.15C388.111 109.13 388.181 109.1 388.251 109.08C388.351 109.04 388.441 109.01 388.521 108.97C388.731 108.9 388.921 108.81 389.101 108.71C389.221 108.65 389.331 108.59 389.431 108.53C389.661 108.39 389.841 108.26 390.001 108.12C390.451 107.76 390.801 107.32 391.031 106.82C391.121 106.63 391.171 106.48 391.201 106.41C391.401 105.8 391.431 105.17 391.311 104.56L391.261 104.32H391.981C392.911 104.32 393.781 103.87 394.351 103.13C394.451 103 394.531 102.86 394.601 102.72L399.171 102.55C400.431 102.5 401.781 102.28 403.211 102.03C406.171 101.53 409.241 101.01 411.501 102.12C417.421 105.03 424.911 109.03 430.291 114.19C431.221 115.08 432.111 115.97 432.981 116.84C435.891 119.74 438.631 122.48 442.271 124.84C449.081 129.27 454.041 129.35 458.031 129.41C461.101 129.46 463.521 129.5 466.221 131.35C466.221 131.35 466.241 131.35 466.241 131.36C466.291 131.39 466.341 131.42 466.381 131.45L466.441 131.48L468.371 132.49C468.451 132.78 468.541 133.25 468.591 133.5C468.641 133.78 468.691 134.03 468.731 134.18L472.681 149.67C476.011 162.78 471.281 178.6 461.171 188.15L461.201 188.16Z" fill="#F5F3B6"/>
</svg>
