<svg width="50" height="57" viewBox="0 0 50 57" fill="none" xmlns="http://www.w3.org/2000/svg">
<g filter="url(#filter0_d_514_2169)">
<mask id="path-1-outside-1_514_2169" maskUnits="userSpaceOnUse" x="1" y="1" width="48" height="55" fill="black">
<rect fill="white" x="1" y="1" width="48" height="55"/>
<path d="M25 3C37.1503 3 47 12.8497 47 25C47 32.9655 42.7663 39.9418 36.4268 43.8027L25.3506 52.5L14.2334 44.1875C7.52965 40.4178 3 33.2387 3 25C3 12.8497 12.8497 3 25 3Z"/>
</mask>
<path d="M25 3C37.1503 3 47 12.8497 47 25C47 32.9655 42.7663 39.9418 36.4268 43.8027L25.3506 52.5L14.2334 44.1875C7.52965 40.4178 3 33.2387 3 25C3 12.8497 12.8497 3 25 3Z" fill="#00B6BC"/>
<path d="M36.4268 43.8027L35.3865 42.0946L35.285 42.1564L35.1916 42.2297L36.4268 43.8027ZM25.3506 52.5L24.1529 54.1018L25.3804 55.0195L26.5858 54.073L25.3506 52.5ZM14.2334 44.1875L15.4311 42.5857L15.327 42.5079L15.2137 42.4442L14.2334 44.1875ZM25 3V5C36.0457 5 45 13.9543 45 25H47H49C49 11.7452 38.2548 1 25 1V3ZM47 25H45C45 32.239 41.155 38.5814 35.3865 42.0946L36.4268 43.8027L37.4671 45.5109C44.3776 41.3022 49 33.6921 49 25H47ZM36.4268 43.8027L35.1916 42.2297L24.1154 50.927L25.3506 52.5L26.5858 54.073L37.6619 45.3757L36.4268 43.8027ZM25.3506 52.5L26.5482 50.8982L15.4311 42.5857L14.2334 44.1875L13.0357 45.7893L24.1529 54.1018L25.3506 52.5ZM14.2334 44.1875L15.2137 42.4442C9.11387 39.0141 5 32.4867 5 25H3H1C1 33.9906 5.94543 41.8214 13.2531 45.9308L14.2334 44.1875ZM3 25H5C5 13.9543 13.9543 5 25 5V3V1C11.7452 1 1 11.7452 1 25H3Z" fill="#FFEDC8" mask="url(#path-1-outside-1_514_2169)"/>
<circle cx="25" cy="24.9996" r="17.7222" fill="#7BE9EF"/>
<path d="M36.9979 24.8689C36.9336 24.2455 36.6849 23.6686 36.3345 23.163L36.3584 23.1391L36.6515 23.2608C36.6571 23.1977 36.6249 23.1438 36.5958 23.0843C36.3767 22.693 36.0567 22.387 35.6559 22.1726C35.3842 21.8244 35.0634 21.5523 34.6847 21.3123C34.1017 20.9675 33.4487 20.761 32.771 20.6958C32.6123 20.6802 32.4619 20.6876 32.3045 20.7449L32.5875 20.9619C31.8333 20.9558 31.1472 21.201 30.5416 21.6605L30.256 19.8068L29.9521 17.6196L29.8069 16.8306C29.773 16.6445 29.7174 16.4619 29.6361 16.2902C29.7174 16.4623 29.7726 16.6445 29.8069 16.8306C29.8443 16.831 29.8713 16.8166 29.9095 16.7971L31.7937 15.8511L33.7965 14.8016C33.753 14.6595 33.6831 14.5403 33.5909 14.4199C32.8875 14.6829 32.2132 14.9577 31.5363 15.2772L29.5874 16.1932C29.3813 15.8141 29.0761 15.6015 28.6153 15.612C28.2327 15.6207 27.861 15.7211 27.5298 15.9089C26.9985 16.2102 26.8437 16.8223 26.8764 17.4053L24.9087 18.2969C24.8339 18.1565 24.687 18.0626 24.5235 18.027C24.0997 17.9357 23.5097 18.1878 23.1359 18.4295C22.8072 18.6425 22.6342 18.9534 22.5529 19.3199C22.5059 19.3133 22.472 19.3364 22.4181 19.3577L19.5575 20.4941L17.1108 21.4288C17.0826 21.4397 17.0699 21.451 17.0534 21.4762C16.6122 21.2514 15.8479 21.4679 15.3953 21.7118C15.1779 21.8287 15.0462 22.0235 15.0154 22.2504C15.0128 22.27 15.0106 22.2891 15.0084 22.3087C13.4603 22.9312 11.71 23.6416 10.8884 24.0146L10.0841 24.3794C10.1054 24.5367 10.1598 24.6928 10.2524 24.8398L12.3922 23.9903L15.0071 22.9791C15.0071 22.983 15.0071 22.9873 15.008 22.9912C15.0997 24.0146 15.2584 25.1436 15.6244 26.1144C15.7179 26.3622 15.9153 26.8204 15.984 26.6287L16.1713 26.1057C16.3065 26.8109 16.5465 27.446 16.8995 28.0599C18.4502 30.7539 21.3269 32.6381 24.3209 33.3567C25.586 33.6602 26.8803 33.7032 28.1471 33.5145L28.641 33.5119C29.5013 33.4124 30.3538 33.2072 31.0964 32.7555C31.4002 32.5707 31.6659 32.3586 31.9397 32.1212L31.7306 32.5842C31.9371 32.5003 32.098 32.4012 32.2658 32.2851C33.3218 31.5569 34.1126 30.5879 34.693 29.4619L34.6695 29.9205C34.7373 29.8988 34.7855 29.8488 34.839 29.7936C35.1538 29.4671 35.3781 29.0815 35.5185 28.6298L35.595 28.978C36.1063 28.1864 36.2789 27.2952 36.328 26.3757C36.4463 26.5039 36.4676 26.673 36.5554 26.8365C36.8262 26.2083 36.7671 25.5605 36.6823 24.9067C36.8101 25.0276 36.8767 25.1719 36.9793 25.3232C37.034 25.1619 37.0136 25.0232 36.9975 24.8689H36.9979ZM23.1767 27.7551C22.7642 27.8694 22.3633 27.9955 21.9894 28.2038C21.9464 28.2277 21.9151 28.2512 21.8716 28.2325C20.0527 26.7583 18.7463 24.6498 17.8029 22.5152L17.5456 21.9979L17.6464 21.9587L19.7005 21.1901L22.4316 20.1472L22.3099 22.4891C22.2942 23.6433 22.4333 24.7706 22.7616 25.8744C22.9528 26.5044 23.1911 27.103 23.5206 27.6573L23.1767 27.7551ZM26.9881 25.3671C26.0173 23.9807 25.3652 22.4513 25.1413 20.7493C25.0644 20.1637 25.0383 19.5938 25.0139 19.0169L26.895 18.1822L26.9642 20.0585C26.979 21.7961 27.105 23.4064 27.5193 25.0976L26.9881 25.3671Z" fill="#2A261B"/>
</g>
<defs>
<filter id="filter0_d_514_2169" x="0" y="0" width="50" height="56.0195" filterUnits="userSpaceOnUse" color-interpolation-filters="sRGB">
<feFlood flood-opacity="0" result="BackgroundImageFix"/>
<feColorMatrix in="SourceAlpha" type="matrix" values="0 0 0 0 0 0 0 0 0 0 0 0 0 0 0 0 0 0 127 0" result="hardAlpha"/>
<feOffset/>
<feGaussianBlur stdDeviation="0.5"/>
<feComposite in2="hardAlpha" operator="out"/>
<feColorMatrix type="matrix" values="0 0 0 0 0.839216 0 0 0 0 0.545098 0 0 0 0 0 0 0 0 1 0"/>
<feBlend mode="normal" in2="BackgroundImageFix" result="effect1_dropShadow_514_2169"/>
<feBlend mode="normal" in="SourceGraphic" in2="effect1_dropShadow_514_2169" result="shape"/>
</filter>
</defs>
</svg>
